<?xml version="1.0" standalone="no"?>
<!DOCTYPE svg PUBLIC "-//W3C//DTD SVG 1.1//EN" "http://www.w3.org/Graphics/SVG/1.1/DTD/svg11.dtd">
<svg width="100%" height="100%" viewBox="0 0 1108 897" version="1.1" xmlns="http://www.w3.org/2000/svg" xmlns:xlink="http://www.w3.org/1999/xlink" xml:space="preserve" style="fill-rule:evenodd;clip-rule:evenodd;stroke-linejoin:round;stroke-miterlimit:1.41421;">
    <g transform="matrix(1,0,0,1,-3158.88,-181.358)">
        <g transform="matrix(4.16667,0,0,4.16667,0,0)">
            <path d="M960.432,119.418C960.432,157.721 929.381,188.772 891.078,188.772C852.775,188.772 821.724,157.721 821.724,119.418C821.724,81.115 852.775,50.064 891.078,50.064C929.381,50.064 960.432,81.115 960.432,119.418" style="fill:rgb(165,223,249);fill-rule:nonzero;"/>
        </g>
        <g transform="matrix(4.16667,0,0,4.16667,0,0)">
            <path d="M888.624,77.175L888.749,77.175C889.112,77.79 889.921,78.088 890.502,78.594C890.618,78.316 890.867,78.324 891.125,78.335C891.381,78.347 891.443,78.489 891.494,78.633C891.544,78.776 891.589,78.922 891.606,79.068C891.626,79.227 891.611,79.388 891.611,79.548C892.303,79.549 892.315,79.546 892.524,80.012C892.733,80.479 892.927,80.952 893.103,81.43C893.148,81.555 893.098,81.699 893.092,81.835C893.057,81.836 893.021,81.837 892.985,81.838C892.734,81.45 892.484,81.062 892.234,80.675C892.184,81.165 892.187,81.638 892.183,82.112C892.183,82.178 892.172,82.285 892.121,82.303C891.881,82.389 891.918,82.541 891.919,82.69C891.92,82.928 891.909,83.167 891.924,83.405C891.934,83.584 891.908,83.732 891.672,83.828C891.608,83.854 891.562,83.942 891.556,84.004C891.54,84.178 891.551,84.354 891.551,84.521C892.916,84.995 893.105,85.706 892.112,86.641C892.205,86.655 892.29,86.668 892.375,86.681C892.575,87.689 892.772,88.685 892.972,89.685C893.266,91.161 893.561,92.647 893.859,94.142C894.161,95.656 894.466,97.18 894.771,98.715C895.079,100.259 895.397,101.813 895.697,103.38C895.95,104.706 896.344,106.029 896.25,107.398C896.246,107.456 896.268,107.516 896.277,107.579L896.694,107.579C896.688,107.104 896.684,106.64 896.678,106.178C896.833,106.159 896.949,106.145 897.065,106.131C897.245,105.396 897.425,104.678 897.59,103.961C897.61,103.872 897.545,103.773 897.539,103.678C897.532,103.563 897.495,103.412 897.569,103.344C897.629,103.29 897.864,103.298 897.971,103.347C898.14,103.425 898.112,103.557 898.006,103.687C897.954,103.749 897.93,103.847 897.949,103.921C898.113,104.563 898.307,105.201 898.455,105.848C898.508,106.079 898.597,106.206 898.946,106.156C898.955,106.712 898.965,107.248 898.972,107.786C898.973,107.82 898.963,107.88 898.943,107.884C898.698,107.936 898.786,108.094 898.788,108.213C898.822,110.577 898.862,112.967 898.901,115.38C898.902,115.468 898.904,115.557 898.905,115.656C898.989,115.656 899.07,115.66 899.071,115.656C899.119,115.308 899.161,114.96 899.204,114.614C899.351,114.605 899.482,114.597 899.626,114.589C899.837,113.559 900.049,112.546 900.242,111.535C900.258,111.453 900.169,111.344 900.098,111.265C899.946,111.098 899.943,110.945 900.126,110.809C900.315,110.669 900.538,110.668 900.733,110.803C900.921,110.933 900.922,111.086 900.802,111.263C900.727,111.373 900.671,111.519 900.693,111.64C900.784,112.112 900.909,112.581 901.024,113.052C901.148,113.566 901.276,114.08 901.402,114.594C901.573,114.602 901.705,114.608 901.873,114.615C901.889,115.304 901.904,115.98 901.915,116.657C901.916,116.695 901.876,116.763 901.849,116.765C901.563,116.783 901.663,116.959 901.665,117.078C901.705,119.115 901.751,121.169 901.797,123.241C901.799,123.342 901.801,123.442 901.804,123.55L902.428,123.55C902.417,123.078 902.406,122.621 902.395,122.164C902.597,122.156 902.755,122.15 902.917,122.144C902.944,122.073 902.977,122.013 902.99,121.949C903.2,120.995 903.406,120.043 903.614,119.096C903.661,118.882 903.748,118.685 903.48,118.488C903.308,118.361 903.406,118.169 903.583,118.054C903.773,117.931 903.983,117.939 904.178,118.065C904.365,118.186 904.439,118.382 904.286,118.504C904.039,118.701 904.136,118.892 904.196,119.104C904.285,119.422 904.366,119.741 904.452,120.061C904.64,120.753 904.828,121.446 905.018,122.143C905.219,122.152 905.387,122.159 905.568,122.166C905.579,122.257 905.594,122.33 905.596,122.404C905.618,123.112 905.629,123.822 905.667,124.534C905.677,124.736 905.61,124.837 905.371,124.831C905.585,132.151 905.804,139.675 906.03,147.436L909.004,147.436C908.987,146.959 908.972,146.508 908.956,146.057L911.686,146.057C911.718,146.832 911.749,147.587 911.779,148.353L913.95,148.353C913.931,147.917 913.912,147.496 913.894,147.08L916.628,147.08C916.664,147.818 916.7,148.535 916.737,149.269L919.715,149.269C919.707,149.124 919.7,148.999 919.693,148.875C919.463,144.756 919.236,140.702 919.013,136.714C918.86,133.99 918.711,131.297 918.559,128.633C918.553,128.533 918.537,128.359 918.484,128.345C918.247,128.283 918.299,128.138 918.291,128.014C918.256,127.474 918.228,126.936 918.2,126.399C918.196,126.316 918.205,126.233 918.209,126.153C918.362,126.14 918.486,126.131 918.602,126.122C918.617,126.092 918.631,126.075 918.634,126.057C918.806,125.172 918.979,124.289 919.14,123.408C919.15,123.345 919.035,123.267 919.024,123.194C919.005,123.058 918.958,122.886 919.033,122.791C919.148,122.644 919.401,122.645 919.539,122.787C919.628,122.879 919.61,123.05 919.61,123.185C919.61,123.286 919.515,123.392 919.54,123.485C919.751,124.238 919.986,124.99 920.205,125.748C920.276,125.995 920.339,126.228 920.782,126.132C920.806,126.53 920.828,126.9 920.852,127.278L921.336,127.278C921.328,127.154 921.322,127.05 921.315,126.945C921.233,125.614 921.177,124.289 921.056,122.973C921.015,122.517 921.065,122.073 920.825,121.59C920.578,121.094 920.709,120.487 920.675,119.933C920.837,119.92 920.947,119.911 921.073,119.901C921.19,119.142 921.305,118.395 921.42,117.651C921.45,117.456 921.523,117.268 921.3,117.083C921.245,117.037 921.306,116.808 921.392,116.768C921.503,116.716 921.728,116.726 921.839,116.788C921.922,116.835 921.973,117.054 921.914,117.113C921.759,117.268 921.811,117.41 921.862,117.574C921.942,117.827 922.001,118.084 922.074,118.339C922.225,118.863 922.38,119.388 922.529,119.901C922.683,119.918 922.792,119.93 922.949,119.947C922.969,120.238 922.987,120.516 923.005,120.795C923.044,120.798 923.082,120.801 923.121,120.804C923.134,120.709 923.163,120.614 923.157,120.52C923.052,118.879 922.954,117.25 922.827,115.632C922.79,115.17 922.816,114.713 922.631,114.242C922.471,113.836 922.546,113.379 922.516,112.919C922.829,112.961 922.854,112.815 922.882,112.638C922.957,112.15 923.067,111.668 923.142,111.182C923.159,111.064 923.08,110.934 923.068,110.809C923.061,110.729 923.06,110.616 923.118,110.574C923.179,110.532 923.354,110.525 923.409,110.564C923.481,110.617 923.504,110.731 923.512,110.819C923.519,110.897 923.441,110.982 923.464,111.055C923.644,111.663 923.839,112.27 924.03,112.882C924.146,112.906 924.25,112.927 924.369,112.953C924.396,113.338 924.422,113.707 924.449,114.09L924.796,114.09C924.767,113.67 924.68,113.257 924.719,112.859C924.875,111.279 925.067,109.714 925.247,108.158C925.459,106.326 925.674,104.508 925.881,102.704C926.11,100.701 926.33,98.715 926.561,96.747C926.57,96.663 926.672,96.591 926.759,96.476C926.754,96.474 926.69,96.452 926.645,96.417C926.057,95.978 926.117,95.29 926.807,95.016C927.095,94.902 927.178,94.774 927.119,94.543C927.099,94.461 927.128,94.37 927.092,94.294C927.038,94.177 926.977,94.047 926.866,93.963C926.558,93.73 926.541,93.441 926.823,93.215C926.915,93.141 926.972,93.016 926.98,92.908C926.995,92.724 926.959,92.536 926.944,92.355C927.473,92.307 927.473,92.307 927.501,92.655C927.508,92.738 927.521,92.822 927.519,92.904C927.514,93.046 927.572,93.142 927.737,93.24C928.06,93.43 928.062,93.742 927.792,93.962C927.72,94.021 927.633,94.1 927.632,94.175C927.628,94.415 927.662,94.657 927.681,94.893C928.173,95.012 928.517,95.226 928.656,95.598C928.801,95.981 928.624,96.283 928.349,96.476C928.438,96.617 928.529,96.709 928.557,96.809C928.924,98.122 929.284,99.443 929.647,100.772C930.073,102.33 930.5,103.9 930.932,105.48C931.364,107.062 931.814,108.653 932.235,110.258C932.556,111.481 933.031,112.698 933.063,113.96C933.064,114.002 933.087,114.046 933.103,114.104C933.213,114.098 933.307,114.093 933.431,114.086C933.395,113.689 933.361,113.312 933.328,112.939C933.452,112.916 933.546,112.899 933.638,112.883C933.731,112.304 933.83,111.741 933.906,111.176C933.922,111.06 933.839,110.932 933.825,110.809C933.815,110.728 933.814,110.605 933.872,110.576C933.951,110.537 934.108,110.54 934.196,110.58C934.257,110.608 934.275,110.73 934.278,110.808C934.282,110.924 934.214,111.044 934.248,111.152C934.402,111.647 934.598,112.137 934.744,112.634C934.803,112.835 934.902,112.942 935.185,112.934C935.194,113.043 935.195,113.133 935.212,113.221C935.312,113.754 935.177,114.277 935.212,114.802C935.333,116.589 935.527,118.39 935.695,120.205C935.71,120.363 935.719,120.523 935.746,120.681C935.754,120.726 935.818,120.768 935.857,120.812C935.886,120.804 935.915,120.798 935.943,120.79C935.917,120.508 935.891,120.225 935.864,119.943C936.027,119.923 936.145,119.908 936.273,119.893C936.364,119.141 936.45,118.402 936.545,117.666C936.572,117.458 936.621,117.265 936.402,117.07C936.349,117.022 936.398,116.807 936.476,116.774C936.595,116.724 936.802,116.726 936.928,116.779C937.012,116.815 937.095,117.04 937.049,117.079C936.828,117.267 936.95,117.468 937.013,117.67C937.243,118.413 937.48,119.158 937.716,119.905C937.858,119.915 937.97,119.923 938.116,119.934C938.17,120.485 938.225,121.025 938.273,121.567C938.277,121.609 938.256,121.653 938.237,121.694C938.196,121.788 938.104,121.881 938.113,121.974C938.267,123.645 938.433,125.328 938.598,127.023C938.606,127.107 938.625,127.191 938.639,127.276L939.122,127.276C939.084,126.885 939.047,126.516 939.009,126.129C939.384,126.201 939.471,126.066 939.501,125.812C939.594,125.035 939.726,124.266 939.826,123.495C939.839,123.402 939.779,123.278 939.705,123.194C939.572,123.042 939.548,122.907 939.692,122.786C939.844,122.659 940.066,122.643 940.207,122.789C940.299,122.883 940.281,123.055 940.288,123.191C940.293,123.3 940.218,123.413 940.251,123.514C940.494,124.258 940.77,124.999 941.007,125.748C941.09,126.012 941.181,126.206 941.592,126.144C941.662,126.83 941.731,127.491 941.799,128.154C941.803,128.192 941.804,128.256 941.782,128.263C941.473,128.365 941.612,128.593 941.631,128.774C944.582,157.455 947.906,189.708 951.673,226.244C951.691,226.425 951.713,226.607 951.733,226.788L830.691,226.788C830.709,226.634 830.728,226.481 830.744,226.328C834.516,189.733 837.844,157.434 840.803,128.717C840.811,128.64 840.822,128.563 840.825,128.486C840.827,128.438 840.831,128.355 840.81,128.35C840.506,128.284 840.645,128.077 840.652,127.923C840.665,127.663 840.702,127.403 840.729,127.143C840.764,126.811 840.798,126.48 840.835,126.128C841.219,126.2 841.318,126.051 841.397,125.803C841.641,125.035 841.924,124.276 842.174,123.513C842.207,123.413 842.132,123.299 842.137,123.19C842.143,123.054 842.125,122.883 842.217,122.788C842.358,122.642 842.611,122.647 842.723,122.789C842.796,122.883 842.746,123.053 842.725,123.189C842.708,123.299 842.606,123.414 842.619,123.515C842.706,124.251 842.815,124.985 842.913,125.723C842.945,125.971 842.932,126.244 843.435,126.131C843.395,126.534 843.358,126.904 843.322,127.276L843.802,127.276C843.937,125.883 844.1,124.52 844.186,123.166C844.221,122.642 844.386,122.128 844.196,121.579C844.029,121.092 844.258,120.492 844.311,119.936C844.463,119.923 844.574,119.914 844.709,119.902C844.943,119.16 845.182,118.425 845.405,117.689C845.469,117.481 845.618,117.264 845.377,117.068C845.336,117.033 845.431,116.806 845.517,116.773C845.645,116.722 845.851,116.727 845.967,116.781C846.042,116.816 846.08,117.036 846.024,117.08C845.793,117.263 845.853,117.447 845.879,117.646C845.978,118.397 846.069,119.152 846.163,119.901C846.308,119.915 846.417,119.925 846.57,119.94C846.543,120.232 846.517,120.512 846.491,120.793C846.534,120.798 846.578,120.802 846.621,120.807C846.648,120.706 846.69,120.605 846.7,120.504C846.862,118.79 847.028,117.087 847.168,115.397C847.199,115.018 847.262,114.645 847.172,114.255C847.077,113.84 847.224,113.376 847.265,112.934C847.306,112.947 847.347,112.96 847.387,112.972C847.477,112.874 847.607,112.783 847.648,112.675C847.839,112.175 848.014,111.672 848.171,111.169C848.207,111.051 848.141,110.922 848.149,110.798C848.154,110.717 848.185,110.604 848.253,110.566C848.323,110.527 848.486,110.53 848.548,110.572C848.608,110.613 848.612,110.725 848.603,110.806C848.591,110.929 848.508,111.057 848.522,111.174C848.583,111.661 848.655,112.147 848.753,112.63C848.78,112.761 848.911,112.873 848.994,112.993C849.035,112.981 849.075,112.969 849.116,112.957C849.082,113.334 849.049,113.712 849.014,114.108C849.144,114.099 849.238,114.092 849.288,114.089C849.422,113.403 849.516,112.743 849.686,112.093C850.111,110.466 850.568,108.854 851.007,107.252C851.473,105.547 851.932,103.855 852.391,102.175C852.884,100.372 853.373,98.582 853.867,96.808C853.897,96.701 854.009,96.603 854.092,96.488C853.342,95.945 853.809,95.194 854.447,94.994C854.715,94.911 854.806,94.803 854.787,94.606C854.78,94.531 854.791,94.455 854.804,94.38C854.835,94.199 854.817,94.055 854.609,93.928C854.363,93.778 854.349,93.45 854.609,93.311C854.957,93.124 854.917,92.891 854.941,92.651C854.951,92.554 854.957,92.457 854.965,92.353L855.495,92.353C855.479,92.555 855.443,92.738 855.459,92.917C855.468,93.024 855.526,93.145 855.617,93.221C855.888,93.448 855.866,93.743 855.545,93.97C855.464,94.028 855.372,94.111 855.359,94.186C855.318,94.418 855.314,94.652 855.296,94.88C856.296,95.156 856.49,95.971 855.696,96.493C855.762,96.606 855.853,96.695 855.865,96.793C855.985,97.762 856.093,98.737 856.205,99.715C856.382,101.266 856.561,102.828 856.742,104.4C856.923,105.983 857.132,107.574 857.283,109.183C857.433,110.774 857.824,112.353 857.646,113.997C857.643,114.03 857.665,114.064 857.679,114.11C857.783,114.1 857.878,114.091 858.002,114.079C858.03,113.682 858.057,113.305 858.083,112.927C858.121,112.94 858.16,112.953 858.198,112.966C858.288,112.872 858.424,112.787 858.46,112.684C858.631,112.201 858.775,111.714 858.928,111.23C858.977,111.076 859.056,110.925 858.904,110.776C858.874,110.746 858.951,110.593 859.022,110.559C859.097,110.524 859.255,110.535 859.317,110.579C859.375,110.619 859.373,110.731 859.362,110.809C859.349,110.916 859.261,111.028 859.275,111.127C859.358,111.666 859.461,112.203 859.565,112.741C859.577,112.801 859.643,112.902 859.684,112.901C859.98,112.891 859.935,113.054 859.913,113.195C859.826,113.767 859.707,114.339 859.645,114.913C859.573,115.581 859.55,116.251 859.505,116.923C859.426,118.123 859.344,119.33 859.268,120.543C859.262,120.631 859.298,120.718 859.313,120.806C859.357,120.8 859.4,120.795 859.444,120.789C859.463,120.506 859.481,120.223 859.501,119.934C859.656,119.922 859.768,119.913 859.894,119.904C859.923,119.828 859.957,119.759 859.977,119.687C860.164,119.02 860.349,118.354 860.532,117.69C860.592,117.477 860.709,117.269 860.492,117.065C860.447,117.024 860.553,116.793 860.645,116.758C860.768,116.712 860.989,116.733 861.086,116.8C861.159,116.852 861.121,117.023 861.103,117.139C861.082,117.264 861.001,117.386 860.994,117.509C860.986,117.655 861.029,117.8 861.053,117.946C861.156,118.598 861.26,119.252 861.363,119.9C861.507,119.914 861.615,119.926 861.749,119.94C861.715,120.493 861.683,121.034 861.647,121.577C861.645,121.612 861.627,121.675 861.607,121.678C861.344,121.721 861.425,121.891 861.416,122.012C861.31,123.655 861.21,125.31 861.106,126.975C861.101,127.077 861.094,127.179 861.088,127.284L861.572,127.284C861.596,126.9 861.618,126.53 861.644,126.113C862.125,126.266 862.146,125.983 862.218,125.748C862.445,125.002 862.676,124.259 862.887,123.515C862.916,123.413 862.877,123.28 862.814,123.188C862.712,123.032 862.715,122.899 862.88,122.781C863.056,122.657 863.281,122.646 863.395,122.794C863.469,122.889 863.416,123.061 863.398,123.197C863.385,123.297 863.297,123.401 863.311,123.494C863.374,123.932 863.457,124.368 863.54,124.805C863.624,125.247 863.715,125.69 863.801,126.124C863.974,126.136 864.098,126.144 864.259,126.154C864.222,126.831 864.186,127.502 864.144,128.174C864.142,128.216 864.101,128.289 864.07,128.293C863.791,128.328 863.873,128.505 863.865,128.632C863.494,135.218 863.116,141.984 862.728,148.936C862.722,149.047 862.727,149.157 862.726,149.273L865.702,149.273C865.739,148.53 865.775,147.805 865.812,147.08L868.547,147.08C868.527,147.513 868.509,147.926 868.49,148.344L870.671,148.344C870.702,147.563 870.732,146.807 870.763,146.057L873.494,146.057C873.478,146.53 873.462,146.981 873.445,147.437L876.407,147.437C876.634,139.663 876.853,132.145 877.066,124.829C876.746,124.86 876.758,124.689 876.765,124.506C876.793,123.729 876.812,122.955 876.836,122.173C877.049,122.159 877.227,122.148 877.412,122.137C877.706,121.057 877.991,119.996 878.283,118.942C878.325,118.79 878.356,118.678 878.181,118.552C877.996,118.42 878.037,118.232 878.216,118.085C878.405,117.93 878.706,117.931 878.89,118.085C879.065,118.231 879.098,118.409 878.903,118.55C878.733,118.673 878.737,118.791 878.773,118.945C878.895,119.462 879.003,119.982 879.118,120.503C879.24,121.049 879.364,121.596 879.486,122.142C879.69,122.152 879.855,122.16 880.05,122.17C880.039,122.642 880.028,123.091 880.018,123.551L880.602,123.551C880.61,123.473 880.624,123.409 880.625,123.345C880.673,121.217 880.721,119.106 880.757,117.014C880.759,116.912 880.65,116.81 880.593,116.708C880.57,116.716 880.548,116.723 880.525,116.731C880.541,116.027 880.557,115.325 880.572,114.618C880.735,114.607 880.878,114.597 881.026,114.586C881.275,113.561 881.524,112.556 881.756,111.553C881.775,111.468 881.707,111.355 881.641,111.277C881.499,111.111 881.499,110.96 881.672,110.815C881.841,110.673 882.137,110.674 882.306,110.814C882.481,110.958 882.476,111.11 882.323,111.273C882.262,111.338 882.171,111.426 882.184,111.491C882.382,112.518 882.596,113.548 882.808,114.585C882.971,114.599 883.112,114.611 883.293,114.626C883.289,114.827 883.265,115.019 883.29,115.206C883.311,115.36 883.141,115.583 883.518,115.691C883.52,115.551 883.521,115.453 883.522,115.355C883.558,113.223 883.604,111.11 883.614,109.016C883.616,108.613 883.654,108.219 883.505,107.797C883.327,107.295 883.478,106.717 883.488,106.171C883.64,106.159 883.749,106.152 883.858,106.144C883.88,106.105 883.906,106.074 883.916,106.041C884.11,105.329 884.308,104.619 884.487,103.909C884.507,103.832 884.405,103.741 884.401,103.656C884.397,103.549 884.393,103.405 884.472,103.342C884.539,103.289 884.776,103.283 884.843,103.335C884.923,103.397 884.921,103.54 884.919,103.649C884.918,103.725 884.814,103.809 884.83,103.878C884.997,104.63 885.18,105.382 885.358,106.139C885.5,106.151 885.617,106.161 885.774,106.175C885.77,106.645 885.764,107.108 885.759,107.578C885.853,107.584 885.907,107.592 885.961,107.59C886.023,107.589 886.087,107.58 886.174,107.572C886.175,107.468 886.183,107.381 886.176,107.295C886.099,106.211 886.368,105.157 886.577,104.105C886.89,102.534 887.203,100.975 887.513,99.425C887.821,97.879 888.127,96.342 888.431,94.815C888.729,93.315 889.025,91.824 889.32,90.344C889.564,89.115 889.808,87.894 890.05,86.677C890.144,86.665 890.222,86.655 890.353,86.637C889.844,86.31 889.602,85.929 889.719,85.449C889.839,84.955 890.283,84.684 890.856,84.529L890.856,83.976C890.709,83.969 890.576,83.963 890.415,83.956C890.353,83.418 890.291,82.89 890.23,82.366C890.122,82.335 890.027,82.308 889.923,82.278C889.925,81.667 889.892,81.067 889.94,80.471C889.976,80.037 889.861,79.69 889.361,79.447C889.181,79.359 889.145,79.234 889.176,79.08C889.236,78.779 889.294,78.479 889.326,78.177C889.335,78.094 889.286,77.972 889.205,77.928C888.953,77.792 888.673,77.685 888.39,77.561C888.457,77.45 888.54,77.313 888.624,77.175" style="fill:white;fill-rule:nonzero;"/>
        </g>
        <g transform="matrix(4.16667,0,0,4.16667,0,0)">
            <g>
                <g>
                    <clipPath id="_clip1">
                        <rect x="818.938" y="232.527" width="142.234" height="26.2"/>
                    </clipPath>
                    <g clip-path="url(#_clip1)">
                        <path d="M818.939,232.896L820.756,232.896L822.916,238.989L825.272,232.527L825.429,232.527L827.786,238.989L829.93,232.896L831.593,232.896L827.786,243.307L827.616,243.307L825.272,237.015L822.916,243.307L822.772,243.307L818.939,232.896Z" style="fill:rgb(0,174,239);fill-rule:nonzero;"/>
                        <path d="M832.828,232.896L834.575,232.896L834.575,236.901L839.375,236.901L839.375,232.896L841.108,232.896L841.108,242.952L839.375,242.952L839.375,238.45L834.575,238.45L834.575,242.952L832.828,242.952L832.828,232.896Z" style="fill:rgb(0,174,239);fill-rule:nonzero;"/>
                        <path d="M843.607,232.896L849.459,232.896L849.459,234.444L845.326,234.444L845.326,236.916L848.876,236.916L848.876,238.45L845.326,238.45L845.326,241.389L849.529,241.389L849.529,242.952L843.607,242.952L843.607,232.896Z" style="fill:rgb(0,174,239);fill-rule:nonzero;"/>
                        <path d="M854.103,237.483C855.665,237.483 856.447,236.901 856.447,235.878C856.447,234.771 855.608,234.33 853.947,234.33L853.308,234.33L853.308,237.483L854.103,237.483ZM851.56,232.896L853.89,232.896C855.168,232.896 856.162,232.981 857.029,233.592C857.781,234.117 858.207,234.913 858.207,235.736C858.207,237.057 857.426,238.051 856.006,238.535L859.257,242.951L857.199,242.951L854.145,238.776L853.293,238.776L853.293,242.951L851.56,242.951L851.56,232.896Z" style="fill:rgb(0,174,239);fill-rule:nonzero;"/>
                        <path d="M860.565,232.896L866.416,232.896L866.416,234.444L862.284,234.444L862.284,236.916L865.834,236.916L865.834,238.45L862.284,238.45L862.284,241.389L866.487,241.389L866.487,242.952L860.565,242.952L860.565,232.896Z" style="fill:rgb(0,174,239);fill-rule:nonzero;"/>
                        <path d="M877.266,234.16C875.179,234.16 873.716,235.665 873.716,237.91C873.716,240.097 875.136,241.602 877.281,241.602C877.92,241.602 878.545,241.446 879.241,241.176L879.241,239.074L876.812,239.074L876.812,237.526L880.973,237.526L880.973,242.284C879.781,242.952 878.516,243.292 877.266,243.292C874.072,243.292 871.898,241.034 871.898,237.924C871.898,234.799 874.128,232.541 877.266,232.541C878.389,232.541 879.44,232.825 880.449,233.379L880.291,235.452C879.355,234.601 878.346,234.16 877.266,234.16" style="fill:rgb(0,174,239);fill-rule:nonzero;"/>
                        <path d="M885.588,237.483C887.15,237.483 887.933,236.901 887.933,235.878C887.933,234.771 887.095,234.33 885.433,234.33L884.793,234.33L884.793,237.483L885.588,237.483ZM883.047,232.896L885.376,232.896C886.654,232.896 887.649,232.981 888.515,233.592C889.267,234.117 889.693,234.913 889.693,235.736C889.693,237.057 888.912,238.051 887.491,238.535L890.744,242.951L888.685,242.951L885.631,238.776L884.779,238.776L884.779,242.951L883.047,242.951L883.047,232.896Z" style="fill:rgb(0,174,239);fill-rule:nonzero;"/>
                        <path d="M892.051,232.896L897.903,232.896L897.903,234.444L893.769,234.444L893.769,236.916L897.32,236.916L897.32,238.45L893.769,238.45L893.769,241.389L897.973,241.389L897.973,242.952L892.051,242.952L892.051,232.896Z" style="fill:rgb(0,174,239);fill-rule:nonzero;"/>
                        <path d="M905.045,239.728L903.412,235.978L901.75,239.728L905.045,239.728ZM898.484,242.952L903.427,232.569L903.568,232.569L908.34,242.952L906.481,242.952L905.67,241.162L901.097,241.162L900.274,242.952L898.484,242.952Z" style="fill:rgb(0,174,239);fill-rule:nonzero;"/>
                        <path d="M913.297,242.952L911.522,242.952L911.522,234.431L908.127,234.431L908.127,232.896L916.678,232.896L916.678,234.431L913.297,234.431L913.297,242.952Z" style="fill:rgb(0,174,239);fill-rule:nonzero;"/>
                        <path d="M926.022,242.952L924.248,242.952L924.248,234.431L920.853,234.431L920.853,232.896L929.402,232.896L929.402,234.431L926.022,234.431L926.022,242.952Z" style="fill:rgb(0,174,239);fill-rule:nonzero;"/>
                        <rect x="930.737" y="232.896" width="1.775" height="10.056" style="fill:rgb(0,174,239);fill-rule:nonzero;"/>
                        <path d="M936.305,232.569L936.418,232.569L940.012,239.926L943.59,232.569L943.703,232.569L945.749,242.951L944.016,242.951L942.923,237.271L940.082,243.292L939.926,243.292L936.972,237.271L935.878,242.951L934.245,242.951L936.305,232.569Z" style="fill:rgb(0,174,239);fill-rule:nonzero;"/>
                        <path d="M947.453,232.896L953.305,232.896L953.305,234.444L949.171,234.444L949.171,236.916L952.722,236.916L952.722,238.45L949.171,238.45L949.171,241.389L953.375,241.389L953.375,242.952L947.453,242.952L947.453,232.896Z" style="fill:rgb(0,174,239);fill-rule:nonzero;"/>
                        <path d="M957.622,241.745C958.715,241.745 959.397,241.134 959.397,240.339C959.397,239.586 958.928,239.103 957.92,238.507L957.167,238.052C955.775,237.228 955.051,236.447 955.051,235.212C955.051,233.664 956.258,232.556 958.104,232.556C958.984,232.556 959.794,232.755 960.633,233.166L960.576,234.771C959.639,234.26 958.871,233.976 958.232,233.976C957.281,233.976 956.74,234.445 956.74,235.126C956.74,235.751 957.195,236.149 958.118,236.689L958.843,237.115C960.376,238.023 961.172,238.904 961.172,240.296C961.172,242.043 959.865,243.293 957.706,243.293C956.755,243.293 955.832,243.094 954.994,242.697L954.838,240.722C955.874,241.39 956.769,241.745 957.622,241.745" style="fill:rgb(0,174,239);fill-rule:nonzero;"/>
                        <path d="M843.004,258.712C841.854,258.712 840.76,258.328 839.88,257.619C838.644,256.624 837.934,255.119 837.934,253.358C837.934,250.261 840.135,247.989 843.046,247.989C844.112,247.989 845.078,248.301 846.001,248.941L845.816,250.9C845.021,250.048 844.154,249.622 843.16,249.622C841.2,249.622 839.751,251.128 839.751,253.343C839.751,255.46 841.13,256.994 843.061,256.994C844.183,256.994 845.149,256.496 846.128,255.503L846.028,257.732C845.134,258.371 844.098,258.712 843.004,258.712" style="fill:rgb(0,174,239);fill-rule:nonzero;"/>
                        <path d="M852.164,257.008C853.939,257.008 855.359,255.474 855.359,253.358C855.359,251.228 853.954,249.708 852.164,249.708C850.375,249.708 848.982,251.242 848.982,253.358C848.982,255.46 850.389,257.008 852.164,257.008M848.202,250.049C849.153,248.742 850.616,248.003 852.164,248.003C853.484,248.003 854.763,248.543 855.7,249.537C856.652,250.546 857.163,251.867 857.163,253.358C857.163,254.849 856.652,256.17 855.7,257.164C854.749,258.158 853.484,258.712 852.164,258.712C850.844,258.712 849.594,258.173 848.642,257.178C847.676,256.17 847.165,254.863 847.165,253.358C847.165,252.108 847.519,250.986 848.202,250.049" style="fill:rgb(0,174,239);fill-rule:nonzero;"/>
                        <path d="M860.217,248.003L860.33,248.003L863.924,255.36L867.503,248.003L867.616,248.003L869.661,258.385L867.929,258.385L866.835,252.704L863.994,258.726L863.839,258.726L860.885,252.704L859.79,258.385L858.157,258.385L860.217,248.003Z" style="fill:rgb(0,174,239);fill-rule:nonzero;"/>
                        <path d="M871.365,248.33L877.218,248.33L877.218,249.878L873.084,249.878L873.084,252.35L876.635,252.35L876.635,253.883L873.084,253.883L873.084,256.823L877.288,256.823L877.288,258.386L871.365,258.386L871.365,248.33Z" style="fill:rgb(0,174,239);fill-rule:nonzero;"/>
                        <path d="M887.357,258.386L885.582,258.386L885.582,249.865L882.187,249.865L882.187,248.33L890.737,248.33L890.737,249.865L887.357,249.865L887.357,258.386Z" style="fill:rgb(0,174,239);fill-rule:nonzero;"/>
                        <path d="M896.348,257.008C898.123,257.008 899.543,255.474 899.543,253.358C899.543,251.228 898.137,249.708 896.348,249.708C894.558,249.708 893.166,251.242 893.166,253.358C893.166,255.46 894.573,257.008 896.348,257.008M892.385,250.049C893.337,248.742 894.799,248.003 896.348,248.003C897.668,248.003 898.947,248.543 899.884,249.537C900.835,250.546 901.347,251.867 901.347,253.358C901.347,254.849 900.835,256.17 899.884,257.164C898.932,258.158 897.668,258.712 896.348,258.712C895.027,258.712 893.777,258.173 892.826,257.178C891.86,256.17 891.348,254.863 891.348,253.358C891.348,252.108 891.703,250.986 892.385,250.049" style="fill:rgb(0,174,239);fill-rule:nonzero;"/>
                        <path d="M909.768,252.975C911.33,252.975 912.112,252.392 912.112,251.37C912.112,250.262 911.274,249.822 909.612,249.822L908.973,249.822L908.973,252.975L909.768,252.975ZM907.226,248.33L909.555,248.33C910.848,248.33 911.842,248.444 912.694,249.055C913.447,249.595 913.872,250.433 913.872,251.299C913.872,253.23 912.396,254.466 909.726,254.466C909.655,254.466 909.399,254.48 908.973,254.466L908.973,258.386L907.226,258.386L907.226,248.33Z" style="fill:rgb(0,174,239);fill-rule:nonzero;"/>
                        <path d="M920.519,255.162L918.886,251.412L917.224,255.162L920.519,255.162ZM913.957,258.386L918.9,248.004L919.042,248.004L923.814,258.386L921.954,258.386L921.144,256.597L916.571,256.597L915.748,258.386L913.957,258.386Z" style="fill:rgb(0,174,239);fill-rule:nonzero;"/>
                        <path d="M927.023,257.178C928.117,257.178 928.798,256.568 928.798,255.772C928.798,255.019 928.33,254.537 927.322,253.94L926.568,253.486C925.176,252.662 924.452,251.88 924.452,250.645C924.452,249.097 925.66,247.989 927.505,247.989C928.386,247.989 929.196,248.188 930.034,248.6L929.977,250.205C929.04,249.694 928.272,249.409 927.634,249.409C926.682,249.409 926.142,249.878 926.142,250.56C926.142,251.185 926.597,251.582 927.52,252.122L928.245,252.548C929.778,253.457 930.574,254.337 930.574,255.73C930.574,257.476 929.267,258.726 927.108,258.726C926.156,258.726 925.233,258.528 924.395,258.13L924.24,256.156C925.276,256.823 926.17,257.178 927.023,257.178" style="fill:rgb(0,174,239);fill-rule:nonzero;"/>
                        <path d="M934.722,257.178C935.815,257.178 936.497,256.568 936.497,255.772C936.497,255.019 936.028,254.537 935.02,253.94L934.267,253.486C932.875,252.662 932.151,251.88 932.151,250.645C932.151,249.097 933.358,247.989 935.204,247.989C936.085,247.989 936.894,248.188 937.733,248.6L937.676,250.205C936.739,249.694 935.971,249.409 935.332,249.409C934.381,249.409 933.841,249.878 933.841,250.56C933.841,251.185 934.295,251.582 935.219,252.122L935.944,252.548C937.477,253.457 938.273,254.337 938.273,255.73C938.273,257.476 936.965,258.726 934.807,258.726C933.855,258.726 932.932,258.528 932.094,258.13L931.938,256.156C932.975,256.823 933.869,257.178 934.722,257.178" style="fill:rgb(0,174,239);fill-rule:nonzero;"/>
                        <path d="M941.069,256.752C941.58,256.752 941.978,257.15 941.978,257.661C941.978,258.159 941.566,258.556 941.069,258.556C940.587,258.556 940.174,258.144 940.174,257.661C940.174,257.164 940.587,256.752 941.069,256.752M940.16,248.344L942.205,248.003C942.205,250.035 941.864,252.505 941.339,255.474L940.813,255.474C940.373,252.477 940.075,250.12 940.16,248.344" style="fill:rgb(0,174,239);fill-rule:nonzero;"/>
                    </g>
                </g>
            </g>
        </g>
        <g transform="matrix(4.16667,0,0,4.16667,0,0)">
            <clipPath id="_clip2">
                <path d="M821.723,119.418C821.723,157.721 852.774,188.772 891.078,188.772C929.38,188.772 960.431,157.721 960.431,119.418C960.431,81.115 929.38,50.064 891.078,50.064C852.774,50.064 821.723,81.115 821.723,119.418Z"/>
            </clipPath>
            <g clip-path="url(#_clip2)">
                <clipPath id="_clip3">
                    <rect x="821.723" y="50.064" width="138.708" height="138.708"/>
                </clipPath>
                <g clip-path="url(#_clip3)">
                    <g opacity="0.25">
                        <clipPath id="_clip4">
                            <rect x="812.196" y="43.526" width="156.414" height="149.585"/>
                        </clipPath>
                        <g clip-path="url(#_clip4)">
                            <path d="M868.694,43.526L913.109,43.526L894.385,181.937L936.435,57.259L968.609,80.36L895.467,185.651L968.609,119.418L965.303,176.356L891.078,193.111L813.777,174.899L812.195,119.418L888.014,185.339L812.195,79.556L840.045,57.259L890.183,181.387L868.694,43.526Z" style="fill:white;fill-rule:nonzero;"/>
                        </g>
                    </g>
                </g>
            </g>
        </g>
        <g transform="matrix(4.16667,0,0,4.16667,0,0)">
            <path d="M982.755,208.826C982.755,208.826 981.172,205.084 980.046,203.959L980.046,208.204L981.179,208.54L982.755,208.826Z" style="fill:rgb(88,89,91);fill-rule:nonzero;"/>
        </g>
        <g transform="matrix(4.16667,0,0,4.16667,0,0)">
            <path d="M981.246,208.259L982.274,208.446C981.894,207.597 981.076,205.846 980.334,204.774L980.334,207.988L981.246,208.259ZM982.755,209.113C982.738,209.113 982.721,209.112 982.704,209.109L981.128,208.823C981.117,208.821 981.106,208.819 981.097,208.816L979.965,208.479C979.842,208.443 979.759,208.33 979.759,208.203L979.759,203.959C979.759,203.842 979.829,203.737 979.936,203.693C980.044,203.648 980.168,203.673 980.25,203.755C981.401,204.906 982.955,208.558 983.02,208.713C983.061,208.81 983.046,208.923 982.979,209.005C982.925,209.074 982.842,209.113 982.755,209.113" style="fill:rgb(88,89,91);fill-rule:nonzero;"/>
        </g>
        <g transform="matrix(4.16667,0,0,4.16667,0,0)">
            <path d="M988.13,208.545C988.13,208.545 990.578,208.897 990.578,211.378C990.578,213.858 985.944,214.722 982.85,213.714C979.755,212.707 976.372,211.051 975.868,209.612C975.364,208.172 977.643,207.374 979.742,208.205C981.842,209.036 985.781,207.766 988.13,208.545" style="fill:rgb(119,135,103);fill-rule:nonzero;"/>
        </g>
        <g transform="matrix(4.16667,0,0,4.16667,0,0)">
            <path d="M978.017,208.158C977.281,208.158 976.662,208.361 976.338,208.672C976.092,208.907 976.026,209.192 976.14,209.517C976.538,210.654 979.333,212.267 982.939,213.442C985.106,214.147 988.021,213.885 989.437,212.857C990.003,212.445 990.291,211.948 990.291,211.378C990.291,209.183 988.178,208.844 988.088,208.83C988.072,208.828 988.055,208.824 988.039,208.819C986.93,208.45 985.392,208.567 983.904,208.679C982.286,208.802 980.757,208.917 979.637,208.473C979.079,208.253 978.521,208.158 978.017,208.158M985.613,214.417C984.639,214.417 983.649,214.278 982.76,213.989C979.811,213.029 976.164,211.331 975.596,209.708C975.407,209.166 975.529,208.651 975.939,208.256C976.723,207.503 978.404,207.366 979.849,207.938C980.846,208.333 982.31,208.222 983.861,208.105C985.396,207.989 986.984,207.869 988.201,208.265C988.493,208.319 990.867,208.832 990.867,211.378C990.867,212.132 990.49,212.804 989.775,213.323C988.794,214.035 987.226,214.417 985.613,214.417" style="fill:rgb(88,89,91);fill-rule:nonzero;"/>
        </g>
        <g transform="matrix(4.16667,0,0,4.16667,0,0)">
            <clipPath id="_clip5">
                <rect x="983.518" y="207.74" width="6.616" height="4.723"/>
            </clipPath>
            <g clip-path="url(#_clip5)">
                <g>
                    <path d="M990.082,210.971C989.758,212.183 988.038,212.776 986.24,212.296C984.442,211.815 983.248,210.443 983.571,209.231C983.895,208.019 985.615,207.426 987.413,207.907C989.211,208.387 990.405,209.759 990.082,210.971" style="fill:rgb(209,211,212);fill-rule:nonzero;"/>
                </g>
            </g>
        </g>
        <g transform="matrix(4.16667,0,0,4.16667,0,0)">
            <path d="M986.797,208.252C986.636,208.856 985.863,209.173 985.071,208.961C984.28,208.75 983.77,208.089 983.931,207.486C984.092,206.882 984.864,206.565 985.656,206.776C986.447,206.988 986.958,207.648 986.797,208.252" style="fill:rgb(86,99,75);fill-rule:nonzero;"/>
        </g>
        <g transform="matrix(4.16667,0,0,4.16667,0,0)">
            <path d="M985.164,206.998C984.987,206.998 984.817,207.029 984.667,207.092C984.426,207.191 984.264,207.357 984.209,207.56C984.154,207.763 984.212,207.989 984.372,208.195C984.549,208.424 984.824,208.597 985.146,208.684C985.469,208.769 985.793,208.756 986.061,208.646C986.302,208.547 986.465,208.381 986.518,208.178C986.637,207.736 986.207,207.222 985.581,207.054C985.441,207.017 985.3,206.998 985.164,206.998M985.563,209.315C985.377,209.315 985.185,209.29 984.997,209.24C984.554,209.121 984.17,208.875 983.916,208.547C983.644,208.195 983.551,207.792 983.652,207.412C983.754,207.031 984.037,206.728 984.447,206.559C984.831,206.401 985.287,206.379 985.73,206.498C986.674,206.75 987.277,207.57 987.075,208.326C986.974,208.707 986.691,209.01 986.28,209.179C986.06,209.269 985.815,209.315 985.563,209.315" style="fill:rgb(88,89,91);fill-rule:nonzero;"/>
        </g>
        <g transform="matrix(4.16667,0,0,4.16667,0,0)">
            <path d="M987.302,207.349C987.277,207.349 987.251,207.346 987.226,207.339C987.169,207.323 985.824,206.951 984.231,206.084C982.749,205.278 980.775,203.875 979.786,201.772C979.718,201.628 979.781,201.457 979.924,201.39C980.068,201.322 980.24,201.384 980.307,201.527C981.619,204.319 984.835,205.85 986.438,206.462C984.125,203.428 983.95,200.583 983.944,200.454C983.935,200.295 984.057,200.16 984.216,200.152C984.376,200.143 984.51,200.265 984.519,200.424C984.52,200.456 984.728,203.717 987.518,206.87C987.602,206.965 987.614,207.105 987.546,207.213C987.493,207.299 987.4,207.349 987.302,207.349" style="fill:rgb(88,89,91);fill-rule:nonzero;"/>
        </g>
        <g transform="matrix(4.16667,0,0,4.16667,0,0)">
            <path d="M991.665,215.193C991.62,215.193 991.574,215.182 991.532,215.16C989.394,214.043 989.194,213.382 989.208,213.15C989.217,212.992 989.349,212.872 989.512,212.879C989.657,212.887 989.772,213.003 989.782,213.145C989.801,213.199 990.014,213.717 991.799,214.65C991.939,214.724 991.994,214.897 991.92,215.038C991.869,215.137 991.768,215.193 991.665,215.193" style="fill:rgb(88,89,91);fill-rule:nonzero;"/>
        </g>
        <g transform="matrix(4.16667,0,0,4.16667,0,0)">
            <path d="M988.542,216.848C988.469,216.848 988.395,216.82 988.339,216.764C986.736,215.161 986.548,213.409 986.54,213.335C986.524,213.177 986.641,213.035 986.798,213.02C986.956,213.004 987.098,213.12 987.113,213.278C987.116,213.304 987.301,214.911 988.746,216.356C988.858,216.469 988.858,216.651 988.746,216.764C988.689,216.82 988.616,216.848 988.542,216.848" style="fill:rgb(88,89,91);fill-rule:nonzero;"/>
        </g>
        <g transform="matrix(4.16667,0,0,4.16667,0,0)">
            <path d="M983.962,215.984C983.803,215.984 983.674,215.855 983.674,215.696C983.674,214.539 984.144,213.26 984.164,213.207C984.22,213.057 984.385,212.982 984.534,213.037C984.684,213.092 984.759,213.258 984.704,213.407C984.699,213.419 984.249,214.644 984.249,215.696C984.249,215.855 984.12,215.984 983.962,215.984" style="fill:rgb(88,89,91);fill-rule:nonzero;"/>
        </g>
        <g transform="matrix(4.16667,0,0,4.16667,0,0)">
            <path d="M974.508,200.901C977.64,204.14 980.767,211.919 980.767,211.919C980.767,211.919 979.523,213.364 978.188,211.984C978.188,211.984 976.021,209.185 975.495,206.616C974.971,204.047 974.508,200.901 974.508,200.901" style="fill:rgb(119,135,103);fill-rule:nonzero;"/>
        </g>
        <g transform="matrix(4.16667,0,0,4.16667,0,0)">
            <path d="M978.406,211.795C978.739,212.135 979.087,212.301 979.446,212.292C979.88,212.279 980.246,212.01 980.427,211.849C979.978,210.766 977.518,204.981 974.941,201.824C975.119,202.957 975.436,204.889 975.777,206.558C976.266,208.948 978.251,211.592 978.406,211.795M979.413,212.868C978.901,212.868 978.42,212.638 977.98,212.184C977.973,212.176 977.967,212.168 977.96,212.16C977.87,212.043 975.746,209.278 975.214,206.673C974.692,204.126 974.227,200.974 974.222,200.942C974.205,200.818 974.268,200.697 974.381,200.642C974.493,200.587 974.628,200.61 974.715,200.7C976.034,202.065 977.499,204.351 979.069,207.495C980.234,209.828 981.026,211.791 981.034,211.811C981.074,211.91 981.054,212.024 980.985,212.106C980.959,212.136 980.341,212.842 979.463,212.867C979.446,212.868 979.429,212.868 979.413,212.868" style="fill:rgb(88,89,91);fill-rule:nonzero;"/>
        </g>
        <g transform="matrix(4.16667,0,0,4.16667,0,0)">
            <path d="M970.827,214.702C970.703,214.702 970.588,214.62 970.552,214.495C970.507,214.343 970.594,214.182 970.746,214.138C972.055,213.753 973.754,213.831 974.459,213.887L974.298,200.911C974.296,200.752 974.424,200.621 974.582,200.619L974.586,200.619C974.743,200.619 974.872,200.746 974.874,200.904L975.039,214.2C975.04,214.282 975.005,214.361 974.943,214.416C974.882,214.472 974.8,214.498 974.718,214.489C974.695,214.486 972.452,214.237 970.908,214.69C970.882,214.698 970.854,214.702 970.827,214.702" style="fill:rgb(88,89,91);fill-rule:nonzero;"/>
        </g>
        <g transform="matrix(4.16667,0,0,4.16667,0,0)">
            <path d="M974.647,205.858C974.647,205.858 974.278,205.992 973.902,206.266" style="fill:rgb(132,134,136);fill-rule:nonzero;"/>
        </g>
        <g transform="matrix(4.16667,0,0,4.16667,0,0)">
            <path d="M973.901,206.554C973.812,206.554 973.724,206.513 973.669,206.435C973.575,206.307 973.603,206.127 973.732,206.033C974.136,205.739 974.532,205.593 974.548,205.587C974.698,205.533 974.863,205.61 974.918,205.76C974.972,205.909 974.895,206.074 974.746,206.128C974.737,206.132 974.404,206.256 974.07,206.499C974.019,206.536 973.96,206.554 973.901,206.554" style="fill:rgb(88,89,91);fill-rule:nonzero;"/>
        </g>
        <g transform="matrix(4.16667,0,0,4.16667,0,0)">
            <path d="M974.56,206.857C974.56,206.857 974.191,206.991 973.815,207.265" style="fill:rgb(132,134,136);fill-rule:nonzero;"/>
        </g>
        <g transform="matrix(4.16667,0,0,4.16667,0,0)">
            <path d="M973.815,207.553C973.726,207.553 973.638,207.512 973.582,207.434C973.488,207.306 973.516,207.126 973.645,207.032C974.05,206.738 974.446,206.592 974.462,206.586C974.612,206.532 974.777,206.609 974.831,206.758C974.885,206.907 974.808,207.073 974.659,207.127C974.656,207.128 974.321,207.253 973.984,207.498C973.932,207.535 973.874,207.553 973.815,207.553" style="fill:rgb(88,89,91);fill-rule:nonzero;"/>
        </g>
        <g transform="matrix(4.16667,0,0,4.16667,0,0)">
            <path d="M974.475,207.856C974.475,207.856 974.106,207.99 973.729,208.264" style="fill:rgb(132,134,136);fill-rule:nonzero;"/>
        </g>
        <g transform="matrix(4.16667,0,0,4.16667,0,0)">
            <path d="M973.729,208.552C973.64,208.552 973.552,208.511 973.496,208.434C973.403,208.305 973.431,208.125 973.559,208.031C973.964,207.737 974.36,207.592 974.376,207.585C974.526,207.531 974.691,207.608 974.746,207.758C974.799,207.907 974.722,208.072 974.574,208.126C974.57,208.128 974.235,208.252 973.898,208.497C973.847,208.534 973.788,208.552 973.729,208.552" style="fill:rgb(88,89,91);fill-rule:nonzero;"/>
        </g>
        <g transform="matrix(4.16667,0,0,4.16667,0,0)">
            <path d="M974.388,208.855C974.388,208.855 974.019,208.989 973.642,209.264" style="fill:rgb(132,134,136);fill-rule:nonzero;"/>
        </g>
        <g transform="matrix(4.16667,0,0,4.16667,0,0)">
            <path d="M973.642,209.551C973.553,209.551 973.466,209.51 973.41,209.433C973.316,209.304 973.344,209.124 973.473,209.03C973.878,208.736 974.273,208.59 974.289,208.584C974.44,208.53 974.604,208.607 974.659,208.757C974.713,208.906 974.636,209.071 974.487,209.125C974.484,209.127 974.148,209.251 973.812,209.496C973.76,209.533 973.702,209.551 973.642,209.551" style="fill:rgb(88,89,91);fill-rule:nonzero;"/>
        </g>
        <g transform="matrix(4.16667,0,0,4.16667,0,0)">
            <path d="M989.643,210.016C989.327,211.202 987.808,211.827 986.253,211.411C984.698,210.995 983.694,209.697 984.011,208.511C984.328,207.325 985.846,206.701 987.401,207.116C988.956,207.532 989.96,208.83 989.643,210.016" style="fill:rgb(119,135,103);fill-rule:nonzero;"/>
        </g>
        <g transform="matrix(4.16667,0,0,4.16667,0,0)">
            <path d="M986.434,207.274C986.05,207.274 985.682,207.342 985.351,207.478C984.796,207.707 984.418,208.1 984.289,208.585C984.16,209.069 984.29,209.598 984.658,210.073C985.042,210.571 985.636,210.947 986.328,211.132C987.726,211.505 989.089,210.972 989.365,209.941C989.495,209.456 989.364,208.928 988.997,208.453C988.612,207.955 988.018,207.578 987.327,207.394C987.028,207.314 986.727,207.274 986.434,207.274M987.209,211.825C986.874,211.825 986.527,211.781 986.179,211.688C985.366,211.471 984.664,211.022 984.203,210.425C983.723,209.804 983.556,209.098 983.733,208.436C983.91,207.774 984.407,207.244 985.132,206.946C985.83,206.659 986.663,206.62 987.475,206.837C988.288,207.054 988.99,207.503 989.452,208.1C989.931,208.721 990.098,209.427 989.921,210.089C989.637,211.154 988.515,211.825 987.209,211.825" style="fill:rgb(88,89,91);fill-rule:nonzero;"/>
        </g>
        <g transform="matrix(4.16667,0,0,4.16667,0,0)">
            <g>
                <clipPath id="_clip6">
                    <rect x="986.602" y="207.678" width="2.926" height="2.317"/>
                </clipPath>
                <g clip-path="url(#_clip6)">
                    <path d="M989.498,209.219C989.337,209.823 988.564,210.14 987.773,209.929C986.981,209.718 986.471,209.057 986.632,208.453C986.793,207.85 987.565,207.532 988.357,207.743C989.148,207.955 989.659,208.615 989.498,209.219" style="fill:rgb(209,211,212);fill-rule:nonzero;"/>
                </g>
            </g>
        </g>
        <g transform="matrix(4.16667,0,0,4.16667,0,0)">
            <path d="M989.498,208.556C989.337,209.16 988.564,209.477 987.773,209.266C986.981,209.054 986.471,208.393 986.632,207.79C986.793,207.186 987.565,206.869 988.357,207.08C989.148,207.292 989.659,207.952 989.498,208.556" style="fill:rgb(119,135,103);fill-rule:nonzero;"/>
        </g>
        <g transform="matrix(4.16667,0,0,4.16667,0,0)">
            <path d="M989.498,208.556L989.5,208.556L989.498,208.556ZM987.872,207.304C987.403,207.304 987.002,207.52 986.91,207.864C986.792,208.306 987.222,208.82 987.848,208.988C988.474,209.156 989.102,208.923 989.22,208.482C989.338,208.04 988.909,207.526 988.282,207.358C988.144,207.321 988.006,207.304 987.872,207.304M988.258,209.618C988.075,209.618 987.888,209.594 987.698,209.544C986.755,209.292 986.151,208.472 986.353,207.716C986.556,206.96 987.488,206.55 988.432,206.802C989.375,207.054 989.978,207.874 989.776,208.63C989.614,209.235 988.985,209.618 988.258,209.618" style="fill:rgb(88,89,91);fill-rule:nonzero;"/>
        </g>
        <g transform="matrix(4.16667,0,0,4.16667,0,0)">
            <clipPath id="_clip7">
                <path d="M941.63,128.774L951.734,226.787L983.043,226.787L1006.82,146.517L977.638,106.903L941.63,128.774Z"/>
            </clipPath>
            <g clip-path="url(#_clip7)">
                <path d="M945.331,225.61C945.331,225.61 955.787,199.134 964.636,204.592C964.636,204.592 958.758,197.353 953.099,203.012C947.439,208.672 971.114,145.433 982.755,142.752C982.755,142.752 956.47,145.733 946.343,199.072C946.343,199.072 952.351,154.216 976.726,114.835C976.726,114.835 935.842,161.728 932.945,207.204L945.331,225.61Z" style="fill:rgb(174,209,54);fill-rule:nonzero;"/>
                <path d="M950.793,233.599C950.793,233.599 961.25,207.123 970.098,212.581C970.098,212.581 964.22,205.342 958.561,211.001C952.901,216.661 976.576,153.422 988.217,150.741C988.217,150.741 961.932,153.722 951.805,207.061C951.805,207.061 957.813,162.205 982.188,122.824C982.188,122.824 941.305,169.717 938.407,215.193L950.793,233.599Z" style="fill:rgb(168,211,132);fill-rule:nonzero;"/>
            </g>
        </g>
        <g transform="matrix(4.16667,0,0,4.16667,0,0)">
            <clipPath id="_clip8">
                <path d="M775.589,146.517L799.362,226.787L830.672,226.787L840.775,128.774L804.767,106.903L775.589,146.517Z"/>
            </clipPath>
            <g clip-path="url(#_clip8)">
                <path d="M837.074,225.61C837.074,225.61 826.618,199.134 817.769,204.592C817.769,204.592 823.647,197.353 829.306,203.012C834.966,208.672 811.291,145.433 799.65,142.752C799.65,142.752 825.935,145.733 836.062,199.072C836.062,199.072 830.054,154.216 805.679,114.835C805.679,114.835 846.562,161.728 849.46,207.204L837.074,225.61Z" style="fill:rgb(174,209,54);fill-rule:nonzero;"/>
                <path d="M831.612,233.599C831.612,233.599 821.155,207.123 812.307,212.581C812.307,212.581 818.185,205.342 823.844,211.001C829.504,216.661 805.829,153.422 794.188,150.741C794.188,150.741 820.473,153.722 830.6,207.061C830.6,207.061 824.591,162.205 800.217,122.824C800.217,122.824 841.1,169.717 843.998,215.193L831.612,233.599Z" style="fill:rgb(168,211,132);fill-rule:nonzero;"/>
            </g>
        </g>
        <g transform="matrix(4.16667,0,0,4.16667,0,0)">
            <path d="M827.773,172.115L831.815,171.292L824.756,168.54L824.339,168.624C823.318,168.83 822.086,169.076 820.691,169.353L817.94,168.282L821.77,167.506L815.485,164.919C815.259,164.832 789.453,154.807 786.399,153.487C785.382,153.049 784.992,152.261 784.883,151.989L784.706,150.432L786.353,150.129L786.347,150.117C787.682,149.863 789.275,149.555 789.669,149.473L789.904,149.428L796.608,148.005L790.519,145.625L790.468,145.575L790.166,145.484C789.837,145.359 787.585,144.482 785.211,143.553C784.936,142.841 784.404,142.255 783.727,141.911L783.605,140.856C783.43,138.242 782.02,135.618 779.249,135.618C776.306,135.618 773.869,138.423 772.731,143.121C772.429,144.36 772.126,145.599 771.822,146.839L771.794,146.952C771.203,149.338 770.732,151.269 770.315,153.03L770.077,154.029C768.794,159.39 767.465,164.934 769.556,170.719C771.089,174.964 774.163,177.99 778.221,179.294L778.59,180.402L779.273,180.633C779.314,180.646 779.844,180.821 780.74,180.987L781.131,182.266L782.108,185.452L774.789,185.452L772.35,188.346L773.752,189.234C774.029,189.408 774.346,189.516 774.658,189.544C776.763,189.753 777.004,190.682 777.029,190.953C777.012,191.176 777.035,191.403 777.096,191.631L777.385,192.701L779.907,192.701L779.907,194.925L781.354,194.925C781.512,194.925 781.659,194.909 781.772,194.883C782.294,194.775 782.804,194.71 783.291,194.693L783.901,194.695L783.942,194.697C784.198,194.709 784.44,194.735 784.641,194.769C785.627,194.957 786.375,195.432 786.433,195.471L787.835,196.442L789.045,195.231C789.064,195.213 789.082,195.197 789.101,195.181L789.204,195.1C789.584,194.829 790.193,194.686 790.968,194.686C791.741,194.686 792.392,194.829 792.508,194.857L792.563,194.87C792.722,194.907 792.883,194.925 793.043,194.925L794.49,194.925L794.49,191.403L788.897,187.015L788.191,180.855C788.477,180.794 788.764,180.736 789.047,180.662L790.499,180.289L790.223,179.352C801.544,177.306 813.686,174.927 820.318,173.609L824.343,175.179L831.916,173.732L827.773,172.115Z" style="fill:white;fill-rule:nonzero;"/>
        </g>
        <g transform="matrix(4.16667,0,0,4.16667,0,0)">
            <path d="M785.258,178.594L786.32,187.859L785.674,188.408L781.354,192.083L781.354,193.477C781.396,193.477 781.439,193.474 781.478,193.465C782.132,193.329 782.727,193.263 783.267,193.245L783.882,193.245C783.924,193.245 783.967,193.248 784.009,193.251C784.332,193.266 784.637,193.299 784.911,193.347C786.26,193.604 787.24,194.268 787.252,194.277L787.665,194.563L788.022,194.207C788.079,194.15 788.136,194.098 788.196,194.051C788.227,194.023 788.257,194.002 788.287,193.978C788.312,193.96 788.335,193.939 788.362,193.921C790.022,192.738 792.859,193.45 792.888,193.459C792.94,193.471 792.99,193.477 793.042,193.477L793.042,192.107L787.527,187.781L786.462,178.485L786.497,178.481C786.071,178.529 785.654,178.567 785.245,178.594C785.249,178.594 785.254,178.594 785.258,178.594" style="fill:rgb(253,184,18);fill-rule:nonzero;"/>
        </g>
        <g transform="matrix(4.16667,0,0,4.16667,0,0)">
            <path d="M781.499,178.524L784.066,186.899L775.461,186.899L774.526,188.01C774.607,188.061 774.701,188.094 774.801,188.104C778.603,188.481 778.478,191.015 778.478,191.015C778.463,191.096 778.473,191.175 778.493,191.253L779.99,191.253L785.2,188.013C785.207,188.01 785.21,188.007 785.213,188.001C785.24,187.986 785.261,187.968 785.282,187.95C785.306,187.932 785.324,187.907 785.346,187.886C785.346,187.886 785.349,187.886 785.349,187.883C785.385,187.838 785.412,187.79 785.436,187.735C785.438,187.726 785.442,187.714 785.448,187.705C785.466,187.654 785.478,187.6 785.481,187.542L785.481,187.512C785.484,187.458 785.478,187.403 785.463,187.349C785.463,187.346 785.463,187.34 785.46,187.337L785.46,187.331C785.46,187.331 785.46,187.328 785.457,187.325L782.793,178.63C782.807,178.63 782.82,178.63 782.834,178.631C782.37,178.61 781.918,178.574 781.477,178.521C781.484,178.522 781.491,178.524 781.499,178.524" style="fill:rgb(253,184,18);fill-rule:nonzero;"/>
        </g>
        <g transform="matrix(4.16667,0,0,4.16667,0,0)">
            <clipPath id="_clip9">
                <rect x="781.476" y="178.481" width="5.274" height="2.563"/>
            </clipPath>
            <g clip-path="url(#_clip9)">
                <g>
                    <g>
                        <clipPath id="_clip10">
                            <rect x="781.476" y="178.481" width="5.275" height="2.563"/>
                        </clipPath>
                        <g clip-path="url(#_clip10)">
                            <path d="M785.539,181.044C785.932,181.04 786.336,181.028 786.751,181.008L786.462,178.485L786.497,178.481C786.071,178.529 785.653,178.567 785.245,178.594C785.249,178.594 785.254,178.594 785.258,178.594L785.539,181.044Z" style="fill:rgb(147,149,152);fill-rule:nonzero;"/>
                            <path d="M782.231,180.912C782.631,180.949 783.061,180.98 783.52,181.004L782.793,178.631C782.807,178.631 782.821,178.631 782.835,178.632C782.371,178.611 781.919,178.575 781.477,178.522C781.485,178.523 781.492,178.524 781.5,178.525L782.231,180.912Z" style="fill:rgb(147,149,152);fill-rule:nonzero;"/>
                        </g>
                    </g>
                </g>
            </g>
        </g>
        <g transform="matrix(4.16667,0,0,4.16667,0,0)">
            <path d="M779.165,177.551L779.735,179.26C779.735,179.26 783.607,180.568 788.686,179.26L788.184,177.551L783.155,178.071L779.165,177.551Z" style="fill:white;fill-rule:nonzero;"/>
        </g>
        <g transform="matrix(4.16667,0,0,4.16667,0,0)">
            <path d="M779.775,144.661C779.775,144.423 779.586,144.233 779.35,144.233C779.115,144.233 778.921,144.423 778.921,144.661C778.921,144.896 779.115,145.086 779.35,145.086C779.586,145.086 779.775,144.896 779.775,144.661M779.35,143.026C780.253,143.026 780.982,143.759 780.982,144.661C780.982,145.56 780.253,146.293 779.35,146.293C778.448,146.293 777.714,145.56 777.714,144.661C777.714,143.759 778.448,143.026 779.35,143.026" style="fill:rgb(35,31,32);fill-rule:nonzero;"/>
        </g>
        <g transform="matrix(4.16667,0,0,4.16667,0,0)">
            <path d="M788.009,178.27C787.822,178.3 787.635,178.332 787.452,178.359C787.635,178.333 787.823,178.3 788.009,178.27" style="fill:rgb(88,89,91);fill-rule:nonzero;"/>
        </g>
        <g transform="matrix(4.16667,0,0,4.16667,0,0)">
            <path d="M784.547,178.632C784.384,178.638 784.223,178.642 784.064,178.644C784.224,178.641 784.384,178.639 784.547,178.632" style="fill:rgb(88,89,91);fill-rule:nonzero;"/>
        </g>
        <g transform="matrix(4.16667,0,0,4.16667,0,0)">
            <path d="M787.318,147.225C785.767,147.524 784.05,147.85 783.972,147.865C783.972,147.865 783.969,147.865 783.969,147.868C783.652,147.928 783.308,147.94 782.956,147.907L782.669,145.409C784.205,146.012 785.991,146.709 787.318,147.225M808.74,167.389L801.26,164.477C801.321,164.29 801.375,164.097 801.421,163.897L812.067,166.746C811.053,166.942 809.917,167.162 808.74,167.389M802.534,168.577L799.281,167.313C800.144,166.628 800.771,165.774 801.155,164.761L808.181,167.494C806.242,167.868 804.235,168.251 802.534,168.577M798.527,169.34L798.445,169.355C796.822,169.666 795.051,169.603 793.332,169.223C795.184,169.117 797.344,168.698 798.998,167.524L801.975,168.683C800.361,168.991 799.09,169.232 798.527,169.34M826.707,170.855L824.625,170.043C823.503,170.27 822.127,170.544 820.557,170.855L816.527,169.286L814.303,169.711L818.358,171.292C810.45,172.855 798.885,175.103 788.296,177.001C787.415,177.161 786.573,177.275 785.764,177.348L785.725,177.348C785.719,177.351 785.714,177.351 785.71,177.354C783.336,177.562 781.266,177.411 779.428,176.892C775.967,175.912 773.349,173.401 772.054,169.82C770.232,164.782 771.409,159.858 772.658,154.647L772.896,153.642C773.377,151.624 773.88,149.572 774.369,147.587C774.682,146.308 775,145.026 775.31,143.746C776.128,140.37 777.636,138.273 779.248,138.273C780.741,138.273 780.958,141.049 780.958,141.073L781.269,143.777C781.269,143.78 781.269,143.786 781.272,143.788L782.838,157.474L784.084,157.96C784.092,157.906 784.096,157.849 784.089,157.791L783.758,154.894C784.172,155.278 784.69,155.64 785.345,155.923C787.176,156.714 796.669,160.434 804.343,163.43L801.381,162.64L798.892,163.134C798.967,163.206 799.057,163.267 799.167,163.294L800.253,163.587C799.987,164.787 799.363,165.759 798.397,166.474C795.515,168.607 790.45,167.983 789.683,167.874C789.179,167.602 788.697,167.304 788.245,166.972C786.875,165.961 785.213,164.272 784.609,161.767L783.281,161.248C783.676,163.873 785.136,166.182 787.529,167.944C790.004,169.763 793.172,170.767 796.228,170.767C797.057,170.767 797.875,170.692 798.672,170.541L798.75,170.526C800.605,170.173 810.064,168.372 814.261,167.548L814.868,167.428L816.816,167.032L814.97,166.272C814.708,166.172 788.902,156.147 785.825,154.816C784.053,154.053 783.538,152.562 783.463,152.312L783.097,149.123C783.17,149.126 783.242,149.132 783.314,149.132C783.616,149.132 783.912,149.105 784.196,149.054L784.192,149.047C784.962,148.918 789.348,148.064 789.397,148.052L789.602,148.013L791.575,147.593L789.714,146.866C789.708,146.863 789.705,146.86 789.702,146.857C789.663,146.845 786.639,145.668 783.966,144.621C783.948,143.758 783.257,143.061 782.397,143.028L782.162,140.986C782.072,139.522 781.356,137.066 779.248,137.066C777.018,137.066 775.108,139.456 774.136,143.463C773.826,144.742 773.512,146.021 773.198,147.301C772.707,149.286 772.203,151.34 771.722,153.365L771.484,154.367C770.251,159.52 768.974,164.851 770.918,170.227C772.347,174.186 775.255,176.965 779.099,178.054C779.121,178.06 779.143,178.065 779.165,178.071C779.143,178.065 779.121,178.059 779.1,178.054C779.121,178.059 779.143,178.065 779.165,178.071C779.716,178.223 780.287,178.346 780.877,178.439C780.879,178.439 780.881,178.439 780.882,178.439C781.078,178.47 781.276,178.497 781.476,178.521C781.918,178.574 782.37,178.611 782.834,178.631C783.126,178.642 783.422,178.651 783.721,178.651C783.834,178.651 783.949,178.646 784.063,178.644C784.222,178.642 784.383,178.638 784.547,178.632C784.777,178.622 785.01,178.609 785.245,178.595C785.653,178.567 786.071,178.529 786.497,178.481C786.811,178.445 787.129,178.405 787.452,178.359C787.634,178.332 787.822,178.3 788.008,178.27C788.174,178.243 788.338,178.22 788.506,178.189C799.969,176.135 812.575,173.673 820.449,172.107L824.48,173.679L826.707,173.254L822.648,171.67C824.359,171.329 825.744,171.051 826.707,170.855" style="fill:rgb(88,89,91);fill-rule:nonzero;"/>
        </g>
        <g transform="matrix(4.16667,0,0,4.16667,0,0)">
            <g>
                <g>
                    <clipPath id="_clip11">
                        <rect x="793.46" y="164.17" width="18.736" height="5.655"/>
                    </clipPath>
                    <g clip-path="url(#_clip11)">
                        <path d="M801.549,164.169L812.195,167.017C811.182,167.213 810.045,167.434 808.868,167.66L801.389,164.749C801.449,164.561 801.503,164.368 801.549,164.169" style="fill:rgb(147,149,152);fill-rule:nonzero;"/>
                        <path d="M799.126,167.796L802.104,168.955C800.489,169.262 799.219,169.504 798.655,169.612L798.573,169.628C796.95,169.938 795.18,169.875 793.46,169.495C795.313,169.389 797.473,168.97 799.126,167.796" style="fill:rgb(147,149,152);fill-rule:nonzero;"/>
                        <path d="M801.283,165.032L808.309,167.766C806.37,168.14 804.363,168.523 802.662,168.849L799.409,167.585C800.272,166.9 800.899,166.046 801.283,165.032" style="fill:rgb(147,149,152);fill-rule:nonzero;"/>
                    </g>
                </g>
            </g>
        </g>
        <g transform="matrix(4.16667,0,0,4.16667,0,0)">
            <g>
                <g>
                    <path d="M782.601,145.523C784.136,146.126 785.922,146.823 787.25,147.339C785.7,147.638 783.983,147.963 783.904,147.979C783.904,147.979 783.901,147.979 783.901,147.982C783.584,148.042 783.241,148.054 782.887,148.021L782.601,145.523Z" style="fill:rgb(253,184,18);fill-rule:nonzero;"/>
                    <path d="M782.489,144.538L782.648,145.936C782.781,145.765 782.864,145.553 782.864,145.319C782.864,145.003 782.716,144.724 782.489,144.538" style="fill:rgb(253,184,18);fill-rule:nonzero;"/>
                </g>
            </g>
        </g>
        <g transform="matrix(4.16667,0,0,4.16667,0,0)">
            <path d="M1023.04,161.098C1018.63,161.11 1014.23,161.2 1009.83,161.361C1009.28,161.381 1008.84,161.84 1008.84,162.385L1008.84,197.975C1008.84,198.52 1008.4,198.978 1007.86,199.001C1002.88,199.207 997.912,199.501 992.939,199.873C992.394,199.914 991.953,200.39 991.953,200.934L991.953,203.129C991.953,203.673 992.394,204.081 992.939,204.04C1002.97,203.289 1013,202.854 1023.04,202.827C1023.76,202.825 1024.24,202.072 1023.93,201.417C1020.92,195.074 1017.92,188.766 1014.91,182.494C1014.79,182.23 1014.79,181.92 1014.91,181.649C1017.92,175.233 1020.92,168.85 1023.93,162.505C1024.24,161.851 1023.76,161.096 1023.04,161.098M773.316,229.488L773.316,193.898C773.316,193.353 772.875,192.929 772.331,192.949C767.927,193.111 763.522,193.201 759.118,193.213C758.394,193.215 757.918,193.966 758.226,194.62C761.21,200.966 764.194,207.275 767.18,213.55C767.305,213.813 767.305,214.121 767.18,214.39C764.194,220.807 761.21,227.19 758.226,233.537C757.918,234.191 758.395,234.944 759.118,234.942C769.152,234.915 779.186,234.479 789.221,233.729C789.766,233.688 790.207,233.212 790.207,232.668L790.207,230.473C790.207,229.929 789.766,229.521 789.221,229.562C784.248,229.934 779.275,230.229 774.303,230.435C773.759,230.457 773.316,230.033 773.316,229.488M1004.38,195.684C928.848,199.43 853.312,223.056 777.777,226.802C777.233,226.829 776.791,226.408 776.791,225.864L776.791,186.814C776.791,186.269 777.233,185.807 777.777,185.78C853.312,182.034 928.848,158.408 1004.38,154.662C1004.93,154.635 1005.37,155.056 1005.37,155.601L1005.37,194.65C1005.37,195.195 1004.93,195.657 1004.38,195.684" style="fill:rgb(0,64,113);fill-rule:nonzero;"/>
        </g>
        <g transform="matrix(4.16667,0,0,4.16667,0,0)">
            <path d="M950.215,184.625C947.925,184.958 945.635,185.3 943.346,185.651L943.346,182.232C945.635,181.882 947.925,181.54 950.215,181.207L950.215,184.625Z" style="fill:white;fill-rule:nonzero;"/>
        </g>
        <g transform="matrix(4.16667,0,0,4.16667,0,0)">
            <path d="M828.224,199.207C828.224,199.192 828.225,199.175 828.225,199.158C828.224,199.145 828.224,199.133 828.224,199.12L828.224,199.207Z" style="fill:white;fill-rule:nonzero;"/>
        </g>
        <g transform="matrix(4.16667,0,0,4.16667,0,0)">
            <path d="M839.886,209.669C837.347,210.061 834.809,210.442 832.27,210.813C832.182,210.825 832.111,210.907 832.112,210.994L832.112,214.436C832.111,214.524 832.183,214.585 832.27,214.572C834.809,214.202 837.347,213.82 839.886,213.428C839.974,213.415 840.044,213.333 840.045,213.245L840.045,209.803C840.045,209.716 839.974,209.655 839.886,209.669" style="fill:white;fill-rule:nonzero;"/>
        </g>
        <g transform="matrix(4.16667,0,0,4.16667,0,0)">
            <path d="M800.894,204.035C800.243,204.098 799.592,204.161 798.941,204.222C798.757,204.24 798.609,204.069 798.609,203.848L798.609,196.335C798.609,195.946 798.925,195.6 799.315,195.563C799.841,195.514 800.368,195.463 800.894,195.411C805.28,194.975 805.722,196.241 805.722,199.414C805.721,202.432 804.911,203.637 800.894,204.035M802,191.432C798.489,191.783 794.976,192.1 791.464,192.379C791.32,192.39 791.203,192.517 791.203,192.662L791.203,196.007C791.203,196.152 791.32,196.26 791.464,196.248C792.164,196.193 792.862,196.136 793.56,196.077C794.187,196.025 794.482,196.553 794.482,197.032L794.482,218.77C794.482,218.915 794.599,219.023 794.745,219.01C795.945,218.907 797.146,218.799 798.346,218.687C798.492,218.674 798.609,218.545 798.609,218.401L798.609,208.496C798.609,208.351 798.726,208.223 798.872,208.209C799.767,208.125 800.663,208.038 801.558,207.95C807.38,207.366 809.887,204.993 809.887,198.955C809.887,192.832 807.787,190.847 802,191.432" style="fill:white;fill-rule:nonzero;"/>
        </g>
        <g transform="matrix(4.16667,0,0,4.16667,0,0)">
            <path d="M817.822,202.131C817.196,202.21 816.57,202.288 815.943,202.365C815.649,202.402 815.538,202.194 815.538,201.973L815.538,194.234C815.538,193.902 815.685,193.773 815.943,193.742C816.57,193.664 817.196,193.586 817.822,193.507C822.208,192.948 822.65,194.205 822.65,197.377C822.65,200.396 821.84,201.62 817.822,202.131M823.676,204.632C823.618,204.527 823.664,204.391 823.769,204.308C824.036,204.147 824.258,203.976 824.416,203.797C824.411,203.798 824.406,203.798 824.402,203.799C826.045,202.348 826.815,200.141 826.815,196.81C826.816,190.688 824.715,188.751 818.928,189.497C816.505,189.807 814.08,190.104 811.656,190.386C811.519,190.402 811.409,190.526 811.409,190.662C811.409,199.465 811.41,208.268 811.411,217.071C811.41,217.207 811.521,217.305 811.658,217.289C812.869,217.148 814.079,217.003 815.291,216.855C815.426,216.839 815.537,216.714 815.538,216.578L815.538,207.085C815.538,206.703 815.846,206.36 816.228,206.309C816.744,206.242 817.278,206.163 817.798,206.08C817.798,206.08 818.327,205.999 819.091,205.842C819.379,205.783 819.654,205.899 819.789,206.137C821.541,209.251 823.292,212.358 825.044,215.459C825.087,215.535 825.171,215.574 825.262,215.562C826.526,215.389 827.791,215.213 829.054,215.033C829.24,215.007 829.359,214.794 829.274,214.641C827.408,211.312 825.543,207.976 823.676,204.632" style="fill:white;fill-rule:nonzero;"/>
        </g>
        <g transform="matrix(4.16667,0,0,4.16667,0,0)">
            <path d="M912.574,173.847C909.889,174.311 907.206,174.781 904.521,175.253L904.521,175.243C899.867,176.078 895.213,176.922 890.558,177.765C890.351,177.803 890.184,178.001 890.183,178.208L890.183,204.398C890.183,204.605 890.351,204.743 890.558,204.704C894.645,203.964 898.732,203.223 902.819,202.489C903.026,202.451 903.194,202.254 903.194,202.047L903.194,198.595C903.194,198.388 903.026,198.25 902.819,198.287C900.291,198.742 897.761,199.199 895.233,199.657C894.606,199.77 894.386,199.294 894.386,198.889L894.386,191.043C894.385,190.49 894.754,189.981 895.269,189.888C897.295,189.521 899.319,189.156 901.344,188.791C901.551,188.754 901.719,188.555 901.719,188.348L901.719,184.897C901.719,184.69 901.551,184.552 901.344,184.59C899.307,184.956 897.27,185.325 895.233,185.693C894.754,185.78 894.386,185.368 894.386,184.926L894.386,181.936C894.386,181.494 894.829,180.898 895.307,180.811C900.694,179.836 906.081,178.865 911.469,177.912C915.853,177.138 916.295,179.975 916.296,186.719C916.295,192.69 915.485,196.292 911.469,197.002C910.879,197.106 910.289,197.21 909.699,197.315C909.404,197.368 909.22,197.254 909.22,196.885L909.22,180.729C909.22,180.522 909.052,180.384 908.845,180.421C907.707,180.623 906.568,180.826 905.43,181.031C905.223,181.068 905.055,181.265 905.055,181.472L905.055,201.712C905.055,201.92 905.223,202.057 905.43,202.02C907.811,201.594 910.192,201.17 912.574,200.75C917.438,199.891 920.46,196.279 920.46,185.996C920.46,174.314 917.18,173.071 912.574,173.847" style="fill:white;fill-rule:nonzero;"/>
        </g>
        <g transform="matrix(4.16667,0,0,4.16667,0,0)">
            <path d="M839.406,200.379C839.256,201.351 839.037,202.568 838.239,203.329C837.63,203.912 836.794,204.059 836.048,204.171C834.813,204.357 833.774,204.246 833.229,203.117C832.694,202.006 832.605,200.612 832.518,199.343C832.375,197.244 832.401,196.106 832.836,193.954C833.007,193.107 833.274,192.098 834.014,191.493C834.604,191.012 835.365,190.897 836.048,190.794C837.117,190.633 838.303,190.43 838.897,191.391C839.482,192.338 839.532,193.698 839.609,194.841C839.755,196.977 839.744,198.186 839.406,200.379M841.808,187.156C840.337,185.989 838.026,186.296 836.122,186.582C835.758,186.637 835.393,186.701 835.03,186.78C832.898,187.241 830.893,188.253 829.785,190.345C829.177,191.49 828.869,192.746 828.662,193.969C828.372,195.686 828.227,197.456 828.224,199.158C828.258,200.303 828.291,200.481 828.381,201.614C828.55,203.744 828.766,206.488 830.45,207.83C831.908,208.992 834.172,208.692 836.048,208.409C837.206,208.235 838.391,208.028 839.524,207.589C841.504,206.82 842.638,205.266 843.183,203.268C843.592,201.772 843.733,200.243 843.83,198.748C843.973,196.508 843.968,195.259 843.796,193.071C843.635,191.021 843.418,188.434 841.808,187.156" style="fill:white;fill-rule:nonzero;"/>
        </g>
        <g transform="matrix(4.16667,0,0,4.16667,0,0)">
            <path d="M946.236,191.431C942.748,191.954 939.259,192.498 935.771,193.058C934.961,193.189 934.445,192.794 934.445,192.056L934.445,170.759C934.444,170.411 934.163,170.175 933.815,170.231C932.736,170.407 931.657,170.583 930.578,170.762C930.23,170.819 929.948,171.148 929.948,171.495L929.948,197.139C929.948,197.487 930.23,197.722 930.578,197.664C935.798,196.802 941.016,195.973 946.236,195.19C946.585,195.138 946.866,194.814 946.866,194.466L946.866,191.966C946.866,191.619 946.584,191.379 946.236,191.431" style="fill:white;fill-rule:nonzero;"/>
        </g>
        <g transform="matrix(4.16667,0,0,4.16667,0,0)">
            <path d="M984.066,163.607C979.033,164.061 974,164.586 968.966,165.173L968.966,165.21C968.949,165.212 968.931,165.214 968.913,165.216L968.913,181.211C968.913,181.321 968.802,181.408 968.728,181.417C968.655,181.426 968.545,181.365 968.507,181.259C966.278,176.297 964.049,171.347 961.821,166.408C961.741,166.232 961.557,166.134 961.353,166.161C960.234,166.307 959.115,166.456 957.996,166.607C957.715,166.645 957.488,166.903 957.488,167.184L957.488,189.312C957.488,189.592 957.26,189.851 956.98,189.889C956.478,189.957 955.975,190.026 955.473,190.096C955.235,190.129 955.028,189.992 954.977,189.767C953.337,182.546 951.696,175.331 950.055,168.121C950.004,167.896 949.798,167.76 949.56,167.795C946.093,168.301 942.628,168.83 939.162,169.376C938.881,169.419 938.654,169.683 938.654,169.963L938.654,172.78C938.654,173.061 938.88,173.252 939.162,173.208C939.901,173.091 940.641,172.976 941.38,172.861C942.191,172.735 942.45,172.954 942.45,173.322C942.45,173.433 942.45,173.58 942.413,173.696C941.206,179.116 939.998,184.538 938.791,189.962C938.716,190.293 938.958,190.558 939.285,190.507C940.342,190.34 941.401,190.176 942.46,190.013C942.706,189.975 942.916,189.766 942.959,189.517C944.091,184.251 945.223,178.986 946.356,173.723C946.392,173.607 946.466,173.522 946.541,173.511C946.614,173.501 946.687,173.563 946.724,173.668C948.292,180.464 949.858,187.264 951.425,194.068C951.478,194.292 951.683,194.427 951.92,194.393C953.248,194.203 954.575,194.016 955.901,193.833C957.663,193.578 959.423,193.33 961.184,193.088C961.463,193.05 961.689,192.794 961.689,192.515L961.689,177.173C961.689,177.025 961.763,176.942 961.837,176.932C961.911,176.923 961.984,176.987 962.058,177.125C964.298,182.015 966.54,186.916 968.781,191.829C968.861,192.005 969.045,192.103 969.247,192.079C970.367,191.946 971.487,191.817 972.607,191.69C972.886,191.658 973.114,191.406 973.114,191.125L973.114,169.073C973.114,168.792 973.342,168.538 973.624,168.508C976.975,168.149 980.327,167.817 983.677,167.518L983.677,167.544C987.392,167.522 987.789,170.449 987.789,176.801C987.789,182.774 986.978,186.294 982.961,186.669C982.371,186.725 981.781,186.782 981.192,186.84C980.896,186.869 980.712,186.74 980.712,186.371L980.712,170.366C980.712,170.086 980.485,169.881 980.205,169.909C979.155,170.014 978.105,170.122 977.055,170.232C976.775,170.262 976.548,170.513 976.548,170.794C976.547,177.446 976.547,184.098 976.548,190.75C976.547,191.03 976.775,191.233 977.055,191.204C979.392,190.958 981.729,190.726 984.066,190.509C988.93,190.061 991.953,186.748 991.953,176.463C991.953,164.782 988.673,163.217 984.066,163.607" style="fill:white;fill-rule:nonzero;"/>
        </g>
        <g transform="matrix(4.16667,0,0,4.16667,0,0)">
            <path d="M883.629,191.513C882.695,191.068 881.761,190.622 880.827,190.176C877.438,188.575 877.068,187.792 877.068,186.539C877.068,184.77 877.88,183.594 880.496,183.123C882.739,182.719 883.984,182.734 884.066,185.727C884.071,185.904 884.213,186.027 884.391,185.995C885.599,185.777 886.807,185.558 888.015,185.339C888.196,185.306 888.346,185.125 888.344,184.943C888.287,179.257 886.752,177.941 880.607,179.049C874.563,180.137 872.61,183.39 872.61,187.298C872.61,191.905 875.668,192.946 878.764,194.564C879.587,194.993 880.41,195.423 881.233,195.851C883.886,197.216 884.071,197.992 884.07,199.356C884.07,201.347 883.444,202.566 880.496,203.097C877.41,203.652 876.987,202.805 876.96,200.045C876.959,199.866 876.814,199.741 876.635,199.773C875.403,199.993 874.172,200.214 872.941,200.432C872.759,200.465 872.609,200.646 872.611,200.827C872.671,206.916 874.379,208.288 880.496,207.188C886.281,206.145 888.604,202.995 888.604,198.61C888.604,198.131 888.566,197.622 888.53,197.112C888.234,194.328 886.025,192.665 883.629,191.513" style="fill:white;fill-rule:nonzero;"/>
        </g>
        <g transform="matrix(4.16667,0,0,4.16667,0,0)">
            <path d="M868.676,181.425C867.35,181.658 866.243,182.92 866.243,184.284C866.243,185.951 867.898,186.889 869.585,185.961C870.338,185.547 870.922,184.773 871.089,183.957C871.429,182.293 870.169,181.162 868.676,181.425" style="fill:white;fill-rule:nonzero;"/>
        </g>
        <g transform="matrix(4.16667,0,0,4.16667,0,0)">
            <path d="M863.259,182.638C862.11,182.837 860.96,183.035 859.812,183.232C859.617,183.265 859.448,183.425 859.4,183.62C858.088,188.886 856.777,194.149 855.466,199.41C855.356,199.871 855.134,200.13 854.949,200.16C854.728,200.198 854.507,200.013 854.397,199.59C852.977,194.784 851.556,189.975 850.136,185.165C850.083,184.99 849.916,184.891 849.726,184.922C848.574,185.11 847.423,185.297 846.272,185.482C846.037,185.519 845.847,185.741 845.847,185.975L845.847,212.101C845.847,212.336 846.037,212.496 846.272,212.458C847.389,212.279 848.506,212.098 849.623,211.915C849.858,211.877 850.048,211.655 850.048,211.42L850.048,202.596C850.048,202.227 850.196,201.981 850.342,201.957C850.453,201.939 850.602,202.062 850.675,202.345C851.59,205.226 852.506,208.106 853.421,210.986C853.475,211.156 853.64,211.251 853.828,211.22C854.513,211.106 855.197,210.991 855.881,210.875C856.072,210.844 856.238,210.689 856.29,210.497C857.158,207.284 858.026,204.071 858.893,200.857C858.93,200.666 859.077,200.531 859.189,200.512C859.335,200.487 859.483,200.609 859.483,200.904L859.483,209.839C859.483,210.074 859.673,210.232 859.907,210.192C861.025,210 862.142,209.808 863.259,209.614C863.493,209.574 863.684,209.35 863.684,209.116L863.684,182.99C863.684,182.755 863.493,182.597 863.259,182.638" style="fill:white;fill-rule:nonzero;"/>
        </g>
        <g transform="matrix(4.16667,0,0,4.16667,0,0)">
            <path d="M870.447,187.525C869.265,187.734 868.085,187.942 866.903,188.149C866.721,188.181 866.575,188.354 866.574,188.535L866.574,208.672C866.575,208.853 866.721,208.974 866.903,208.942C868.085,208.736 869.265,208.528 870.447,208.319C870.629,208.287 870.776,208.113 870.776,207.932L870.776,187.796C870.776,187.614 870.629,187.493 870.447,187.525" style="fill:white;fill-rule:nonzero;"/>
        </g>
    </g>
</svg>
