<?xml version="1.0" standalone="no"?>
<!DOCTYPE svg PUBLIC "-//W3C//DTD SVG 1.1//EN" "http://www.w3.org/Graphics/SVG/1.1/DTD/svg11.dtd">
<svg width="100%" height="100%" viewBox="0 0 1108 813" version="1.1" xmlns="http://www.w3.org/2000/svg" xmlns:xlink="http://www.w3.org/1999/xlink" xml:space="preserve" style="fill-rule:evenodd;clip-rule:evenodd;stroke-linejoin:round;stroke-miterlimit:1.41421;">
    <g transform="matrix(1,0,0,1,-3158.88,-1165.78)">
        <g transform="matrix(4.16667,0,0,4.16667,0,0)">
            <path d="M970.539,359.25C970.539,403.135 934.963,438.711 891.078,438.711C847.192,438.711 811.616,403.135 811.616,359.25C811.616,315.364 847.192,279.788 891.078,279.788C934.963,279.788 970.539,315.364 970.539,359.25" style="fill:white;fill-rule:nonzero;"/>
        </g>
        <g transform="matrix(4.16667,0,0,4.16667,0,0)">
            <path d="M960.432,359.25C960.432,397.553 929.381,428.604 891.078,428.604C852.775,428.604 821.724,397.553 821.724,359.25C821.724,320.947 852.775,289.896 891.078,289.896C929.381,289.896 960.432,320.947 960.432,359.25" style="fill:rgb(165,223,249);fill-rule:nonzero;"/>
        </g>
        <g transform="matrix(4.16667,0,0,4.16667,0,0)">
            <path d="M888.624,317.006L888.749,317.006C889.112,317.621 889.921,317.919 890.502,318.425C890.618,318.147 890.867,318.155 891.125,318.166C891.381,318.178 891.443,318.32 891.494,318.464C891.544,318.607 891.589,318.753 891.606,318.899C891.626,319.058 891.611,319.219 891.611,319.379C892.303,319.38 892.315,319.377 892.524,319.843C892.733,320.31 892.927,320.783 893.103,321.261C893.148,321.386 893.098,321.53 893.092,321.666C893.057,321.667 893.021,321.668 892.985,321.669C892.734,321.281 892.484,320.893 892.234,320.506C892.184,320.996 892.187,321.469 892.183,321.943C892.183,322.009 892.172,322.116 892.121,322.134C891.881,322.22 891.918,322.372 891.919,322.521C891.92,322.759 891.909,322.998 891.924,323.236C891.934,323.415 891.908,323.563 891.672,323.659C891.608,323.686 891.562,323.773 891.556,323.835C891.54,324.009 891.551,324.185 891.551,324.352C892.916,324.826 893.105,325.537 892.112,326.472C892.205,326.486 892.29,326.499 892.375,326.512C892.575,327.52 892.772,328.516 892.972,329.516C893.266,330.992 893.561,332.478 893.859,333.974C894.161,335.487 894.466,337.011 894.771,338.546C895.079,340.09 895.397,341.644 895.697,343.211C895.95,344.537 896.344,345.86 896.25,347.229C896.246,347.288 896.268,347.347 896.277,347.41L896.694,347.41C896.688,346.935 896.684,346.471 896.678,346.009C896.833,345.99 896.949,345.976 897.065,345.962C897.245,345.227 897.425,344.509 897.59,343.792C897.61,343.703 897.545,343.604 897.539,343.509C897.532,343.394 897.495,343.243 897.569,343.175C897.629,343.121 897.864,343.129 897.971,343.178C898.14,343.256 898.112,343.388 898.006,343.518C897.954,343.58 897.93,343.678 897.949,343.752C898.113,344.394 898.307,345.032 898.455,345.679C898.508,345.91 898.597,346.037 898.946,345.987C898.955,346.543 898.965,347.079 898.972,347.617C898.973,347.651 898.963,347.711 898.943,347.715C898.698,347.767 898.786,347.925 898.788,348.044C898.822,350.408 898.862,352.798 898.901,355.211C898.902,355.299 898.904,355.388 898.905,355.488C898.989,355.488 899.07,355.491 899.071,355.487C899.119,355.139 899.161,354.791 899.204,354.445C899.351,354.436 899.482,354.428 899.626,354.42C899.837,353.39 900.049,352.377 900.242,351.366C900.258,351.284 900.169,351.175 900.098,351.096C899.946,350.929 899.943,350.776 900.126,350.64C900.315,350.5 900.538,350.499 900.733,350.634C900.921,350.764 900.922,350.917 900.802,351.094C900.727,351.204 900.671,351.35 900.693,351.471C900.784,351.943 900.909,352.412 901.024,352.883C901.148,353.397 901.276,353.911 901.402,354.425C901.573,354.433 901.705,354.439 901.873,354.446C901.889,355.135 901.904,355.811 901.915,356.488C901.916,356.526 901.876,356.594 901.849,356.596C901.563,356.614 901.663,356.79 901.665,356.909C901.705,358.946 901.751,361 901.797,363.072C901.799,363.173 901.801,363.273 901.804,363.381L902.428,363.381C902.417,362.909 902.406,362.452 902.395,361.995C902.597,361.987 902.755,361.981 902.917,361.975C902.944,361.904 902.977,361.844 902.99,361.78C903.2,360.826 903.406,359.874 903.614,358.927C903.661,358.713 903.748,358.516 903.48,358.319C903.308,358.192 903.406,358 903.583,357.885C903.773,357.762 903.983,357.77 904.178,357.896C904.365,358.017 904.439,358.213 904.286,358.335C904.039,358.532 904.136,358.723 904.196,358.935C904.285,359.253 904.366,359.572 904.452,359.892C904.64,360.584 904.828,361.277 905.018,361.974C905.219,361.983 905.387,361.99 905.568,361.997C905.579,362.088 905.594,362.161 905.596,362.235C905.618,362.943 905.629,363.653 905.667,364.365C905.677,364.567 905.61,364.668 905.371,364.662C905.585,371.982 905.804,379.506 906.03,387.267L909.004,387.267C908.987,386.79 908.972,386.339 908.956,385.888L911.686,385.888C911.718,386.663 911.749,387.418 911.779,388.184L913.95,388.184C913.931,387.748 913.912,387.327 913.894,386.911L916.628,386.911C916.664,387.649 916.7,388.366 916.737,389.1L919.715,389.1C919.707,388.955 919.7,388.83 919.693,388.706C919.463,384.587 919.236,380.533 919.013,376.545C918.86,373.821 918.711,371.129 918.559,368.464C918.553,368.364 918.537,368.19 918.484,368.176C918.247,368.114 918.299,367.969 918.291,367.845C918.256,367.305 918.228,366.767 918.2,366.23C918.196,366.147 918.205,366.064 918.209,365.984C918.362,365.971 918.486,365.962 918.602,365.953C918.617,365.923 918.631,365.906 918.634,365.888C918.806,365.003 918.979,364.12 919.14,363.239C919.15,363.176 919.035,363.098 919.024,363.025C919.005,362.889 918.958,362.717 919.033,362.622C919.148,362.475 919.401,362.476 919.539,362.618C919.628,362.71 919.61,362.881 919.61,363.016C919.61,363.117 919.515,363.223 919.54,363.316C919.751,364.069 919.986,364.821 920.205,365.579C920.276,365.826 920.339,366.059 920.782,365.963C920.806,366.361 920.828,366.731 920.852,367.109L921.336,367.109C921.328,366.985 921.322,366.881 921.315,366.776C921.233,365.445 921.177,364.12 921.056,362.804C921.015,362.348 921.065,361.904 920.825,361.421C920.578,360.925 920.709,360.318 920.675,359.764C920.837,359.751 920.947,359.742 921.073,359.732C921.19,358.973 921.305,358.226 921.42,357.482C921.45,357.287 921.523,357.099 921.3,356.914C921.245,356.868 921.306,356.639 921.392,356.599C921.503,356.547 921.728,356.557 921.839,356.619C921.922,356.666 921.973,356.885 921.914,356.944C921.759,357.099 921.811,357.241 921.862,357.405C921.942,357.658 922.001,357.915 922.074,358.17C922.225,358.694 922.38,359.219 922.529,359.732C922.683,359.749 922.792,359.761 922.949,359.778C922.969,360.069 922.987,360.348 923.005,360.626C923.044,360.63 923.082,360.632 923.121,360.635C923.134,360.541 923.163,360.445 923.157,360.351C923.052,358.71 922.954,357.081 922.827,355.463C922.79,355.001 922.816,354.544 922.631,354.073C922.471,353.667 922.546,353.21 922.516,352.75C922.829,352.792 922.854,352.646 922.882,352.469C922.957,351.981 923.067,351.499 923.142,351.013C923.159,350.895 923.08,350.765 923.068,350.64C923.061,350.56 923.06,350.447 923.118,350.405C923.179,350.363 923.354,350.356 923.409,350.395C923.481,350.448 923.504,350.562 923.512,350.65C923.519,350.728 923.441,350.813 923.464,350.886C923.644,351.494 923.839,352.101 924.03,352.713C924.146,352.737 924.25,352.758 924.369,352.784C924.396,353.169 924.422,353.538 924.449,353.921L924.796,353.921C924.767,353.501 924.68,353.088 924.719,352.69C924.875,351.11 925.067,349.545 925.247,347.989C925.459,346.157 925.674,344.339 925.881,342.535C926.11,340.532 926.33,338.546 926.561,336.578C926.57,336.494 926.672,336.422 926.759,336.307C926.754,336.305 926.69,336.283 926.645,336.248C926.057,335.809 926.117,335.121 926.807,334.847C927.095,334.733 927.178,334.605 927.119,334.374C927.099,334.292 927.128,334.201 927.092,334.125C927.038,334.008 926.977,333.878 926.866,333.794C926.558,333.561 926.541,333.272 926.823,333.046C926.915,332.972 926.972,332.847 926.98,332.739C926.995,332.555 926.959,332.367 926.944,332.186C927.473,332.138 927.473,332.138 927.501,332.486C927.508,332.569 927.521,332.653 927.519,332.735C927.514,332.877 927.572,332.973 927.737,333.071C928.06,333.261 928.062,333.573 927.792,333.793C927.72,333.852 927.633,333.931 927.632,334.006C927.628,334.246 927.662,334.488 927.681,334.724C928.173,334.843 928.517,335.058 928.656,335.429C928.801,335.812 928.624,336.114 928.349,336.307C928.438,336.448 928.529,336.54 928.557,336.64C928.924,337.953 929.284,339.274 929.647,340.603C930.073,342.161 930.5,343.731 930.932,345.311C931.364,346.893 931.814,348.484 932.235,350.089C932.556,351.312 933.031,352.529 933.063,353.791C933.064,353.833 933.087,353.877 933.103,353.935C933.213,353.929 933.307,353.924 933.431,353.917C933.395,353.52 933.361,353.143 933.328,352.77C933.452,352.747 933.546,352.731 933.638,352.714C933.731,352.135 933.83,351.572 933.906,351.007C933.922,350.891 933.839,350.763 933.825,350.64C933.815,350.559 933.814,350.436 933.872,350.407C933.951,350.368 934.108,350.371 934.196,350.411C934.257,350.439 934.275,350.561 934.278,350.639C934.282,350.755 934.214,350.875 934.248,350.983C934.402,351.478 934.598,351.968 934.744,352.465C934.803,352.666 934.902,352.773 935.185,352.765C935.194,352.874 935.195,352.964 935.212,353.052C935.312,353.585 935.177,354.108 935.212,354.633C935.333,356.42 935.527,358.221 935.695,360.036C935.71,360.194 935.719,360.354 935.746,360.512C935.754,360.557 935.818,360.599 935.857,360.643C935.886,360.635 935.915,360.629 935.943,360.621C935.917,360.339 935.891,360.056 935.864,359.774C936.027,359.754 936.145,359.739 936.273,359.724C936.364,358.972 936.45,358.233 936.545,357.497C936.572,357.289 936.621,357.096 936.402,356.901C936.349,356.853 936.398,356.638 936.476,356.605C936.595,356.555 936.802,356.557 936.928,356.61C937.012,356.646 937.095,356.871 937.049,356.91C936.828,357.098 936.95,357.299 937.013,357.501C937.243,358.244 937.48,358.989 937.716,359.736C937.858,359.746 937.97,359.755 938.116,359.765C938.17,360.316 938.225,360.856 938.273,361.398C938.277,361.44 938.256,361.484 938.237,361.525C938.196,361.619 938.104,361.712 938.113,361.805C938.267,363.476 938.433,365.159 938.598,366.854C938.606,366.938 938.625,367.022 938.639,367.107L939.122,367.107C939.084,366.716 939.047,366.348 939.009,365.96C939.384,366.032 939.471,365.897 939.501,365.643C939.594,364.866 939.726,364.097 939.826,363.326C939.839,363.233 939.779,363.109 939.705,363.025C939.572,362.873 939.548,362.738 939.692,362.617C939.844,362.49 940.066,362.474 940.207,362.62C940.299,362.714 940.281,362.886 940.288,363.022C940.293,363.131 940.218,363.244 940.251,363.345C940.494,364.089 940.77,364.83 941.007,365.579C941.09,365.843 941.181,366.037 941.592,365.975C941.662,366.661 941.731,367.322 941.799,367.985C941.803,368.023 941.804,368.087 941.782,368.094C941.473,368.196 941.612,368.424 941.631,368.605C944.582,397.286 947.906,429.539 951.673,466.076C951.691,466.256 951.713,466.437 951.733,466.619L830.691,466.619C830.709,466.465 830.728,466.312 830.744,466.159C834.516,429.564 837.844,397.265 840.803,368.548C840.811,368.471 840.822,368.394 840.825,368.317C840.827,368.269 840.831,368.186 840.81,368.181C840.506,368.115 840.645,367.908 840.652,367.754C840.665,367.494 840.702,367.234 840.729,366.974C840.764,366.642 840.798,366.311 840.835,365.959C841.219,366.031 841.318,365.882 841.397,365.635C841.641,364.866 841.924,364.107 842.174,363.344C842.207,363.244 842.132,363.13 842.137,363.021C842.143,362.885 842.125,362.714 842.217,362.619C842.358,362.473 842.611,362.478 842.723,362.62C842.796,362.714 842.746,362.884 842.725,363.02C842.708,363.13 842.606,363.245 842.619,363.346C842.706,364.082 842.815,364.816 842.913,365.554C842.945,365.802 842.932,366.075 843.435,365.962C843.395,366.365 843.358,366.735 843.322,367.107L843.802,367.107C843.937,365.714 844.1,364.351 844.186,362.997C844.221,362.473 844.386,361.959 844.196,361.41C844.029,360.923 844.258,360.323 844.311,359.767C844.463,359.754 844.574,359.745 844.709,359.733C844.943,358.991 845.182,358.256 845.405,357.52C845.469,357.312 845.618,357.095 845.377,356.899C845.336,356.864 845.431,356.637 845.517,356.604C845.645,356.554 845.851,356.558 845.967,356.612C846.042,356.647 846.08,356.867 846.024,356.911C845.793,357.094 845.853,357.278 845.879,357.477C845.978,358.228 846.069,358.983 846.163,359.732C846.308,359.746 846.417,359.756 846.57,359.772C846.543,360.063 846.517,360.343 846.491,360.624C846.534,360.629 846.578,360.633 846.621,360.638C846.648,360.537 846.69,360.436 846.7,360.335C846.862,358.621 847.028,356.918 847.168,355.228C847.199,354.849 847.262,354.476 847.172,354.086C847.077,353.671 847.224,353.207 847.265,352.765C847.306,352.778 847.347,352.791 847.387,352.803C847.477,352.705 847.607,352.614 847.648,352.506C847.839,352.006 848.014,351.503 848.171,351C848.207,350.882 848.141,350.753 848.149,350.629C848.154,350.548 848.185,350.435 848.253,350.397C848.323,350.358 848.486,350.361 848.548,350.403C848.608,350.444 848.612,350.556 848.603,350.637C848.591,350.76 848.508,350.888 848.522,351.005C848.583,351.492 848.655,351.978 848.753,352.461C848.78,352.592 848.911,352.704 848.994,352.825C849.035,352.812 849.075,352.8 849.116,352.788C849.082,353.165 849.049,353.543 849.014,353.939C849.144,353.93 849.238,353.923 849.288,353.92C849.422,353.234 849.516,352.574 849.686,351.924C850.111,350.297 850.568,348.685 851.007,347.083C851.473,345.378 851.932,343.686 852.391,342.006C852.884,340.203 853.373,338.413 853.867,336.639C853.897,336.532 854.009,336.434 854.092,336.319C853.342,335.776 853.809,335.025 854.447,334.825C854.715,334.742 854.806,334.634 854.787,334.437C854.78,334.362 854.791,334.286 854.804,334.211C854.835,334.03 854.817,333.886 854.609,333.759C854.363,333.609 854.349,333.281 854.609,333.142C854.957,332.955 854.917,332.722 854.941,332.482C854.951,332.385 854.957,332.288 854.965,332.184L855.495,332.184C855.479,332.386 855.443,332.569 855.459,332.748C855.468,332.855 855.526,332.976 855.617,333.052C855.888,333.279 855.866,333.574 855.545,333.801C855.464,333.859 855.372,333.942 855.359,334.017C855.318,334.249 855.314,334.483 855.296,334.711C856.296,334.987 856.49,335.802 855.696,336.325C855.762,336.437 855.853,336.526 855.865,336.625C855.985,337.593 856.093,338.568 856.205,339.546C856.382,341.097 856.561,342.659 856.742,344.231C856.923,345.814 857.132,347.405 857.283,349.014C857.433,350.605 857.824,352.184 857.646,353.828C857.643,353.861 857.665,353.895 857.679,353.941C857.783,353.931 857.878,353.922 858.002,353.91C858.03,353.513 858.057,353.136 858.083,352.759C858.121,352.771 858.16,352.784 858.198,352.797C858.288,352.703 858.424,352.618 858.46,352.515C858.631,352.032 858.775,351.545 858.928,351.061C858.977,350.907 859.056,350.756 858.904,350.607C858.874,350.577 858.951,350.424 859.022,350.39C859.097,350.355 859.255,350.366 859.317,350.41C859.375,350.45 859.373,350.562 859.362,350.64C859.349,350.747 859.261,350.859 859.275,350.958C859.358,351.497 859.461,352.034 859.565,352.572C859.577,352.633 859.643,352.733 859.684,352.732C859.98,352.722 859.935,352.885 859.913,353.026C859.826,353.598 859.707,354.17 859.645,354.744C859.573,355.412 859.55,356.082 859.505,356.754C859.426,357.954 859.344,359.161 859.268,360.374C859.262,360.462 859.298,360.549 859.313,360.637C859.357,360.631 859.4,360.626 859.444,360.62C859.463,360.337 859.481,360.054 859.501,359.765C859.656,359.753 859.768,359.744 859.894,359.735C859.923,359.659 859.957,359.59 859.977,359.518C860.164,358.851 860.349,358.185 860.532,357.521C860.592,357.308 860.709,357.1 860.492,356.896C860.447,356.855 860.553,356.624 860.645,356.589C860.768,356.543 860.989,356.564 861.086,356.631C861.159,356.683 861.121,356.854 861.103,356.97C861.082,357.095 861.001,357.217 860.994,357.34C860.986,357.486 861.029,357.631 861.053,357.777C861.156,358.429 861.26,359.083 861.363,359.731C861.507,359.746 861.615,359.757 861.749,359.771C861.715,360.324 861.683,360.865 861.647,361.408C861.645,361.443 861.627,361.506 861.607,361.509C861.344,361.552 861.425,361.722 861.416,361.843C861.31,363.486 861.21,365.141 861.106,366.806C861.101,366.908 861.094,367.01 861.088,367.115L861.572,367.115C861.596,366.731 861.618,366.361 861.644,365.944C862.125,366.097 862.146,365.814 862.218,365.579C862.445,364.833 862.676,364.09 862.887,363.346C862.916,363.244 862.877,363.111 862.814,363.019C862.712,362.863 862.715,362.73 862.88,362.612C863.056,362.488 863.281,362.477 863.395,362.625C863.469,362.72 863.416,362.892 863.398,363.028C863.385,363.128 863.297,363.232 863.311,363.325C863.374,363.763 863.457,364.199 863.54,364.636C863.624,365.078 863.715,365.521 863.801,365.955C863.974,365.967 864.098,365.975 864.259,365.985C864.222,366.662 864.186,367.333 864.144,368.005C864.142,368.047 864.101,368.12 864.07,368.124C863.791,368.159 863.873,368.336 863.865,368.463C863.494,375.049 863.116,381.815 862.728,388.767C862.722,388.878 862.727,388.988 862.726,389.104L865.702,389.104C865.739,388.361 865.775,387.636 865.812,386.911L868.547,386.911C868.527,387.344 868.509,387.757 868.49,388.175L870.671,388.175C870.702,387.394 870.732,386.638 870.763,385.888L873.494,385.888C873.478,386.361 873.462,386.812 873.445,387.268L876.407,387.268C876.634,379.494 876.853,371.977 877.066,364.66C876.746,364.691 876.758,364.521 876.765,364.337C876.793,363.56 876.812,362.786 876.836,362.004C877.049,361.99 877.227,361.979 877.412,361.968C877.706,360.888 877.991,359.827 878.283,358.773C878.325,358.621 878.356,358.509 878.181,358.383C877.996,358.251 878.037,358.063 878.216,357.916C878.405,357.761 878.706,357.762 878.89,357.916C879.065,358.062 879.098,358.24 878.903,358.381C878.733,358.504 878.737,358.622 878.773,358.776C878.895,359.293 879.003,359.813 879.118,360.334C879.24,360.88 879.364,361.427 879.486,361.973C879.69,361.983 879.855,361.991 880.05,362.001C880.039,362.473 880.028,362.922 880.018,363.382L880.602,363.382C880.61,363.304 880.624,363.24 880.625,363.176C880.673,361.048 880.721,358.937 880.757,356.845C880.759,356.743 880.65,356.641 880.593,356.539C880.57,356.547 880.548,356.554 880.525,356.562C880.541,355.858 880.557,355.156 880.572,354.449C880.735,354.438 880.878,354.428 881.026,354.417C881.275,353.392 881.524,352.387 881.756,351.384C881.775,351.299 881.707,351.186 881.641,351.108C881.499,350.942 881.499,350.791 881.672,350.646C881.841,350.504 882.137,350.505 882.306,350.645C882.481,350.789 882.476,350.941 882.323,351.104C882.262,351.169 882.171,351.257 882.184,351.322C882.382,352.349 882.596,353.379 882.808,354.416C882.971,354.43 883.112,354.442 883.293,354.457C883.289,354.658 883.265,354.85 883.29,355.037C883.311,355.191 883.141,355.414 883.518,355.523C883.52,355.382 883.521,355.284 883.522,355.186C883.558,353.054 883.604,350.941 883.614,348.847C883.616,348.444 883.654,348.05 883.505,347.628C883.327,347.126 883.478,346.548 883.488,346.002C883.64,345.99 883.749,345.983 883.858,345.975C883.88,345.936 883.906,345.905 883.916,345.872C884.11,345.16 884.308,344.45 884.487,343.74C884.507,343.663 884.405,343.572 884.401,343.487C884.397,343.38 884.393,343.236 884.472,343.173C884.539,343.12 884.776,343.114 884.843,343.166C884.923,343.228 884.921,343.371 884.919,343.48C884.918,343.556 884.814,343.64 884.83,343.709C884.997,344.461 885.18,345.213 885.358,345.97C885.5,345.982 885.617,345.993 885.774,346.006C885.77,346.476 885.764,346.939 885.759,347.409C885.853,347.415 885.907,347.423 885.961,347.421C886.023,347.42 886.087,347.411 886.174,347.403C886.175,347.3 886.183,347.213 886.176,347.126C886.099,346.042 886.368,344.988 886.577,343.936C886.89,342.365 887.203,340.806 887.513,339.256C887.821,337.71 888.127,336.173 888.431,334.646C888.729,333.146 889.025,331.655 889.32,330.175C889.564,328.946 889.808,327.725 890.05,326.508C890.144,326.496 890.222,326.486 890.353,326.468C889.844,326.141 889.602,325.76 889.719,325.28C889.839,324.786 890.283,324.515 890.856,324.36L890.856,323.807C890.709,323.8 890.576,323.794 890.415,323.787C890.353,323.249 890.291,322.721 890.23,322.197C890.122,322.166 890.027,322.139 889.923,322.109C889.925,321.498 889.892,320.898 889.94,320.302C889.976,319.868 889.861,319.521 889.361,319.278C889.181,319.19 889.145,319.065 889.176,318.911C889.236,318.61 889.294,318.31 889.326,318.008C889.335,317.925 889.286,317.803 889.205,317.759C888.953,317.623 888.673,317.516 888.39,317.392C888.457,317.281 888.54,317.144 888.624,317.006" style="fill:white;fill-rule:nonzero;"/>
        </g>
        <g transform="matrix(4.16667,0,0,4.16667,0,0)">
            <clipPath id="_clip1">
                <path d="M821.723,359.249C821.723,397.552 852.774,428.603 891.078,428.603C929.38,428.603 960.431,397.552 960.431,359.249C960.431,320.946 929.38,289.895 891.078,289.895C852.774,289.895 821.723,320.946 821.723,359.249Z"/>
            </clipPath>
            <g clip-path="url(#_clip1)">
                <clipPath id="_clip2">
                    <rect x="821.723" y="289.895" width="138.708" height="138.708"/>
                </clipPath>
                <g clip-path="url(#_clip2)">
                    <g opacity="0.25">
                        <clipPath id="_clip3">
                            <rect x="812.196" y="283.358" width="156.414" height="149.585"/>
                        </clipPath>
                        <g clip-path="url(#_clip3)">
                            <path d="M868.694,283.357L913.109,283.357L894.385,421.767L936.435,297.09L968.609,320.191L895.467,425.482L968.609,359.249L965.303,416.186L891.078,432.942L813.777,414.73L812.195,359.249L888.014,425.169L812.195,319.387L840.045,297.09L890.183,421.218L868.694,283.357Z" style="fill:white;fill-rule:nonzero;"/>
                        </g>
                    </g>
                </g>
            </g>
        </g>
        <g transform="matrix(4.16667,0,0,4.16667,0,0)">
            <path d="M982.755,448.657C982.755,448.657 981.172,444.916 980.046,443.79L980.046,448.035L981.179,448.371L982.755,448.657Z" style="fill:rgb(88,89,91);fill-rule:nonzero;"/>
        </g>
        <g transform="matrix(4.16667,0,0,4.16667,0,0)">
            <path d="M981.246,448.091L982.274,448.278C981.894,447.429 981.076,445.679 980.334,444.606L980.334,447.82L981.246,448.091ZM982.755,448.945C982.738,448.945 982.721,448.944 982.704,448.941L981.128,448.654C981.117,448.653 981.106,448.651 981.097,448.648L979.965,448.311C979.842,448.275 979.759,448.162 979.759,448.035L979.759,443.79C979.759,443.674 979.829,443.57 979.936,443.525C980.044,443.48 980.168,443.505 980.25,443.587C981.401,444.738 982.955,448.39 983.02,448.545C983.061,448.643 983.046,448.754 982.979,448.837C982.925,448.906 982.842,448.945 982.755,448.945" style="fill:rgb(88,89,91);fill-rule:nonzero;"/>
        </g>
        <g transform="matrix(4.16667,0,0,4.16667,0,0)">
            <path d="M988.13,448.377C988.13,448.377 990.578,448.729 990.578,451.21C990.578,453.69 985.944,454.554 982.85,453.547C979.755,452.539 976.372,450.884 975.868,449.444C975.364,448.005 977.643,447.206 979.742,448.037C981.842,448.868 985.781,447.598 988.13,448.377" style="fill:rgb(119,135,103);fill-rule:nonzero;"/>
        </g>
        <g transform="matrix(4.16667,0,0,4.16667,0,0)">
            <path d="M978.017,447.989C977.281,447.989 976.662,448.192 976.338,448.503C976.092,448.738 976.026,449.023 976.14,449.348C976.538,450.485 979.333,452.098 982.939,453.272C985.106,453.978 988.021,453.716 989.437,452.688C990.003,452.276 990.291,451.779 990.291,451.21C990.291,449.014 988.178,448.675 988.088,448.661C988.072,448.659 988.055,448.655 988.039,448.65C986.93,448.282 985.392,448.398 983.904,448.51C982.286,448.633 980.757,448.748 979.637,448.304C979.079,448.084 978.521,447.989 978.017,447.989M985.613,454.248C984.639,454.248 983.649,454.109 982.76,453.82C979.811,452.86 976.164,451.162 975.596,449.539C975.407,448.997 975.529,448.481 975.939,448.088C976.723,447.334 978.404,447.197 979.849,447.769C980.846,448.164 982.31,448.053 983.861,447.936C985.396,447.82 986.984,447.7 988.201,448.096C988.493,448.15 990.867,448.664 990.867,451.21C990.867,451.963 990.49,452.635 989.775,453.154C988.794,453.866 987.226,454.248 985.613,454.248" style="fill:rgb(88,89,91);fill-rule:nonzero;"/>
        </g>
        <g transform="matrix(4.16667,0,0,4.16667,0,0)">
            <clipPath id="_clip4">
                <rect x="983.518" y="447.572" width="6.616" height="4.722"/>
            </clipPath>
            <g clip-path="url(#_clip4)">
                <g>
                    <clipPath id="_clip5">
                        <rect x="983.518" y="447.572" width="6.617" height="4.722"/>
                    </clipPath>
                    <g clip-path="url(#_clip5)">
                        <path d="M990.082,450.803C989.758,452.015 988.038,452.609 986.24,452.128C984.442,451.648 983.248,450.276 983.571,449.064C983.895,447.851 985.615,447.258 987.413,447.739C989.211,448.219 990.405,449.591 990.082,450.803" style="fill:rgb(209,211,212);fill-rule:nonzero;"/>
                    </g>
                </g>
            </g>
        </g>
        <g transform="matrix(4.16667,0,0,4.16667,0,0)">
            <path d="M986.797,448.083C986.636,448.687 985.863,449.005 985.071,448.793C984.28,448.582 983.77,447.921 983.931,447.317C984.092,446.714 984.864,446.396 985.656,446.607C986.447,446.819 986.958,447.479 986.797,448.083" style="fill:rgb(86,99,75);fill-rule:nonzero;"/>
        </g>
        <g transform="matrix(4.16667,0,0,4.16667,0,0)">
            <path d="M985.164,446.83C984.987,446.83 984.817,446.861 984.667,446.923C984.426,447.022 984.264,447.188 984.209,447.392C984.154,447.595 984.212,447.82 984.372,448.026C984.549,448.255 984.824,448.429 985.146,448.515C985.469,448.601 985.793,448.588 986.061,448.477C986.302,448.379 986.465,448.212 986.518,448.009C986.637,447.567 986.207,447.053 985.581,446.886C985.441,446.849 985.3,446.83 985.164,446.83M985.563,449.146C985.377,449.146 985.185,449.122 984.997,449.071C984.554,448.953 984.17,448.707 983.916,448.379C983.644,448.027 983.551,447.624 983.652,447.243C983.754,446.862 984.037,446.559 984.447,446.391C984.831,446.233 985.287,446.211 985.73,446.329C986.674,446.582 987.277,447.402 987.075,448.158C986.974,448.538 986.691,448.841 986.28,449.01C986.06,449.101 985.815,449.146 985.563,449.146" style="fill:rgb(88,89,91);fill-rule:nonzero;"/>
        </g>
        <g transform="matrix(4.16667,0,0,4.16667,0,0)">
            <path d="M987.302,447.18C987.277,447.18 987.251,447.177 987.226,447.17C987.169,447.155 985.824,446.783 984.231,445.915C982.749,445.11 980.775,443.707 979.786,441.604C979.718,441.46 979.781,441.288 979.924,441.221C980.068,441.153 980.24,441.215 980.307,441.359C981.619,444.151 984.835,445.681 986.438,446.294C984.125,443.26 983.95,440.415 983.944,440.285C983.935,440.127 984.057,439.992 984.216,439.983C984.376,439.975 984.51,440.097 984.519,440.255C984.52,440.287 984.728,443.548 987.518,446.701C987.602,446.797 987.614,446.937 987.546,447.044C987.493,447.13 987.4,447.18 987.302,447.18" style="fill:rgb(88,89,91);fill-rule:nonzero;"/>
        </g>
        <g transform="matrix(4.16667,0,0,4.16667,0,0)">
            <path d="M989.783,453.013L989.783,453.014L989.783,453.013ZM991.665,455.025C991.62,455.025 991.574,455.014 991.532,454.992C989.394,453.874 989.194,453.214 989.208,452.982C989.217,452.823 989.349,452.703 989.512,452.71C989.657,452.719 989.772,452.834 989.782,452.976C989.801,453.03 990.014,453.549 991.799,454.482C991.939,454.555 991.994,454.729 991.92,454.87C991.869,454.968 991.768,455.025 991.665,455.025" style="fill:rgb(88,89,91);fill-rule:nonzero;"/>
        </g>
        <g transform="matrix(4.16667,0,0,4.16667,0,0)">
            <path d="M988.542,456.68C988.469,456.68 988.395,456.652 988.339,456.595C986.736,454.993 986.548,453.241 986.54,453.166C986.524,453.008 986.641,452.867 986.798,452.852C986.956,452.836 987.098,452.951 987.113,453.11C987.116,453.136 987.301,454.743 988.746,456.189C988.858,456.301 988.858,456.483 988.746,456.595C988.689,456.652 988.616,456.68 988.542,456.68" style="fill:rgb(88,89,91);fill-rule:nonzero;"/>
        </g>
        <g transform="matrix(4.16667,0,0,4.16667,0,0)">
            <path d="M983.962,455.815C983.803,455.815 983.674,455.686 983.674,455.527C983.674,454.371 984.144,453.091 984.164,453.038C984.22,452.888 984.385,452.812 984.534,452.868C984.684,452.923 984.759,453.088 984.704,453.238C984.699,453.251 984.249,454.475 984.249,455.527C984.249,455.686 984.12,455.815 983.962,455.815" style="fill:rgb(88,89,91);fill-rule:nonzero;"/>
        </g>
        <g transform="matrix(4.16667,0,0,4.16667,0,0)">
            <path d="M974.508,440.732C977.64,443.97 980.767,451.75 980.767,451.75C980.767,451.75 979.523,453.195 978.188,451.815C978.188,451.815 976.021,449.016 975.495,446.448C974.971,443.878 974.508,440.732 974.508,440.732" style="fill:rgb(119,135,103);fill-rule:nonzero;"/>
        </g>
        <g transform="matrix(4.16667,0,0,4.16667,0,0)">
            <path d="M978.406,451.627C978.739,451.967 979.087,452.133 979.446,452.124C979.88,452.111 980.246,451.842 980.427,451.681C979.978,450.598 977.518,444.813 974.941,441.656C975.119,442.788 975.436,444.721 975.777,446.39C976.266,448.78 978.251,451.424 978.406,451.627M979.413,452.7C978.901,452.7 978.42,452.47 977.98,452.016C977.973,452.008 977.967,452 977.96,451.991C977.87,451.875 975.746,449.11 975.214,446.506C974.692,443.958 974.227,440.806 974.222,440.774C974.205,440.65 974.268,440.529 974.381,440.474C974.493,440.419 974.628,440.442 974.715,440.532C976.034,441.897 977.499,444.183 979.069,447.327C980.234,449.66 981.026,451.623 981.034,451.643C981.074,451.742 981.054,451.856 980.985,451.938C980.959,451.968 980.341,452.674 979.463,452.699C979.446,452.699 979.429,452.7 979.413,452.7" style="fill:rgb(88,89,91);fill-rule:nonzero;"/>
        </g>
        <g transform="matrix(4.16667,0,0,4.16667,0,0)">
            <path d="M970.827,454.533C970.703,454.533 970.588,454.452 970.552,454.326C970.507,454.174 970.594,454.014 970.746,453.97C972.055,453.585 973.754,453.663 974.459,453.719L974.298,440.742C974.296,440.584 974.424,440.453 974.582,440.451L974.586,440.451C974.743,440.451 974.872,440.578 974.874,440.735L975.039,454.031C975.04,454.113 975.005,454.192 974.943,454.248C974.882,454.304 974.8,454.33 974.718,454.32C974.695,454.318 972.452,454.068 970.908,454.521C970.882,454.53 970.854,454.533 970.827,454.533" style="fill:rgb(88,89,91);fill-rule:nonzero;"/>
        </g>
        <g transform="matrix(4.16667,0,0,4.16667,0,0)">
            <path d="M974.647,445.69C974.647,445.69 974.278,445.824 973.902,446.098" style="fill:rgb(132,134,136);fill-rule:nonzero;"/>
        </g>
        <g transform="matrix(4.16667,0,0,4.16667,0,0)">
            <path d="M973.901,446.386C973.812,446.386 973.724,446.345 973.669,446.268C973.575,446.139 973.603,445.959 973.732,445.865C974.136,445.571 974.532,445.425 974.548,445.419C974.698,445.365 974.863,445.442 974.918,445.591C974.972,445.74 974.895,445.906 974.746,445.96C974.737,445.963 974.404,446.088 974.07,446.331C974.019,446.368 973.96,446.386 973.901,446.386" style="fill:rgb(88,89,91);fill-rule:nonzero;"/>
        </g>
        <g transform="matrix(4.16667,0,0,4.16667,0,0)">
            <path d="M974.56,446.689C974.56,446.689 974.191,446.823 973.815,447.097" style="fill:rgb(132,134,136);fill-rule:nonzero;"/>
        </g>
        <g transform="matrix(4.16667,0,0,4.16667,0,0)">
            <path d="M973.815,447.385C973.726,447.385 973.638,447.344 973.582,447.267C973.488,447.138 973.516,446.957 973.645,446.864C974.05,446.57 974.446,446.424 974.462,446.418C974.612,446.364 974.777,446.441 974.831,446.59C974.885,446.739 974.808,446.905 974.659,446.959C974.656,446.96 974.321,447.085 973.984,447.329C973.932,447.367 973.874,447.385 973.815,447.385" style="fill:rgb(88,89,91);fill-rule:nonzero;"/>
        </g>
        <g transform="matrix(4.16667,0,0,4.16667,0,0)">
            <path d="M974.475,447.688C974.475,447.688 974.106,447.822 973.729,448.096" style="fill:rgb(132,134,136);fill-rule:nonzero;"/>
        </g>
        <g transform="matrix(4.16667,0,0,4.16667,0,0)">
            <path d="M973.729,448.384C973.64,448.384 973.552,448.343 973.496,448.265C973.403,448.137 973.431,447.956 973.559,447.863C973.964,447.569 974.36,447.423 974.376,447.417C974.526,447.363 974.691,447.44 974.746,447.589C974.799,447.738 974.722,447.904 974.574,447.958C974.57,447.959 974.235,448.083 973.898,448.328C973.847,448.365 973.788,448.384 973.729,448.384" style="fill:rgb(88,89,91);fill-rule:nonzero;"/>
        </g>
        <g transform="matrix(4.16667,0,0,4.16667,0,0)">
            <path d="M974.388,448.687C974.388,448.687 974.019,448.821 973.642,449.095" style="fill:rgb(132,134,136);fill-rule:nonzero;"/>
        </g>
        <g transform="matrix(4.16667,0,0,4.16667,0,0)">
            <path d="M973.642,449.383C973.553,449.383 973.466,449.342 973.41,449.264C973.316,449.136 973.344,448.955 973.473,448.862C973.878,448.567 974.273,448.422 974.289,448.416C974.44,448.362 974.604,448.439 974.659,448.588C974.713,448.737 974.636,448.903 974.487,448.957C974.484,448.958 974.148,449.082 973.812,449.327C973.76,449.364 973.702,449.383 973.642,449.383" style="fill:rgb(88,89,91);fill-rule:nonzero;"/>
        </g>
        <g transform="matrix(4.16667,0,0,4.16667,0,0)">
            <path d="M989.643,449.848C989.327,451.034 987.808,451.658 986.253,451.243C984.698,450.827 983.694,449.529 984.011,448.342C984.328,447.157 985.846,446.532 987.401,446.948C988.956,447.364 989.96,448.661 989.643,449.848" style="fill:rgb(119,135,103);fill-rule:nonzero;"/>
        </g>
        <g transform="matrix(4.16667,0,0,4.16667,0,0)">
            <path d="M986.434,447.106C986.05,447.106 985.682,447.175 985.351,447.311C984.796,447.54 984.418,447.932 984.289,448.417C984.16,448.902 984.29,449.43 984.658,449.905C985.042,450.404 985.636,450.78 986.328,450.964C987.726,451.338 989.089,450.804 989.365,449.773C989.495,449.289 989.364,448.76 988.997,448.285C988.612,447.787 988.018,447.411 987.327,447.226C987.028,447.146 986.727,447.106 986.434,447.106M987.209,451.658C986.874,451.658 986.527,451.614 986.179,451.521C985.366,451.303 984.664,450.855 984.203,450.257C983.723,449.637 983.556,448.93 983.733,448.268C983.91,447.606 984.407,447.077 985.132,446.778C985.83,446.491 986.663,446.453 987.475,446.669C988.288,446.887 988.99,447.335 989.452,447.933C989.931,448.553 990.098,449.259 989.921,449.922C989.637,450.986 988.515,451.658 987.209,451.658" style="fill:rgb(88,89,91);fill-rule:nonzero;"/>
        </g>
        <g transform="matrix(4.16667,0,0,4.16667,0,0)">
            <g>
                <clipPath id="_clip6">
                    <rect x="986.602" y="447.51" width="2.926" height="2.316"/>
                </clipPath>
                <g clip-path="url(#_clip6)">
                    <path d="M989.498,449.051C989.337,449.655 988.564,449.973 987.773,449.761C986.981,449.549 986.471,448.889 986.632,448.285C986.793,447.682 987.565,447.364 988.357,447.575C989.148,447.787 989.659,448.447 989.498,449.051" style="fill:rgb(209,211,212);fill-rule:nonzero;"/>
                </g>
            </g>
        </g>
        <g transform="matrix(4.16667,0,0,4.16667,0,0)">
            <path d="M989.498,448.388C989.337,448.992 988.564,449.309 987.773,449.098C986.981,448.886 986.471,448.226 986.632,447.622C986.793,447.019 987.565,446.701 988.357,446.912C989.148,447.123 989.659,447.784 989.498,448.388" style="fill:rgb(119,135,103);fill-rule:nonzero;"/>
        </g>
        <g transform="matrix(4.16667,0,0,4.16667,0,0)">
            <path d="M989.498,448.388L989.5,448.388L989.498,448.388ZM987.872,447.136C987.403,447.136 987.002,447.353 986.91,447.697C986.792,448.138 987.222,448.653 987.848,448.82C988.474,448.988 989.102,448.755 989.22,448.314C989.338,447.872 988.909,447.358 988.282,447.191C988.144,447.154 988.006,447.136 987.872,447.136M988.258,449.45C988.075,449.45 987.888,449.426 987.698,449.376C986.755,449.123 986.151,448.304 986.353,447.547C986.556,446.792 987.488,446.382 988.432,446.634C989.375,446.886 989.978,447.706 989.776,448.462C989.614,449.067 988.985,449.45 988.258,449.45" style="fill:rgb(88,89,91);fill-rule:nonzero;"/>
        </g>
        <g transform="matrix(4.16667,0,0,4.16667,0,0)">
            <clipPath id="_clip7">
                <path d="M941.63,368.606L951.734,466.619L983.043,466.619L1006.82,386.349L977.638,346.735L941.63,368.606Z"/>
            </clipPath>
            <g clip-path="url(#_clip7)">
                <path d="M945.331,465.442C945.331,465.442 955.787,438.966 964.636,444.423C964.636,444.423 958.758,437.184 953.099,442.843C947.439,448.504 971.114,385.264 982.755,382.583C982.755,382.583 956.47,385.565 946.343,438.904C946.343,438.904 952.351,394.047 976.726,354.667C976.726,354.667 935.842,401.56 932.945,447.036L945.331,465.442Z" style="fill:rgb(174,209,54);fill-rule:nonzero;"/>
                <path d="M950.793,473.431C950.793,473.431 961.25,446.955 970.098,452.412C970.098,452.412 964.22,445.173 958.561,450.833C952.901,456.493 976.576,393.254 988.217,390.573C988.217,390.573 961.932,393.554 951.805,446.893C951.805,446.893 957.813,402.036 982.188,362.656C982.188,362.656 941.305,409.549 938.407,455.025L950.793,473.431Z" style="fill:rgb(168,211,132);fill-rule:nonzero;"/>
            </g>
        </g>
        <g transform="matrix(4.16667,0,0,4.16667,0,0)">
            <clipPath id="_clip8">
                <path d="M775.589,386.349L799.362,466.619L830.672,466.619L840.775,368.606L804.767,346.735L775.589,386.349Z"/>
            </clipPath>
            <g clip-path="url(#_clip8)">
                <path d="M837.074,465.442C837.074,465.442 826.618,438.966 817.769,444.423C817.769,444.423 823.647,437.184 829.306,442.843C834.966,448.504 811.291,385.264 799.65,382.583C799.65,382.583 825.935,385.565 836.062,438.904C836.062,438.904 830.054,394.047 805.679,354.667C805.679,354.667 846.562,401.56 849.46,447.036L837.074,465.442Z" style="fill:rgb(174,209,54);fill-rule:nonzero;"/>
                <path d="M831.612,473.431C831.612,473.431 821.155,446.955 812.307,452.412C812.307,452.412 818.185,445.173 823.844,450.833C829.504,456.493 805.829,393.254 794.188,390.573C794.188,390.573 820.473,393.554 830.6,446.893C830.6,446.893 824.591,402.036 800.217,362.656C800.217,362.656 841.1,409.549 843.998,455.025L831.612,473.431Z" style="fill:rgb(168,211,132);fill-rule:nonzero;"/>
            </g>
        </g>
        <g transform="matrix(4.16667,0,0,4.16667,0,0)">
            <path d="M827.773,411.947L831.815,411.124L824.756,408.372L824.339,408.456C823.318,408.662 822.086,408.908 820.691,409.184L817.94,408.114L821.77,407.337L815.485,404.75C815.259,404.664 789.453,394.638 786.399,393.318C785.382,392.88 784.992,392.092 784.883,391.82L784.706,390.263L786.353,389.961L786.347,389.948C787.682,389.694 789.275,389.386 789.669,389.305L789.904,389.26L796.608,387.836L790.519,385.457L790.468,385.406L790.166,385.316C789.837,385.19 787.585,384.314 785.211,383.385C784.936,382.673 784.404,382.087 783.727,381.743L783.605,380.688C783.43,378.074 782.02,375.45 779.249,375.45C776.306,375.45 773.869,378.255 772.731,382.952C772.429,384.192 772.126,385.431 771.822,386.671L771.794,386.784C771.203,389.169 770.732,391.101 770.315,392.861L770.077,393.861C768.794,399.222 767.465,404.766 769.556,410.551C771.089,414.795 774.163,417.821 778.221,419.126L778.59,420.233L779.273,420.464C779.314,420.477 779.844,420.653 780.74,420.819L781.131,422.097L782.108,425.284L774.789,425.284L772.35,428.177L773.752,429.065C774.029,429.24 774.346,429.348 774.658,429.376C776.763,429.585 777.004,430.513 777.029,430.785C777.012,431.008 777.035,431.235 777.096,431.463L777.385,432.533L779.907,432.533L779.907,434.757L781.354,434.757C781.512,434.757 781.659,434.741 781.772,434.714C782.294,434.606 782.804,434.542 783.291,434.524L783.901,434.526L783.942,434.529C784.198,434.541 784.44,434.566 784.641,434.601C785.627,434.789 786.375,435.263 786.433,435.302L787.835,436.273L789.045,435.063C789.064,435.045 789.082,435.028 789.101,435.012L789.204,434.931C789.584,434.661 790.193,434.517 790.968,434.517C791.741,434.517 792.392,434.661 792.508,434.688L792.563,434.702C792.722,434.738 792.883,434.757 793.043,434.757L794.49,434.757L794.49,431.235L788.897,426.846L788.191,420.686C788.477,420.626 788.764,420.567 789.047,420.494L790.499,420.121L790.223,419.183C801.544,417.137 813.686,414.759 820.318,413.441L824.343,415.01L831.916,413.563L827.773,411.947Z" style="fill:white;fill-rule:nonzero;"/>
        </g>
        <g transform="matrix(4.16667,0,0,4.16667,0,0)">
            <path d="M785.258,418.426L786.32,427.692L785.674,428.24L781.354,431.915L781.354,433.309C781.396,433.309 781.439,433.306 781.478,433.297C782.132,433.161 782.727,433.095 783.267,433.076L783.882,433.076C783.924,433.076 783.967,433.08 784.009,433.083C784.332,433.098 784.637,433.131 784.911,433.179C786.26,433.436 787.24,434.1 787.252,434.109L787.665,434.396L788.022,434.039C788.079,433.982 788.136,433.931 788.196,433.882C788.227,433.856 788.257,433.834 788.287,433.81C788.312,433.792 788.335,433.771 788.362,433.753C790.022,432.57 792.859,433.282 792.888,433.291C792.94,433.303 792.99,433.309 793.042,433.309L793.042,431.94L787.527,427.613L786.462,418.318C786.474,418.316 786.486,418.314 786.497,418.313C786.071,418.362 785.654,418.4 785.245,418.426L785.258,418.426Z" style="fill:rgb(253,184,18);fill-rule:nonzero;"/>
        </g>
        <g transform="matrix(4.16667,0,0,4.16667,0,0)">
            <path d="M781.499,418.356L784.066,426.731L775.461,426.731L774.526,427.841C774.607,427.893 774.701,427.926 774.801,427.935C778.603,428.312 778.478,430.846 778.478,430.846C778.463,430.928 778.473,431.006 778.493,431.085L779.99,431.085L785.2,427.844C785.207,427.841 785.21,427.838 785.213,427.833C785.24,427.817 785.261,427.799 785.282,427.781C785.306,427.763 785.324,427.739 785.346,427.717C785.346,427.717 785.349,427.717 785.349,427.714C785.385,427.669 785.412,427.622 785.436,427.567C785.438,427.558 785.442,427.545 785.448,427.537C785.466,427.486 785.478,427.431 785.481,427.374L785.481,427.343C785.484,427.29 785.478,427.235 785.463,427.181C785.463,427.177 785.463,427.171 785.46,427.169L785.46,427.163C785.46,427.163 785.46,427.16 785.457,427.157L782.793,418.461C782.807,418.461 782.82,418.461 782.834,418.462C782.37,418.442 781.918,418.406 781.477,418.353C781.484,418.354 781.491,418.355 781.499,418.356" style="fill:rgb(253,184,18);fill-rule:nonzero;"/>
        </g>
        <g transform="matrix(4.16667,0,0,4.16667,0,0)">
            <g>
                <g>
                    <clipPath id="_clip9">
                        <rect x="781.476" y="418.312" width="5.275" height="2.564"/>
                    </clipPath>
                    <g clip-path="url(#_clip9)">
                        <path d="M785.539,420.876C785.932,420.872 786.336,420.86 786.751,420.84L786.462,418.317C786.474,418.315 786.485,418.313 786.497,418.313C786.071,418.361 785.653,418.399 785.245,418.426L785.258,418.426L785.539,420.876Z" style="fill:rgb(147,149,152);fill-rule:nonzero;"/>
                        <path d="M782.231,420.743C782.631,420.779 783.061,420.811 783.52,420.835L782.793,418.462C782.807,418.462 782.821,418.462 782.835,418.463C782.371,418.442 781.919,418.406 781.477,418.353C781.485,418.354 781.492,418.355 781.5,418.356L782.231,420.743Z" style="fill:rgb(147,149,152);fill-rule:nonzero;"/>
                    </g>
                </g>
            </g>
        </g>
        <g transform="matrix(4.16667,0,0,4.16667,0,0)">
            <path d="M779.165,417.383L779.735,419.093C779.735,419.093 783.607,420.4 788.686,419.093L788.184,417.383L783.155,417.903L779.165,417.383Z" style="fill:white;fill-rule:nonzero;"/>
        </g>
        <g transform="matrix(4.16667,0,0,4.16667,0,0)">
            <path d="M779.775,384.492C779.775,384.254 779.586,384.064 779.35,384.064C779.115,384.064 778.921,384.254 778.921,384.492C778.921,384.727 779.115,384.917 779.35,384.917C779.586,384.917 779.775,384.727 779.775,384.492M779.35,382.857C780.253,382.857 780.982,383.59 780.982,384.492C780.982,385.391 780.253,386.124 779.35,386.124C778.448,386.124 777.714,385.391 777.714,384.492C777.714,383.59 778.448,382.857 779.35,382.857" style="fill:rgb(35,31,32);fill-rule:nonzero;"/>
        </g>
        <g transform="matrix(4.16667,0,0,4.16667,0,0)">
            <path d="M788.009,418.102C787.822,418.132 787.635,418.164 787.452,418.191C787.635,418.164 787.823,418.132 788.009,418.102" style="fill:rgb(88,89,91);fill-rule:nonzero;"/>
        </g>
        <g transform="matrix(4.16667,0,0,4.16667,0,0)">
            <path d="M784.547,418.463C784.384,418.469 784.223,418.473 784.064,418.476C784.224,418.473 784.384,418.47 784.547,418.463" style="fill:rgb(88,89,91);fill-rule:nonzero;"/>
        </g>
        <g transform="matrix(4.16667,0,0,4.16667,0,0)">
            <path d="M780.883,418.272C780.881,418.272 780.879,418.271 780.877,418.271C780.879,418.271 780.881,418.272 780.883,418.272" style="fill:rgb(88,89,91);fill-rule:nonzero;"/>
        </g>
        <g transform="matrix(4.16667,0,0,4.16667,0,0)">
            <path d="M787.318,387.057C785.767,387.356 784.05,387.682 783.972,387.697C783.972,387.697 783.969,387.697 783.969,387.7C783.652,387.76 783.308,387.772 782.956,387.739L782.669,385.241C784.205,385.844 785.991,386.541 787.318,387.057M808.74,407.22L801.26,404.309C801.321,404.122 801.375,403.929 801.421,403.729L812.067,406.578C811.053,406.774 809.917,406.994 808.74,407.22M802.534,408.41L799.281,407.145C800.144,406.46 800.771,405.606 801.155,404.593L808.181,407.326C806.242,407.701 804.235,408.083 802.534,408.41M798.527,409.172L798.445,409.188C796.822,409.498 795.051,409.435 793.332,409.055C795.184,408.95 797.344,408.53 798.998,407.356L801.975,408.515C800.361,408.823 799.09,409.064 798.527,409.172M826.707,410.687L824.625,409.875C823.503,410.102 822.127,410.376 820.557,410.687L816.527,409.119L814.303,409.543L818.358,411.124C810.45,412.688 798.885,414.935 788.296,416.833C787.415,416.993 786.573,417.108 785.764,417.18L785.725,417.18C785.719,417.183 785.714,417.183 785.71,417.186C783.336,417.394 781.266,417.244 779.428,416.724C775.967,415.744 773.349,413.234 772.054,409.652C770.232,404.614 771.409,399.69 772.658,394.479L772.896,393.474C773.377,391.456 773.88,389.404 774.369,387.419C774.682,386.14 775,384.858 775.31,383.578C776.128,380.202 777.636,378.105 779.248,378.105C780.741,378.105 780.958,380.881 780.958,380.905L781.269,383.609C781.269,383.612 781.269,383.618 781.272,383.62L782.838,397.306L784.084,397.792C784.092,397.738 784.096,397.681 784.089,397.623L783.758,394.726C784.172,395.11 784.69,395.472 785.345,395.755C787.176,396.546 796.669,400.266 804.343,403.262L801.381,402.472L798.892,402.966C798.967,403.039 799.057,403.099 799.167,403.126L800.253,403.419C799.987,404.619 799.363,405.591 798.397,406.306C795.515,408.439 790.45,407.815 789.683,407.706C789.179,407.435 788.697,407.136 788.245,406.804C786.875,405.793 785.213,404.104 784.609,401.599L783.281,401.08C783.676,403.705 785.136,406.013 787.529,407.776C790.004,409.595 793.172,410.6 796.228,410.6C797.057,410.6 797.875,410.524 798.672,410.373L798.75,410.358C800.605,410.005 810.064,408.203 814.261,407.38L814.868,407.259L816.816,406.865L814.97,406.104C814.708,406.004 788.902,395.979 785.825,394.648C784.053,393.885 783.538,392.394 783.463,392.144L783.097,388.955C783.17,388.958 783.242,388.964 783.314,388.964C783.616,388.964 783.912,388.937 784.196,388.886L784.192,388.879C784.962,388.75 789.348,387.896 789.397,387.884L789.602,387.845L791.575,387.425L789.714,386.698C789.708,386.695 789.705,386.692 789.702,386.689C789.663,386.677 786.639,385.5 783.966,384.453C783.948,383.59 783.257,382.893 782.397,382.86L782.162,380.818C782.072,379.354 781.356,376.898 779.248,376.898C777.018,376.898 775.108,379.288 774.136,383.295C773.826,384.574 773.512,385.853 773.198,387.133C772.707,389.118 772.203,391.172 771.722,393.197L771.484,394.199C770.251,399.352 768.974,404.683 770.918,410.06C772.347,414.018 775.255,416.796 779.099,417.886C779.121,417.892 779.143,417.897 779.165,417.903C779.143,417.897 779.121,417.892 779.1,417.886C779.121,417.892 779.143,417.897 779.165,417.903C779.716,418.055 780.287,418.178 780.877,418.271C780.879,418.271 780.881,418.272 780.882,418.272C781.078,418.302 781.276,418.329 781.476,418.354C781.918,418.407 782.37,418.443 782.834,418.463C783.126,418.474 783.422,418.483 783.721,418.483C783.834,418.483 783.949,418.478 784.063,418.476C784.222,418.473 784.383,418.469 784.547,418.463C784.777,418.453 785.01,418.442 785.245,418.426C785.653,418.4 786.071,418.362 786.497,418.313C786.811,418.277 787.129,418.237 787.452,418.191C787.634,418.164 787.822,418.132 788.008,418.102C788.174,418.075 788.338,418.052 788.506,418.022C799.969,415.967 812.575,413.505 820.449,411.939L824.48,413.511L826.707,413.085L822.648,411.501C824.359,411.161 825.744,410.883 826.707,410.687" style="fill:rgb(88,89,91);fill-rule:nonzero;"/>
        </g>
        <g transform="matrix(4.16667,0,0,4.16667,0,0)">
            <clipPath id="_clip10">
                <rect x="793.46" y="404.001" width="18.735" height="5.656"/>
            </clipPath>
            <g clip-path="url(#_clip10)">
                <g>
                    <g>
                        <clipPath id="_clip11">
                            <rect x="793.46" y="404.001" width="18.736" height="5.656"/>
                        </clipPath>
                        <g clip-path="url(#_clip11)">
                            <path d="M801.549,404.001L812.195,406.85C811.182,407.045 810.045,407.266 808.868,407.492L801.389,404.581C801.449,404.394 801.503,404.2 801.549,404.001" style="fill:rgb(147,149,152);fill-rule:nonzero;"/>
                            <path d="M799.126,407.628L802.104,408.786C800.489,409.094 799.219,409.335 798.655,409.444L798.573,409.459C796.95,409.77 795.18,409.706 793.46,409.326C795.313,409.221 797.473,408.802 799.126,407.628" style="fill:rgb(147,149,152);fill-rule:nonzero;"/>
                            <path d="M801.283,404.864L808.309,407.598C806.37,407.972 804.363,408.355 802.662,408.681L799.409,407.416C800.272,406.732 800.899,405.878 801.283,404.864" style="fill:rgb(147,149,152);fill-rule:nonzero;"/>
                        </g>
                    </g>
                </g>
            </g>
        </g>
        <g transform="matrix(4.16667,0,0,4.16667,0,0)">
            <g>
                <g>
                    <clipPath id="_clip12">
                        <rect x="782.489" y="384.37" width="4.761" height="3.501"/>
                    </clipPath>
                    <g clip-path="url(#_clip12)">
                        <path d="M782.601,385.355C784.136,385.958 785.922,386.655 787.25,387.17C785.7,387.47 783.983,387.795 783.904,387.811C783.904,387.811 783.901,387.811 783.901,387.814C783.584,387.874 783.241,387.886 782.887,387.852L782.601,385.355Z" style="fill:rgb(253,184,18);fill-rule:nonzero;"/>
                        <path d="M782.489,384.37L782.648,385.768C782.781,385.597 782.864,385.385 782.864,385.152C782.864,384.835 782.716,384.556 782.489,384.37" style="fill:rgb(253,184,18);fill-rule:nonzero;"/>
                    </g>
                </g>
            </g>
        </g>
        <g transform="matrix(4.16667,0,0,4.16667,0,0)">
            <path d="M1023.04,400.93C1018.63,400.942 1014.23,401.032 1009.83,401.193C1009.28,401.213 1008.84,401.672 1008.84,402.217L1008.84,437.807C1008.84,438.352 1008.4,438.811 1007.86,438.833C1002.88,439.038 997.912,439.333 992.939,439.705C992.394,439.746 991.953,440.222 991.953,440.767L991.953,442.96C991.953,443.505 992.394,443.912 992.939,443.872C1002.97,443.121 1013,442.686 1023.04,442.659C1023.76,442.657 1024.24,441.904 1023.93,441.249C1020.92,434.906 1017.92,428.598 1014.91,422.326C1014.79,422.062 1014.79,421.751 1014.91,421.482C1017.92,415.065 1020.92,408.682 1023.93,402.337C1024.24,401.683 1023.76,400.928 1023.04,400.93M773.316,469.321L773.316,433.73C773.316,433.185 772.875,432.761 772.331,432.782C767.927,432.943 763.522,433.034 759.118,433.045C758.394,433.047 757.918,433.798 758.226,434.452C761.21,440.797 764.194,447.107 767.18,453.382C767.305,453.645 767.305,453.952 767.18,454.221C764.194,460.639 761.21,467.023 758.226,473.369C757.918,474.024 758.395,474.776 759.118,474.774C769.152,474.747 779.186,474.312 789.221,473.561C789.766,473.52 790.207,473.044 790.207,472.499L790.207,470.306C790.207,469.761 789.766,469.354 789.221,469.394C784.248,469.766 779.275,470.061 774.303,470.267C773.759,470.289 773.316,469.865 773.316,469.321M1004.38,435.516C928.848,439.262 853.312,462.888 777.777,466.634C777.233,466.661 776.791,466.241 776.791,465.696L776.791,426.646C776.791,426.101 777.233,425.639 777.777,425.612C853.312,421.866 928.848,398.24 1004.38,394.494C1004.93,394.468 1005.37,394.888 1005.37,395.433L1005.37,434.483C1005.37,435.027 1004.93,435.489 1004.38,435.516" style="fill:rgb(0,64,113);fill-rule:nonzero;"/>
        </g>
        <g transform="matrix(4.16667,0,0,4.16667,0,0)">
            <path d="M950.215,424.457C947.925,424.79 945.635,425.132 943.346,425.482L943.346,422.064C945.635,421.714 947.925,421.371 950.215,421.038L950.215,424.457Z" style="fill:white;fill-rule:nonzero;"/>
        </g>
        <g transform="matrix(4.16667,0,0,4.16667,0,0)">
            <path d="M828.224,439.039C828.224,439.022 828.225,439.006 828.225,438.99C828.224,438.977 828.224,438.964 828.224,438.951L828.224,439.039Z" style="fill:white;fill-rule:nonzero;"/>
        </g>
        <g transform="matrix(4.16667,0,0,4.16667,0,0)">
            <path d="M839.886,449.5C837.347,449.892 834.809,450.273 832.27,450.644C832.182,450.656 832.111,450.737 832.112,450.825L832.112,454.267C832.111,454.354 832.183,454.415 832.27,454.402C834.809,454.032 837.347,453.651 839.886,453.259C839.974,453.246 840.044,453.164 840.045,453.076L840.045,449.635C840.045,449.547 839.974,449.486 839.886,449.5" style="fill:white;fill-rule:nonzero;"/>
        </g>
        <g transform="matrix(4.16667,0,0,4.16667,0,0)">
            <path d="M800.894,443.867C800.243,443.93 799.592,443.993 798.941,444.054C798.757,444.071 798.609,443.901 798.609,443.68L798.609,436.167C798.609,435.777 798.925,435.431 799.315,435.395L800.894,435.243C805.28,434.807 805.722,436.072 805.722,439.245C805.721,442.264 804.911,443.469 800.894,443.867M802,431.264C798.489,431.615 794.976,431.931 791.464,432.211C791.32,432.221 791.203,432.348 791.203,432.494L791.203,435.839C791.203,435.983 791.32,436.092 791.464,436.08C792.164,436.024 792.862,435.968 793.56,435.909C794.187,435.856 794.482,436.384 794.482,436.863L794.482,458.601C794.482,458.747 794.599,458.854 794.745,458.842C795.945,458.738 797.146,458.631 798.346,458.519C798.492,458.506 798.609,458.377 798.609,458.232L798.609,448.328C798.609,448.183 798.726,448.054 798.872,448.041C799.767,447.957 800.663,447.87 801.558,447.781C807.38,447.198 809.887,444.825 809.887,438.787C809.887,432.663 807.787,430.679 802,431.264" style="fill:white;fill-rule:nonzero;"/>
        </g>
        <g transform="matrix(4.16667,0,0,4.16667,0,0)">
            <path d="M817.822,441.963C817.196,442.041 816.57,442.119 815.943,442.197C815.649,442.234 815.538,442.025 815.538,441.805L815.538,434.066C815.538,433.734 815.685,433.605 815.943,433.573C816.57,433.496 817.196,433.418 817.822,433.339C822.208,432.779 822.65,434.036 822.65,437.208C822.65,440.228 821.84,441.451 817.822,441.963M823.676,444.464C823.618,444.359 823.664,444.222 823.769,444.14C824.036,443.979 824.258,443.808 824.416,443.628C824.411,443.629 824.406,443.63 824.402,443.63C826.045,442.179 826.815,439.973 826.815,436.642C826.816,430.52 824.715,428.583 818.928,429.329C816.505,429.639 814.08,429.936 811.656,430.218C811.519,430.234 811.409,430.358 811.409,430.494C811.409,439.297 811.41,448.1 811.411,456.902C811.41,457.038 811.521,457.137 811.658,457.12C812.869,456.98 814.079,456.835 815.291,456.687C815.426,456.67 815.537,456.546 815.538,456.409L815.538,446.917C815.538,446.535 815.846,446.191 816.228,446.141C816.744,446.073 817.278,445.994 817.798,445.911C817.798,445.911 818.327,445.83 819.091,445.673C819.379,445.614 819.654,445.73 819.789,445.968C821.541,449.082 823.292,452.19 825.044,455.291C825.087,455.366 825.171,455.405 825.262,455.393C826.526,455.22 827.791,455.044 829.054,454.865C829.24,454.839 829.359,454.625 829.274,454.473C827.408,451.144 825.543,447.808 823.676,444.464" style="fill:white;fill-rule:nonzero;"/>
        </g>
        <g transform="matrix(4.16667,0,0,4.16667,0,0)">
            <path d="M912.574,413.679C909.889,414.144 907.206,414.613 904.521,415.085L904.521,415.075C899.867,415.91 895.213,416.754 890.558,417.597C890.351,417.635 890.184,417.833 890.183,418.04L890.183,444.23C890.183,444.437 890.351,444.575 890.558,444.536C894.645,443.796 898.732,443.055 902.819,442.321C903.026,442.283 903.194,442.085 903.194,441.878L903.194,438.427C903.194,438.22 903.026,438.082 902.819,438.119C900.291,438.574 897.761,439.031 895.233,439.489C894.606,439.602 894.386,439.126 894.386,438.721L894.386,430.875C894.385,430.322 894.754,429.814 895.269,429.72C897.295,429.354 899.319,428.988 901.344,428.622C901.551,428.585 901.719,428.387 901.719,428.181L901.719,424.729C901.719,424.522 901.551,424.384 901.344,424.421C899.307,424.788 897.27,425.157 895.233,425.526C894.754,425.612 894.386,425.2 894.386,424.757L894.386,421.768C894.386,421.326 894.829,420.73 895.307,420.643C900.694,419.668 906.081,418.697 911.469,417.743C915.853,416.969 916.295,419.808 916.296,426.55C916.295,432.522 915.485,436.124 911.469,436.833C910.879,436.938 910.289,437.042 909.699,437.148C909.404,437.2 909.22,437.085 909.22,436.717L909.22,420.561C909.22,420.354 909.052,420.216 908.845,420.253C907.707,420.455 906.568,420.658 905.43,420.863C905.223,420.9 905.055,421.097 905.055,421.305L905.055,441.544C905.055,441.751 905.223,441.889 905.43,441.852C907.811,441.426 910.192,441.002 912.574,440.581C917.438,439.724 920.46,436.111 920.46,425.827C920.46,414.146 917.18,412.903 912.574,413.679" style="fill:white;fill-rule:nonzero;"/>
        </g>
        <g transform="matrix(4.16667,0,0,4.16667,0,0)">
            <path d="M839.406,440.211C839.256,441.183 839.037,442.4 838.239,443.161C837.63,443.744 836.794,443.891 836.048,444.003C834.813,444.189 833.774,444.078 833.229,442.949C832.694,441.838 832.605,440.444 832.518,439.175C832.375,437.076 832.401,435.938 832.836,433.786C833.007,432.939 833.274,431.931 834.014,431.325C834.604,430.844 835.365,430.729 836.048,430.626C837.117,430.466 838.303,430.262 838.897,431.223C839.482,432.17 839.532,433.529 839.609,434.673C839.755,436.809 839.744,438.018 839.406,440.211M841.808,426.988C840.337,425.821 838.026,426.128 836.122,426.414C835.758,426.469 835.393,426.533 835.03,426.611C832.898,427.072 830.893,428.085 829.785,430.177C829.177,431.322 828.869,432.578 828.662,433.801C828.372,435.518 828.227,437.288 828.224,438.99C828.258,440.135 828.291,440.313 828.381,441.446C828.55,443.576 828.766,446.32 830.45,447.662C831.908,448.823 834.172,448.524 836.048,448.241C837.206,448.067 838.391,447.86 839.524,447.421C841.504,446.652 842.638,445.098 843.183,443.1C843.592,441.604 843.733,440.075 843.83,438.58C843.973,436.341 843.968,435.091 843.796,432.903C843.635,430.854 843.418,428.266 841.808,426.988" style="fill:white;fill-rule:nonzero;"/>
        </g>
        <g transform="matrix(4.16667,0,0,4.16667,0,0)">
            <path d="M946.236,431.263C942.748,431.786 939.259,432.33 935.771,432.891C934.961,433.021 934.445,432.625 934.445,431.889L934.445,410.591C934.444,410.242 934.163,410.007 933.815,410.063C932.736,410.239 931.657,410.415 930.578,410.594C930.23,410.651 929.948,410.98 929.948,411.327L929.948,436.971C929.948,437.319 930.23,437.554 930.578,437.496C935.798,436.634 941.016,435.805 946.236,435.022C946.585,434.97 946.866,434.646 946.866,434.298L946.866,431.798C946.866,431.45 946.584,431.211 946.236,431.263" style="fill:white;fill-rule:nonzero;"/>
        </g>
        <g transform="matrix(4.16667,0,0,4.16667,0,0)">
            <path d="M984.066,403.439C979.033,403.893 974,404.418 968.966,405.005L968.966,405.042C968.949,405.044 968.931,405.046 968.913,405.048L968.913,421.043C968.913,421.152 968.802,421.24 968.728,421.249C968.655,421.258 968.545,421.197 968.507,421.091C966.278,416.129 964.049,411.18 961.821,406.24C961.741,406.064 961.557,405.966 961.353,405.993C960.234,406.139 959.115,406.287 957.996,406.439C957.715,406.477 957.488,406.735 957.488,407.016L957.488,429.144C957.488,429.424 957.26,429.683 956.98,429.721C956.478,429.789 955.975,429.858 955.473,429.928C955.235,429.961 955.028,429.824 954.977,429.599C953.337,422.378 951.696,415.163 950.055,407.953C950.004,407.728 949.798,407.592 949.56,407.627C946.093,408.134 942.628,408.661 939.162,409.207C938.881,409.252 938.654,409.515 938.654,409.795L938.654,412.612C938.654,412.893 938.88,413.084 939.162,413.04C939.901,412.924 940.641,412.808 941.38,412.693C942.191,412.567 942.45,412.785 942.45,413.154C942.45,413.265 942.45,413.412 942.413,413.528C941.206,418.948 939.998,424.37 938.791,429.794C938.716,430.124 938.958,430.391 939.285,430.339C940.342,430.173 941.401,430.008 942.46,429.845C942.706,429.807 942.916,429.598 942.959,429.35C944.091,424.082 945.223,418.817 946.356,413.556C946.392,413.439 946.466,413.355 946.541,413.344C946.614,413.332 946.687,413.396 946.724,413.5C948.292,420.296 949.858,427.096 951.425,433.9C951.478,434.124 951.683,434.259 951.92,434.225C953.248,434.035 954.575,433.848 955.901,433.665C957.663,433.41 959.423,433.162 961.184,432.921C961.463,432.882 961.689,432.626 961.689,432.347L961.689,417.005C961.689,416.856 961.763,416.774 961.837,416.765C961.911,416.755 961.984,416.818 962.058,416.957C964.298,421.847 966.54,426.748 968.781,431.66C968.861,431.837 969.045,431.936 969.247,431.911C970.367,431.778 971.487,431.648 972.607,431.522C972.886,431.49 973.114,431.237 973.114,430.957L973.114,408.904C973.114,408.623 973.342,408.37 973.624,408.34C976.975,407.981 980.327,407.649 983.677,407.351L983.677,407.376C987.392,407.354 987.789,410.281 987.789,416.633C987.789,422.606 986.978,426.127 982.961,426.502C982.371,426.558 981.781,426.614 981.192,426.672C980.896,426.701 980.712,426.572 980.712,426.203L980.712,410.198C980.712,409.918 980.485,409.713 980.205,409.741C979.155,409.846 978.105,409.954 977.055,410.064C976.775,410.094 976.548,410.346 976.548,410.626C976.547,417.277 976.547,423.93 976.548,430.582C976.547,430.862 976.775,431.065 977.055,431.036C979.392,430.79 981.729,430.558 984.066,430.342C988.93,429.894 991.953,426.58 991.953,416.295C991.953,404.615 988.673,403.049 984.066,403.439" style="fill:white;fill-rule:nonzero;"/>
        </g>
        <g transform="matrix(4.16667,0,0,4.16667,0,0)">
            <path d="M883.629,431.345C882.695,430.899 881.761,430.453 880.827,430.007C877.438,428.407 877.068,427.623 877.068,426.37C877.068,424.601 877.88,423.425 880.496,422.954C882.739,422.55 883.984,422.566 884.066,425.559C884.071,425.736 884.213,425.859 884.391,425.826L888.015,425.17C888.196,425.138 888.346,424.956 888.344,424.775C888.287,419.088 886.752,417.773 880.607,418.88C874.563,419.968 872.61,423.222 872.61,427.129C872.61,431.737 875.668,432.778 878.764,434.395C879.587,434.824 880.41,435.254 881.233,435.683C883.886,437.047 884.071,437.824 884.07,439.188C884.07,441.178 883.444,442.397 880.496,442.928C877.41,443.484 876.987,442.636 876.96,439.876C876.959,439.697 876.814,439.573 876.635,439.605C875.403,439.825 874.172,440.045 872.941,440.264C872.759,440.296 872.609,440.477 872.611,440.659C872.671,446.747 874.379,448.119 880.496,447.019C886.281,445.976 888.604,442.826 888.604,438.442C888.604,437.963 888.566,437.453 888.53,436.944C888.234,434.159 886.025,432.496 883.629,431.345" style="fill:white;fill-rule:nonzero;"/>
        </g>
        <g transform="matrix(4.16667,0,0,4.16667,0,0)">
            <path d="M868.676,421.257C867.35,421.49 866.243,422.752 866.243,424.116C866.243,425.783 867.898,426.721 869.585,425.793C870.338,425.379 870.922,424.605 871.089,423.789C871.429,422.124 870.169,420.994 868.676,421.257" style="fill:white;fill-rule:nonzero;"/>
        </g>
        <g transform="matrix(4.16667,0,0,4.16667,0,0)">
            <path d="M863.259,422.47C862.11,422.669 860.96,422.867 859.812,423.064C859.617,423.097 859.448,423.257 859.4,423.452C858.088,428.717 856.777,433.981 855.466,439.242C855.356,439.703 855.134,439.962 854.949,439.992C854.728,440.03 854.507,439.846 854.397,439.422C852.977,434.616 851.556,429.808 850.136,424.997C850.083,424.822 849.916,424.723 849.726,424.754C848.574,424.943 847.423,425.129 846.272,425.314C846.037,425.352 845.847,425.573 845.847,425.808L845.847,451.933C845.847,452.168 846.037,452.327 846.272,452.29C847.389,452.111 848.506,451.93 849.623,451.747C849.858,451.708 850.048,451.488 850.048,451.252L850.048,442.427C850.048,442.059 850.196,441.814 850.342,441.789C850.453,441.771 850.602,441.895 850.675,442.177C851.59,445.058 852.506,447.939 853.421,450.818C853.475,450.988 853.64,451.083 853.828,451.052C854.513,450.938 855.197,450.823 855.881,450.707C856.072,450.675 856.238,450.521 856.29,450.329C857.158,447.116 858.026,443.903 858.893,440.689C858.93,440.498 859.077,440.363 859.189,440.344C859.335,440.319 859.483,440.441 859.483,440.736L859.483,449.671C859.483,449.906 859.673,450.064 859.907,450.024C861.025,449.832 862.142,449.64 863.259,449.447C863.493,449.406 863.684,449.182 863.684,448.948L863.684,422.822C863.684,422.586 863.493,422.43 863.259,422.47" style="fill:white;fill-rule:nonzero;"/>
        </g>
        <g transform="matrix(4.16667,0,0,4.16667,0,0)">
            <path d="M870.447,427.356C869.265,427.565 868.085,427.773 866.903,427.98C866.721,428.012 866.575,428.185 866.574,428.366L866.574,448.502C866.575,448.684 866.721,448.805 866.903,448.774C868.085,448.567 869.265,448.359 870.447,448.15C870.629,448.118 870.776,447.945 870.776,447.763L870.776,427.627C870.776,427.445 870.629,427.324 870.447,427.356" style="fill:white;fill-rule:nonzero;"/>
        </g>
    </g>
</svg>
