<?xml version="1.0" standalone="no"?>
<!DOCTYPE svg PUBLIC "-//W3C//DTD SVG 1.1//EN" "http://www.w3.org/Graphics/SVG/1.1/DTD/svg11.dtd">
<svg width="100%" height="100%" viewBox="0 0 1108 414" version="1.1" xmlns="http://www.w3.org/2000/svg" xmlns:xlink="http://www.w3.org/1999/xlink" xml:space="preserve" style="fill-rule:evenodd;clip-rule:evenodd;stroke-linejoin:round;stroke-miterlimit:1.41421;">
    <g transform="matrix(1,0,0,1,-3121.38,-2096.01)">
        <g transform="matrix(4.16667,0,0,4.16667,0,0)">
            <path d="M973.755,576.248C973.755,576.248 972.172,572.507 971.046,571.382L971.046,575.626L972.179,575.963L973.755,576.248Z" style="fill:rgb(88,89,91);fill-rule:nonzero;"/>
        </g>
        <g transform="matrix(4.16667,0,0,4.16667,0,0)">
            <path d="M972.246,575.683L973.274,575.87C972.894,575.021 972.076,573.27 971.334,572.198L971.334,575.412L972.246,575.683ZM973.755,576.537C973.738,576.537 973.721,576.536 973.704,576.533L972.128,576.246C972.117,576.245 972.106,576.243 972.097,576.24L970.965,575.903C970.842,575.867 970.759,575.754 970.759,575.626L970.759,571.382C970.759,571.266 970.829,571.161 970.936,571.117C971.044,571.072 971.168,571.096 971.25,571.178C972.401,572.33 973.955,575.982 974.02,576.137C974.061,576.234 974.046,576.346 973.979,576.429C973.925,576.497 973.842,576.537 973.755,576.537" style="fill:rgb(88,89,91);fill-rule:nonzero;"/>
        </g>
        <g transform="matrix(4.16667,0,0,4.16667,0,0)">
            <path d="M979.13,575.968C979.13,575.968 981.578,576.321 981.578,578.801C981.578,581.282 976.944,582.146 973.85,581.138C970.755,580.13 967.372,578.475 966.868,577.035C966.364,575.596 968.643,574.797 970.742,575.629C972.842,576.46 976.781,575.19 979.13,575.968" style="fill:rgb(119,135,103);fill-rule:nonzero;"/>
        </g>
        <g transform="matrix(4.16667,0,0,4.16667,0,0)">
            <path d="M969.017,575.58C968.281,575.58 967.662,575.783 967.338,576.094C967.092,576.33 967.026,576.614 967.14,576.94C967.538,578.077 970.333,579.69 973.939,580.864C976.106,581.569 979.021,581.308 980.437,580.279C981.003,579.868 981.291,579.37 981.291,578.801C981.291,576.606 979.178,576.267 979.088,576.253C979.072,576.251 979.055,576.247 979.039,576.241C977.93,575.873 976.392,575.989 974.904,576.101C973.286,576.225 971.757,576.34 970.637,575.896C970.079,575.676 969.521,575.58 969.017,575.58M976.613,581.84C975.639,581.84 974.649,581.701 973.76,581.411C970.811,580.451 967.164,578.754 966.596,577.131C966.407,576.589 966.529,576.073 966.939,575.679C967.723,574.926 969.404,574.788 970.849,575.36C971.846,575.756 973.31,575.644 974.861,575.527C976.396,575.412 977.984,575.292 979.201,575.688C979.493,575.741 981.867,576.255 981.867,578.801C981.867,579.555 981.49,580.226 980.775,580.746C979.794,581.458 978.226,581.84 976.613,581.84" style="fill:rgb(88,89,91);fill-rule:nonzero;"/>
        </g>
        <g transform="matrix(4.16667,0,0,4.16667,0,0)">
            <clipPath id="_clip1">
                <rect x="974.518" y="575.163" width="6.616" height="4.722"/>
            </clipPath>
            <g clip-path="url(#_clip1)">
                <g>
                    <path d="M981.082,578.395C980.758,579.607 979.038,580.2 977.24,579.719C975.442,579.239 974.248,577.867 974.571,576.655C974.895,575.443 976.615,574.85 978.413,575.331C980.211,575.811 981.405,577.183 981.082,578.395" style="fill:rgb(209,211,212);fill-rule:nonzero;"/>
                </g>
            </g>
        </g>
        <g transform="matrix(4.16667,0,0,4.16667,0,0)">
            <path d="M977.797,575.675C977.636,576.279 976.863,576.596 976.071,576.385C975.28,576.173 974.77,575.513 974.931,574.909C975.092,574.306 975.864,573.988 976.656,574.199C977.447,574.41 977.958,575.071 977.797,575.675" style="fill:rgb(86,99,75);fill-rule:nonzero;"/>
        </g>
        <g transform="matrix(4.16667,0,0,4.16667,0,0)">
            <path d="M976.164,574.421C975.987,574.421 975.817,574.452 975.667,574.515C975.426,574.613 975.264,574.78 975.209,574.983C975.154,575.187 975.212,575.412 975.372,575.617C975.549,575.847 975.824,576.021 976.146,576.107C976.469,576.192 976.793,576.179 977.061,576.069C977.302,575.97 977.465,575.804 977.518,575.601C977.637,575.159 977.207,574.645 976.581,574.478C976.441,574.44 976.3,574.421 976.164,574.421M976.563,576.738C976.377,576.738 976.185,576.713 975.997,576.663C975.554,576.544 975.17,576.298 974.916,575.97C974.644,575.618 974.551,575.215 974.652,574.835C974.754,574.454 975.037,574.151 975.447,573.983C975.831,573.824 976.287,573.803 976.73,573.921C977.674,574.173 978.277,574.993 978.075,575.749C977.974,576.13 977.691,576.433 977.28,576.602C977.06,576.692 976.815,576.738 976.563,576.738" style="fill:rgb(88,89,91);fill-rule:nonzero;"/>
        </g>
        <g transform="matrix(4.16667,0,0,4.16667,0,0)">
            <path d="M978.302,574.772C978.277,574.772 978.251,574.769 978.226,574.762C978.169,574.747 976.824,574.374 975.231,573.507C973.749,572.701 971.775,571.298 970.786,569.196C970.718,569.051 970.781,568.88 970.924,568.812C971.068,568.745 971.24,568.807 971.307,568.951C972.619,571.742 975.835,573.273 977.438,573.885C975.125,570.851 974.95,568.006 974.944,567.877C974.935,567.718 975.057,567.583 975.216,567.575C975.376,567.567 975.51,567.688 975.519,567.847C975.52,567.879 975.728,571.14 978.518,574.293C978.602,574.388 978.614,574.528 978.546,574.636C978.493,574.722 978.4,574.772 978.302,574.772" style="fill:rgb(88,89,91);fill-rule:nonzero;"/>
        </g>
        <g transform="matrix(4.16667,0,0,4.16667,0,0)">
            <path d="M980.783,580.605L980.783,580.606L980.783,580.605ZM982.665,582.616C982.62,582.616 982.574,582.606 982.532,582.584C980.394,581.466 980.194,580.805 980.208,580.573C980.217,580.415 980.349,580.294 980.512,580.302C980.657,580.31 980.772,580.426 980.782,580.568C980.801,580.622 981.014,581.14 982.799,582.073C982.939,582.147 982.994,582.321 982.92,582.461C982.869,582.56 982.768,582.616 982.665,582.616" style="fill:rgb(88,89,91);fill-rule:nonzero;"/>
        </g>
        <g transform="matrix(4.16667,0,0,4.16667,0,0)">
            <path d="M979.542,584.271C979.469,584.271 979.395,584.244 979.339,584.187C977.736,582.585 977.548,580.833 977.54,580.758C977.524,580.6 977.641,580.459 977.798,580.444C977.956,580.427 978.098,580.543 978.113,580.702C978.116,580.727 978.301,582.335 979.746,583.78C979.858,583.892 979.858,584.075 979.746,584.187C979.689,584.244 979.616,584.271 979.542,584.271" style="fill:rgb(88,89,91);fill-rule:nonzero;"/>
        </g>
        <g transform="matrix(4.16667,0,0,4.16667,0,0)">
            <path d="M974.962,583.407C974.803,583.407 974.674,583.278 974.674,583.119C974.674,581.962 975.144,580.683 975.164,580.629C975.22,580.48 975.385,580.404 975.534,580.46C975.684,580.514 975.759,580.68 975.704,580.83C975.699,580.842 975.249,582.067 975.249,583.119C975.249,583.278 975.12,583.407 974.962,583.407" style="fill:rgb(88,89,91);fill-rule:nonzero;"/>
        </g>
        <g transform="matrix(4.16667,0,0,4.16667,0,0)">
            <path d="M965.508,568.323C968.64,571.562 971.767,579.341 971.767,579.341C971.767,579.341 970.523,580.786 969.188,579.406C969.188,579.406 967.021,576.608 966.495,574.039C965.971,571.469 965.508,568.323 965.508,568.323" style="fill:rgb(119,135,103);fill-rule:nonzero;"/>
        </g>
        <g transform="matrix(4.16667,0,0,4.16667,0,0)">
            <path d="M969.406,579.218C969.739,579.559 970.087,579.725 970.446,579.715C970.88,579.702 971.246,579.433 971.427,579.272C970.978,578.189 968.518,572.405 965.941,569.248C966.119,570.38 966.436,572.313 966.777,573.982C967.266,576.371 969.251,579.016 969.406,579.218M970.413,580.291C969.901,580.291 969.42,580.062 968.98,579.607C968.973,579.6 968.967,579.591 968.96,579.583C968.87,579.467 966.746,576.701 966.214,574.097C965.692,571.55 965.227,568.398 965.222,568.365C965.205,568.242 965.268,568.12 965.381,568.066C965.493,568.011 965.628,568.034 965.715,568.123C967.034,569.489 968.499,571.775 970.069,574.918C971.234,577.251 972.026,579.214 972.034,579.234C972.074,579.334 972.054,579.447 971.985,579.53C971.959,579.56 971.341,580.266 970.463,580.291L970.413,580.291Z" style="fill:rgb(88,89,91);fill-rule:nonzero;"/>
        </g>
        <g transform="matrix(4.16667,0,0,4.16667,0,0)">
            <path d="M961.827,582.125C961.703,582.125 961.588,582.044 961.552,581.918C961.507,581.766 961.594,581.605 961.746,581.561C963.055,581.177 964.754,581.254 965.459,581.31L965.298,568.334C965.296,568.175 965.424,568.045 965.582,568.043L965.586,568.043C965.743,568.043 965.872,568.169 965.874,568.327L966.039,581.622C966.04,581.705 966.005,581.784 965.943,581.84C965.882,581.896 965.8,581.922 965.718,581.912C965.695,581.909 963.452,581.659 961.908,582.113C961.882,582.121 961.854,582.125 961.827,582.125" style="fill:rgb(88,89,91);fill-rule:nonzero;"/>
        </g>
        <g transform="matrix(4.16667,0,0,4.16667,0,0)">
            <path d="M965.647,573.281C965.647,573.281 965.278,573.415 964.902,573.689" style="fill:rgb(132,134,136);fill-rule:nonzero;"/>
        </g>
        <g transform="matrix(4.16667,0,0,4.16667,0,0)">
            <path d="M964.901,573.978C964.812,573.978 964.724,573.936 964.669,573.858C964.575,573.731 964.603,573.55 964.732,573.457C965.136,573.162 965.532,573.017 965.548,573.011C965.698,572.957 965.863,573.034 965.918,573.183C965.972,573.332 965.895,573.498 965.746,573.551C965.737,573.555 965.404,573.679 965.07,573.921C965.019,573.959 964.96,573.978 964.901,573.978" style="fill:rgb(88,89,91);fill-rule:nonzero;"/>
        </g>
        <g transform="matrix(4.16667,0,0,4.16667,0,0)">
            <path d="M965.56,574.28C965.56,574.28 965.191,574.414 964.815,574.688" style="fill:rgb(132,134,136);fill-rule:nonzero;"/>
        </g>
        <g transform="matrix(4.16667,0,0,4.16667,0,0)">
            <path d="M964.815,574.976C964.726,574.976 964.638,574.935 964.582,574.858C964.488,574.729 964.516,574.549 964.645,574.455C965.05,574.161 965.446,574.016 965.462,574.009C965.612,573.955 965.777,574.033 965.831,574.182C965.885,574.331 965.808,574.497 965.659,574.55C965.656,574.552 965.321,574.676 964.984,574.921C964.932,574.958 964.874,574.976 964.815,574.976" style="fill:rgb(88,89,91);fill-rule:nonzero;"/>
        </g>
        <g transform="matrix(4.16667,0,0,4.16667,0,0)">
            <path d="M965.475,575.278C965.475,575.278 965.106,575.413 964.729,575.687" style="fill:rgb(132,134,136);fill-rule:nonzero;"/>
        </g>
        <g transform="matrix(4.16667,0,0,4.16667,0,0)">
            <path d="M964.729,575.975C964.64,575.975 964.552,575.934 964.496,575.857C964.403,575.728 964.431,575.548 964.559,575.454C964.964,575.16 965.36,575.014 965.376,575.008C965.526,574.954 965.691,575.032 965.746,575.181C965.799,575.33 965.722,575.496 965.574,575.549C965.57,575.551 965.235,575.675 964.898,575.92C964.847,575.957 964.788,575.975 964.729,575.975" style="fill:rgb(88,89,91);fill-rule:nonzero;"/>
        </g>
        <g transform="matrix(4.16667,0,0,4.16667,0,0)">
            <path d="M965.388,576.277C965.388,576.277 965.019,576.411 964.642,576.685" style="fill:rgb(132,134,136);fill-rule:nonzero;"/>
        </g>
        <g transform="matrix(4.16667,0,0,4.16667,0,0)">
            <path d="M964.642,576.974C964.553,576.974 964.466,576.933 964.41,576.856C964.316,576.727 964.344,576.547 964.473,576.453C964.878,576.159 965.273,576.013 965.289,576.007C965.44,575.953 965.604,576.031 965.659,576.18C965.713,576.329 965.636,576.494 965.487,576.548C965.484,576.55 965.148,576.674 964.812,576.919C964.76,576.956 964.702,576.974 964.642,576.974" style="fill:rgb(88,89,91);fill-rule:nonzero;"/>
        </g>
        <g transform="matrix(4.16667,0,0,4.16667,0,0)">
            <path d="M980.643,577.439C980.327,578.625 978.808,579.25 977.253,578.834C975.698,578.418 974.694,577.12 975.011,575.934C975.328,574.748 976.846,574.123 978.401,574.54C979.956,574.954 980.96,576.252 980.643,577.439" style="fill:rgb(119,135,103);fill-rule:nonzero;"/>
        </g>
        <g transform="matrix(4.16667,0,0,4.16667,0,0)">
            <path d="M977.434,574.697C977.05,574.697 976.682,574.765 976.351,574.901C975.796,575.13 975.418,575.522 975.289,576.008C975.16,576.492 975.29,577.021 975.658,577.496C976.042,577.994 976.636,578.37 977.328,578.554C978.726,578.928 980.089,578.394 980.365,577.364C980.495,576.88 980.364,576.35 979.997,575.876C979.612,575.378 979.018,575.002 978.327,574.817C978.028,574.737 977.727,574.697 977.434,574.697M978.209,579.249C977.874,579.249 977.527,579.204 977.179,579.111C976.366,578.894 975.664,578.445 975.203,577.848C974.723,577.227 974.556,576.521 974.733,575.859C974.91,575.196 975.407,574.668 976.132,574.369C976.83,574.082 977.663,574.043 978.475,574.26C979.288,574.477 979.99,574.926 980.452,575.523C980.931,576.144 981.098,576.85 980.921,577.512C980.637,578.577 979.515,579.249 978.209,579.249" style="fill:rgb(88,89,91);fill-rule:nonzero;"/>
        </g>
        <g transform="matrix(4.16667,0,0,4.16667,0,0)">
            <clipPath id="_clip2">
                <rect x="977.602" y="575.101" width="2.925" height="2.317"/>
            </clipPath>
            <g clip-path="url(#_clip2)">
                <g>
                    <path d="M980.498,576.643C980.337,577.247 979.564,577.564 978.773,577.353C977.981,577.141 977.471,576.48 977.632,575.876C977.793,575.273 978.565,574.956 979.357,575.167C980.148,575.378 980.659,576.039 980.498,576.643" style="fill:rgb(209,211,212);fill-rule:nonzero;"/>
                </g>
            </g>
        </g>
        <g transform="matrix(4.16667,0,0,4.16667,0,0)">
            <path d="M980.498,575.98C980.337,576.584 979.564,576.901 978.773,576.689C977.981,576.478 977.471,575.817 977.632,575.213C977.793,574.61 978.565,574.293 979.357,574.503C980.148,574.715 980.659,575.376 980.498,575.98" style="fill:rgb(119,135,103);fill-rule:nonzero;"/>
        </g>
        <g transform="matrix(4.16667,0,0,4.16667,0,0)">
            <path d="M980.498,575.98L980.5,575.98L980.498,575.98ZM978.872,574.727C978.403,574.727 978.002,574.944 977.91,575.288C977.792,575.729 978.222,576.244 978.848,576.412C979.474,576.58 980.102,576.346 980.22,575.906C980.338,575.463 979.909,574.95 979.282,574.782C979.144,574.745 979.006,574.727 978.872,574.727M979.258,577.042C979.075,577.042 978.888,577.018 978.698,576.967C977.755,576.715 977.151,575.895 977.353,575.139C977.556,574.383 978.488,573.974 979.432,574.226C980.375,574.478 980.978,575.298 980.776,576.054C980.614,576.659 979.985,577.042 979.258,577.042" style="fill:rgb(88,89,91);fill-rule:nonzero;"/>
        </g>
        <g transform="matrix(4.16667,0,0,4.16667,0,0)">
            <path d="M818.773,539.538L822.815,538.715L815.756,535.964L815.339,536.047C814.318,536.253 813.086,536.499 811.691,536.775L808.94,535.705L812.77,534.929L806.485,532.342C806.259,532.256 780.453,522.229 777.399,520.909C776.382,520.472 775.992,519.684 775.883,519.411L775.706,517.855L777.353,517.553L777.347,517.54C778.682,517.286 780.275,516.978 780.669,516.896L780.904,516.851L787.608,515.428L781.519,513.049L781.468,512.998L781.166,512.907C780.837,512.781 778.585,511.905 776.211,510.976C775.936,510.264 775.404,509.678 774.727,509.334L774.605,508.279C774.43,505.665 773.02,503.042 770.249,503.042C767.306,503.042 764.869,505.847 763.731,510.544C763.429,511.783 763.126,513.022 762.822,514.263L762.794,514.375C762.203,516.761 761.732,518.692 761.315,520.453L761.077,521.452C759.794,526.813 758.465,532.357 760.556,538.142C762.089,542.387 765.163,545.413 769.221,546.717L769.59,547.825L770.273,548.056C770.314,548.069 770.844,548.244 771.74,548.41L772.131,549.689L773.108,552.875L765.789,552.875L763.35,555.769L764.752,556.657C765.029,556.831 765.346,556.939 765.658,556.968C767.763,557.177 768.004,558.105 768.029,558.377C768.012,558.6 768.035,558.826 768.096,559.054L768.385,560.124L770.907,560.124L770.907,562.348L772.354,562.348C772.512,562.348 772.659,562.332 772.772,562.306C773.294,562.197 773.804,562.134 774.291,562.116L774.901,562.118L774.942,562.12C775.198,562.133 775.44,562.158 775.641,562.192C776.627,562.38 777.375,562.855 777.433,562.893L778.835,563.865L780.045,562.654C780.064,562.637 780.082,562.62 780.101,562.604L780.204,562.522C780.584,562.252 781.193,562.109 781.968,562.109C782.741,562.109 783.392,562.253 783.508,562.279L783.563,562.293C783.722,562.33 783.883,562.348 784.043,562.348L785.49,562.348L785.49,558.826L779.897,554.438L779.191,548.278C779.477,548.218 779.764,548.159 780.047,548.086L781.499,547.712L781.223,546.775C792.544,544.729 804.686,542.35 811.318,541.032L815.343,542.602L822.916,541.155L818.773,539.538Z" style="fill:white;fill-rule:nonzero;"/>
        </g>
        <g transform="matrix(4.16667,0,0,4.16667,0,0)">
            <path d="M776.258,546.017L777.32,555.283L776.674,555.832L772.354,559.507L772.354,560.901C772.396,560.901 772.439,560.898 772.478,560.889C773.132,560.753 773.727,560.687 774.267,560.668L774.882,560.668C774.924,560.668 774.967,560.671 775.009,560.674C775.332,560.69 775.637,560.723 775.911,560.771C777.26,561.028 778.24,561.691 778.252,561.701L778.665,561.987L779.022,561.631C779.079,561.574 779.136,561.522 779.196,561.474C779.227,561.447 779.257,561.426 779.287,561.402C779.312,561.383 779.335,561.363 779.362,561.344C781.022,560.162 783.859,560.873 783.888,560.882C783.94,560.895 783.99,560.901 784.042,560.901L784.042,559.531L778.527,555.205L777.462,545.909C777.474,545.908 777.486,545.906 777.497,545.905C777.071,545.953 776.654,545.991 776.245,546.018C776.249,546.018 776.254,546.018 776.258,546.017" style="fill:rgb(253,184,18);fill-rule:nonzero;"/>
        </g>
        <g transform="matrix(4.16667,0,0,4.16667,0,0)">
            <path d="M772.499,545.947L775.066,554.323L766.461,554.323L765.526,555.433C765.607,555.484 765.701,555.517 765.801,555.527C769.603,555.904 769.478,558.438 769.478,558.438C769.463,558.519 769.473,558.598 769.493,558.676L770.99,558.676L776.2,555.436C776.207,555.433 776.21,555.43 776.213,555.424C776.24,555.409 776.261,555.39 776.282,555.373C776.306,555.354 776.324,555.331 776.346,555.309C776.346,555.309 776.349,555.309 776.349,555.306C776.385,555.261 776.412,555.213 776.436,555.159C776.438,555.149 776.442,555.137 776.448,555.129C776.466,555.077 776.478,555.023 776.481,554.966L776.481,554.935C776.484,554.881 776.478,554.827 776.463,554.772C776.463,554.769 776.463,554.763 776.46,554.76L776.46,554.755C776.46,554.755 776.46,554.752 776.457,554.748L773.793,546.052C773.807,546.053 773.82,546.053 773.834,546.053C773.37,546.033 772.918,545.997 772.477,545.944C772.484,545.945 772.491,545.946 772.499,545.947" style="fill:rgb(253,184,18);fill-rule:nonzero;"/>
        </g>
        <g transform="matrix(4.16667,0,0,4.16667,0,0)">
            <clipPath id="_clip3">
                <rect x="772.476" y="545.904" width="5.274" height="2.563"/>
            </clipPath>
            <g clip-path="url(#_clip3)">
                <g>
                    <g>
                        <clipPath id="_clip4">
                            <rect x="772.476" y="545.904" width="5.275" height="2.563"/>
                        </clipPath>
                        <g clip-path="url(#_clip4)">
                            <path d="M776.539,548.467C776.932,548.463 777.336,548.452 777.751,548.432L777.462,545.908C777.474,545.907 777.485,545.905 777.497,545.904C777.071,545.952 776.653,545.99 776.245,546.018C776.249,546.018 776.254,546.018 776.258,546.017L776.539,548.467Z" style="fill:rgb(147,149,152);fill-rule:nonzero;"/>
                            <path d="M773.231,548.335C773.631,548.371 774.061,548.402 774.52,548.427L773.793,546.053C773.807,546.054 773.821,546.054 773.835,546.054C773.371,546.033 772.919,545.997 772.477,545.944C772.485,545.945 772.492,545.946 772.5,545.947L773.231,548.335Z" style="fill:rgb(147,149,152);fill-rule:nonzero;"/>
                        </g>
                    </g>
                </g>
            </g>
        </g>
        <g transform="matrix(4.16667,0,0,4.16667,0,0)">
            <path d="M770.165,544.974L770.735,546.684C770.735,546.684 774.607,547.992 779.686,546.684L779.184,544.974L774.155,545.494L770.165,544.974Z" style="fill:white;fill-rule:nonzero;"/>
        </g>
        <g transform="matrix(4.16667,0,0,4.16667,0,0)">
            <path d="M770.775,512.084C770.775,511.846 770.586,511.655 770.35,511.655C770.115,511.655 769.921,511.846 769.921,512.084C769.921,512.319 770.115,512.509 770.35,512.509C770.586,512.509 770.775,512.319 770.775,512.084M770.35,510.448C771.253,510.448 771.982,511.182 771.982,512.084C771.982,512.982 771.253,513.716 770.35,513.716C769.448,513.716 768.714,512.982 768.714,512.084C768.714,511.182 769.448,510.448 770.35,510.448" style="fill:rgb(35,31,32);fill-rule:nonzero;"/>
        </g>
        <g transform="matrix(4.16667,0,0,4.16667,0,0)">
            <path d="M779.009,545.692C778.822,545.723 778.635,545.754 778.452,545.782C778.635,545.755 778.823,545.722 779.009,545.692" style="fill:rgb(88,89,91);fill-rule:nonzero;"/>
        </g>
        <g transform="matrix(4.16667,0,0,4.16667,0,0)">
            <path d="M775.547,546.055C775.384,546.061 775.223,546.065 775.064,546.068C775.224,546.064 775.384,546.062 775.547,546.055" style="fill:rgb(88,89,91);fill-rule:nonzero;"/>
        </g>
        <g transform="matrix(4.16667,0,0,4.16667,0,0)">
            <path d="M778.318,514.648C776.767,514.947 775.05,515.272 774.972,515.288C774.972,515.288 774.969,515.288 774.969,515.291C774.652,515.35 774.308,515.363 773.956,515.33L773.669,512.832C775.205,513.435 776.991,514.131 778.318,514.648M799.74,534.811L792.26,531.9C792.321,531.712 792.375,531.519 792.421,531.32L803.067,534.169C802.053,534.365 800.917,534.585 799.74,534.811M793.534,536L790.281,534.736C791.144,534.05 791.771,533.197 792.155,532.183L799.181,534.917C797.242,535.291 795.235,535.674 793.534,536M789.527,536.763L789.445,536.778C787.822,537.088 786.051,537.026 784.332,536.645C786.184,536.54 788.344,536.121 789.998,534.947L792.975,536.105C791.361,536.413 790.09,536.655 789.527,536.763M817.707,538.278L815.625,537.466C814.503,537.692 813.127,537.967 811.557,538.278L807.527,536.709L805.303,537.134L809.358,538.715C801.45,540.278 789.885,542.526 779.296,544.423C778.415,544.584 777.573,544.698 776.764,544.77L776.725,544.77C776.719,544.773 776.714,544.773 776.71,544.777C774.336,544.985 772.266,544.834 770.428,544.315C766.967,543.335 764.349,540.824 763.054,537.243C761.232,532.205 762.409,527.28 763.658,522.07L763.896,521.065C764.377,519.046 764.88,516.995 765.369,515.009C765.682,513.73 766,512.448 766.31,511.169C767.128,507.793 768.636,505.696 770.248,505.696C771.741,505.696 771.958,508.471 771.958,508.496L772.269,511.199C772.269,511.202 772.269,511.209 772.272,511.211L773.838,524.897L775.084,525.382C775.092,525.329 775.096,525.271 775.089,525.213L774.758,522.317C775.172,522.701 775.69,523.062 776.345,523.346C778.176,524.136 787.669,527.857 795.343,530.852L792.381,530.062L789.892,530.557C789.967,530.629 790.057,530.69 790.167,530.716L791.253,531.009C790.987,532.21 790.363,533.182 789.397,533.897C786.515,536.03 781.45,535.406 780.683,535.296C780.179,535.025 779.697,534.726 779.245,534.395C777.875,533.384 776.213,531.694 775.609,529.19L774.281,528.671C774.676,531.296 776.136,533.604 778.529,535.366C781.004,537.185 784.172,538.19 787.228,538.19C788.057,538.19 788.875,538.115 789.672,537.963L789.75,537.949C791.605,537.596 801.064,535.794 805.261,534.971L805.868,534.85L807.816,534.455L805.97,533.695C805.708,533.595 779.902,523.569 776.825,522.239C775.053,521.475 774.538,519.985 774.463,519.735L774.097,516.545C774.17,516.548 774.242,516.554 774.314,516.554C774.616,516.554 774.912,516.527 775.196,516.476L775.192,516.47C775.962,516.34 780.348,515.487 780.397,515.474L780.602,515.435L782.575,515.016L780.714,514.289C780.708,514.286 780.705,514.283 780.702,514.28C780.663,514.267 777.639,513.09 774.966,512.044C774.948,511.181 774.257,510.484 773.397,510.451L773.162,508.409C773.072,506.945 772.356,504.489 770.248,504.489C768.018,504.489 766.108,506.878 765.136,510.885C764.826,512.165 764.512,513.444 764.198,514.723C763.707,516.709 763.203,518.763 762.722,520.788L762.484,521.79C761.251,526.942 759.974,532.274 761.918,537.65C763.347,541.609 766.255,544.387 770.099,545.476C770.121,545.482 770.143,545.487 770.165,545.493C770.143,545.487 770.121,545.482 770.1,545.476C770.121,545.482 770.143,545.487 770.165,545.493C770.716,545.645 771.287,545.769 771.877,545.862L771.882,545.862C772.078,545.893 772.276,545.92 772.476,545.944C772.918,545.997 773.37,546.033 773.834,546.053C774.126,546.065 774.422,546.074 774.721,546.074C774.834,546.074 774.949,546.069 775.063,546.067C775.222,546.064 775.383,546.06 775.547,546.054C775.777,546.044 776.01,546.032 776.245,546.017C776.653,545.99 777.071,545.952 777.497,545.904C777.811,545.868 778.129,545.828 778.452,545.782C778.634,545.754 778.822,545.723 779.008,545.692C779.174,545.666 779.338,545.642 779.506,545.612C790.969,543.557 803.575,541.095 811.449,539.53L815.48,541.102L817.707,540.676L813.648,539.092C815.359,538.752 816.744,538.474 817.707,538.278" style="fill:rgb(88,89,91);fill-rule:nonzero;"/>
        </g>
        <g transform="matrix(4.16667,0,0,4.16667,0,0)">
            <clipPath id="_clip5">
                <rect x="784.46" y="531.593" width="18.735" height="5.655"/>
            </clipPath>
            <g clip-path="url(#_clip5)">
                <g>
                    <g>
                        <clipPath id="_clip6">
                            <rect x="784.46" y="531.592" width="18.736" height="5.656"/>
                        </clipPath>
                        <g clip-path="url(#_clip6)">
                            <path d="M792.549,531.593L803.195,534.441C802.182,534.637 801.045,534.858 799.868,535.083L792.389,532.172C792.449,531.985 792.503,531.792 792.549,531.593" style="fill:rgb(147,149,152);fill-rule:nonzero;"/>
                            <path d="M790.126,535.219L793.104,536.378C791.489,536.686 790.219,536.927 789.655,537.035L789.573,537.051C787.95,537.362 786.18,537.298 784.46,536.918C786.313,536.813 788.473,536.393 790.126,535.219" style="fill:rgb(147,149,152);fill-rule:nonzero;"/>
                            <path d="M792.283,532.455L799.309,535.188C797.37,535.563 795.363,535.946 793.662,536.272L790.409,535.008C791.272,534.323 791.899,533.469 792.283,532.455" style="fill:rgb(147,149,152);fill-rule:nonzero;"/>
                        </g>
                    </g>
                </g>
            </g>
        </g>
        <g transform="matrix(4.16667,0,0,4.16667,0,0)">
            <g>
                <g>
                    <clipPath id="_clip7">
                        <rect x="773.489" y="511.961" width="4.761" height="3.501"/>
                    </clipPath>
                    <g clip-path="url(#_clip7)">
                        <path d="M773.601,512.945C775.136,513.549 776.922,514.246 778.25,514.761C776.7,515.06 774.983,515.386 774.904,515.401C774.904,515.401 774.901,515.401 774.901,515.404C774.584,515.465 774.241,515.477 773.887,515.444L773.601,512.945Z" style="fill:rgb(253,184,18);fill-rule:nonzero;"/>
                        <path d="M773.489,511.961L773.648,513.359C773.781,513.188 773.864,512.976 773.864,512.742C773.864,512.426 773.716,512.147 773.489,511.961" style="fill:rgb(253,184,18);fill-rule:nonzero;"/>
                    </g>
                </g>
            </g>
        </g>
        <g transform="matrix(4.16667,0,0,4.16667,0,0)">
            <path d="M1014.04,528.521C1009.63,528.533 1005.23,528.624 1000.83,528.785C1000.28,528.805 999.844,529.264 999.844,529.808L999.844,565.399C999.844,565.943 999.402,566.402 998.857,566.424C993.885,566.63 988.912,566.925 983.939,567.297C983.394,567.337 982.953,567.813 982.953,568.358L982.953,570.552C982.953,571.097 983.394,571.504 983.939,571.463C993.972,570.712 1004,570.278 1014.04,570.25C1014.76,570.249 1015.24,569.496 1014.93,568.841C1011.92,562.497 1008.92,556.19 1005.91,549.917C1005.79,549.654 1005.79,549.343 1005.91,549.073C1008.92,542.657 1011.92,536.274 1014.93,529.928C1015.24,529.274 1014.76,528.52 1014.04,528.521M764.316,596.912L764.316,561.322C764.316,560.777 763.875,560.353 763.331,560.373C758.927,560.534 754.522,560.625 750.118,560.636C749.394,560.638 748.918,561.389 749.226,562.043C752.21,568.389 755.194,574.699 758.18,580.973C758.305,581.237 758.305,581.544 758.18,581.813C755.194,588.23 752.21,594.614 749.226,600.961C748.918,601.615 749.395,602.368 750.118,602.366C760.152,602.338 770.186,601.903 780.221,601.152C780.766,601.112 781.207,600.636 781.207,600.091L781.207,597.897C781.207,597.353 780.766,596.945 780.221,596.986C775.248,597.358 770.275,597.653 765.303,597.859C764.759,597.88 764.316,597.457 764.316,596.912M995.383,563.108C919.848,566.853 844.312,590.479 768.777,594.225C768.233,594.252 767.791,593.832 767.791,593.287L767.791,554.238C767.791,553.693 768.233,553.231 768.777,553.204C844.312,549.458 919.848,525.832 995.383,522.086C995.928,522.059 996.369,522.48 996.369,523.024L996.369,562.074C996.369,562.619 995.928,563.081 995.383,563.108" style="fill:rgb(0,64,113);fill-rule:nonzero;"/>
        </g>
        <g transform="matrix(4.16667,0,0,4.16667,0,0)">
            <path d="M941.215,552.048C938.925,552.381 936.635,552.724 934.346,553.074L934.346,549.655C936.635,549.305 938.925,548.963 941.215,548.63L941.215,552.048Z" style="fill:white;fill-rule:nonzero;"/>
        </g>
        <g transform="matrix(4.16667,0,0,4.16667,0,0)">
            <path d="M819.224,566.631C819.224,566.614 819.225,566.598 819.225,566.581C819.224,566.569 819.224,566.556 819.224,566.542L819.224,566.631Z" style="fill:white;fill-rule:nonzero;"/>
        </g>
        <g transform="matrix(4.16667,0,0,4.16667,0,0)">
            <path d="M830.886,577.092C828.347,577.484 825.809,577.865 823.27,578.236C823.182,578.248 823.111,578.329 823.112,578.417L823.112,581.859C823.111,581.946 823.183,582.007 823.27,581.994C825.809,581.624 828.347,581.242 830.886,580.851C830.974,580.837 831.044,580.755 831.045,580.667L831.045,577.226C831.045,577.138 830.974,577.078 830.886,577.092" style="fill:white;fill-rule:nonzero;"/>
        </g>
        <g transform="matrix(4.16667,0,0,4.16667,0,0)">
            <path d="M791.894,571.458C791.243,571.521 790.592,571.584 789.941,571.645C789.757,571.663 789.609,571.492 789.609,571.271L789.609,563.759C789.609,563.369 789.925,563.023 790.315,562.986C790.841,562.937 791.368,562.886 791.894,562.834C796.28,562.398 796.722,563.664 796.722,566.837C796.721,569.855 795.911,571.061 791.894,571.458M793,558.855C789.489,559.206 785.976,559.523 782.464,559.802C782.32,559.813 782.203,559.94 782.203,560.085L782.203,563.43C782.203,563.575 782.32,563.684 782.464,563.672C783.164,563.616 783.862,563.559 784.56,563.501C785.187,563.448 785.482,563.976 785.482,564.455L785.482,586.193C785.482,586.339 785.599,586.446 785.745,586.434C786.945,586.33 788.146,586.223 789.346,586.11C789.492,586.098 789.609,585.969 789.609,585.824L789.609,575.919C789.609,575.774 789.726,575.645 789.872,575.632C790.767,575.548 791.663,575.462 792.558,575.373C798.38,574.789 800.887,572.417 800.887,566.379C800.887,560.255 798.787,558.27 793,558.855" style="fill:white;fill-rule:nonzero;"/>
        </g>
        <g transform="matrix(4.16667,0,0,4.16667,0,0)">
            <path d="M808.822,569.554C808.196,569.633 807.57,569.711 806.943,569.788C806.649,569.825 806.538,569.617 806.538,569.396L806.538,561.657C806.538,561.325 806.685,561.197 806.943,561.164C807.57,561.087 808.196,561.009 808.822,560.93C813.208,560.371 813.65,561.627 813.65,564.8C813.65,567.82 812.84,569.043 808.822,569.554M814.676,572.056C814.618,571.95 814.664,571.814 814.769,571.732C815.036,571.571 815.258,571.4 815.416,571.22C815.411,571.22 815.406,571.221 815.402,571.222C817.045,569.771 817.815,567.564 817.815,564.234C817.816,558.111 815.715,556.174 809.928,556.92C807.505,557.231 805.08,557.528 802.656,557.81C802.519,557.825 802.409,557.95 802.409,558.085C802.409,566.888 802.41,575.691 802.411,584.493C802.41,584.63 802.521,584.728 802.658,584.712C803.869,584.571 805.079,584.426 806.291,584.279C806.426,584.262 806.537,584.137 806.538,584.001L806.538,574.508C806.538,574.126 806.846,573.783 807.228,573.733C807.744,573.665 808.278,573.586 808.798,573.503C808.798,573.503 809.327,573.422 810.091,573.265C810.379,573.206 810.654,573.322 810.789,573.56C812.541,576.674 814.292,579.782 816.044,582.882C816.087,582.958 816.171,582.997 816.262,582.985C817.526,582.812 818.791,582.636 820.054,582.456C820.24,582.43 820.359,582.217 820.274,582.065C818.408,578.735 816.543,575.399 814.676,572.056" style="fill:white;fill-rule:nonzero;"/>
        </g>
        <g transform="matrix(4.16667,0,0,4.16667,0,0)">
            <path d="M903.574,541.271C900.889,541.735 898.206,542.205 895.521,542.676L895.521,542.667C890.867,543.501 886.213,544.345 881.558,545.189C881.351,545.226 881.184,545.424 881.183,545.631L881.183,571.821C881.183,572.028 881.351,572.166 881.558,572.128C885.645,571.388 889.732,570.647 893.819,569.913C894.026,569.875 894.194,569.677 894.194,569.47L894.194,566.018C894.194,565.812 894.026,565.674 893.819,565.711C891.291,566.166 888.761,566.623 886.233,567.081C885.606,567.194 885.386,566.718 885.386,566.312L885.386,558.466C885.385,557.914 885.754,557.405 886.269,557.312C888.295,556.945 890.319,556.579 892.344,556.214C892.551,556.177 892.719,555.979 892.719,555.772L892.719,552.321C892.719,552.114 892.551,551.976 892.344,552.013C890.307,552.38 888.27,552.749 886.233,553.117C885.754,553.204 885.386,552.792 885.386,552.349L885.386,549.36C885.386,548.917 885.829,548.322 886.307,548.235C891.694,547.26 897.081,546.289 902.469,545.335C906.853,544.561 907.295,547.399 907.296,554.142C907.295,560.113 906.485,563.715 902.469,564.425L900.699,564.739C900.404,564.792 900.22,564.677 900.22,564.308L900.22,548.153C900.22,547.946 900.052,547.808 899.845,547.844C898.707,548.047 897.568,548.25 896.43,548.454C896.223,548.492 896.055,548.689 896.055,548.896L896.055,569.136C896.055,569.343 896.223,569.481 896.43,569.444C898.811,569.017 901.192,568.593 903.574,568.173C908.438,567.315 911.46,563.703 911.46,553.419C911.46,541.738 908.18,540.495 903.574,541.271" style="fill:white;fill-rule:nonzero;"/>
        </g>
        <g transform="matrix(4.16667,0,0,4.16667,0,0)">
            <path d="M830.406,567.802C830.256,568.775 830.037,569.991 829.239,570.753C828.63,571.335 827.794,571.483 827.048,571.595C825.813,571.781 824.774,571.67 824.229,570.541C823.694,569.43 823.605,568.036 823.518,566.767C823.375,564.668 823.401,563.53 823.836,561.378C824.007,560.531 824.274,559.522 825.014,558.917C825.604,558.435 826.365,558.321 827.048,558.218C828.117,558.057 829.303,557.854 829.897,558.815C830.482,559.761 830.532,561.121 830.609,562.265C830.755,564.401 830.744,565.61 830.406,567.802M832.808,554.58C831.337,553.412 829.026,553.72 827.122,554.005C826.758,554.061 826.393,554.124 826.03,554.203C823.898,554.664 821.893,555.676 820.785,557.769C820.177,558.914 819.869,560.169 819.662,561.393C819.372,563.11 819.227,564.88 819.224,566.581C819.258,567.726 819.291,567.905 819.381,569.038C819.55,571.168 819.766,573.911 821.45,575.253C822.908,576.415 825.172,576.115 827.048,575.833C828.206,575.659 829.391,575.451 830.524,575.012C832.504,574.244 833.638,572.69 834.183,570.692C834.592,569.196 834.733,567.667 834.83,566.171C834.973,563.932 834.968,562.682 834.796,560.494C834.635,558.445 834.418,555.858 832.808,554.58" style="fill:white;fill-rule:nonzero;"/>
        </g>
        <g transform="matrix(4.16667,0,0,4.16667,0,0)">
            <path d="M937.236,558.855C933.748,559.377 930.259,559.921 926.771,560.482C925.961,560.613 925.445,560.217 925.445,559.48L925.445,538.182C925.444,537.834 925.163,537.598 924.815,537.655C923.736,537.831 922.657,538.007 921.578,538.185C921.23,538.243 920.948,538.571 920.948,538.919L920.948,564.562C920.948,564.911 921.23,565.145 921.578,565.087C926.798,564.226 932.016,563.397 937.236,562.614C937.585,562.562 937.866,562.238 937.866,561.89L937.866,559.39C937.866,559.042 937.584,558.802 937.236,558.855" style="fill:white;fill-rule:nonzero;"/>
        </g>
        <g transform="matrix(4.16667,0,0,4.16667,0,0)">
            <path d="M975.066,531.03C970.033,531.483 965,532.009 959.966,532.596L959.966,532.633C959.949,532.635 959.931,532.637 959.913,532.639L959.913,548.634C959.913,548.744 959.802,548.831 959.728,548.84C959.655,548.848 959.545,548.788 959.507,548.682C957.278,543.72 955.049,538.77 952.821,533.832C952.741,533.655 952.557,533.557 952.353,533.584C951.234,533.73 950.115,533.879 948.996,534.03C948.715,534.068 948.488,534.326 948.488,534.606L948.488,556.735C948.488,557.015 948.26,557.273 947.98,557.312C947.478,557.381 946.975,557.45 946.473,557.519C946.235,557.552 946.028,557.415 945.977,557.189C944.337,549.969 942.696,542.755 941.055,535.545C941.004,535.319 940.798,535.183 940.56,535.218C937.093,535.724 933.628,536.253 930.162,536.799C929.881,536.842 929.654,537.106 929.654,537.386L929.654,540.204C929.654,540.484 929.88,540.676 930.162,540.632C930.901,540.514 931.641,540.399 932.38,540.284C933.191,540.158 933.45,540.377 933.45,540.745C933.45,540.855 933.45,541.004 933.413,541.119C932.206,546.539 930.998,551.962 929.791,557.385C929.716,557.716 929.958,557.981 930.285,557.93C931.342,557.763 932.401,557.598 933.46,557.435C933.706,557.398 933.916,557.189 933.959,556.94C935.091,551.674 936.223,546.409 937.356,541.146C937.392,541.031 937.466,540.945 937.541,540.934C937.614,540.924 937.687,540.986 937.724,541.092C939.292,547.887 940.858,554.687 942.425,561.492C942.478,561.716 942.683,561.85 942.92,561.816C944.248,561.626 945.575,561.439 946.901,561.256C948.663,561.002 950.423,560.753 952.184,560.511C952.463,560.473 952.689,560.217 952.689,559.938L952.689,544.595C952.689,544.448 952.763,544.365 952.837,544.355C952.911,544.346 952.984,544.41 953.058,544.548C955.298,549.438 957.54,554.339 959.781,559.252C959.861,559.428 960.045,559.526 960.247,559.503C961.367,559.37 962.487,559.24 963.607,559.113C963.886,559.082 964.114,558.829 964.114,558.549L964.114,536.496C964.114,536.215 964.342,535.962 964.624,535.931C967.975,535.571 971.327,535.241 974.677,534.941L974.677,534.968C978.392,534.945 978.789,537.872 978.789,544.223C978.789,550.198 977.978,553.717 973.961,554.092C973.371,554.148 972.781,554.205 972.192,554.263C971.896,554.292 971.712,554.163 971.712,553.795L971.712,537.79C971.712,537.509 971.485,537.304 971.205,537.333C970.155,537.437 969.105,537.545 968.055,537.655C967.775,537.685 967.548,537.936 967.548,538.217C967.547,544.869 967.547,551.521 967.548,558.174C967.547,558.454 967.775,558.657 968.055,558.627C970.392,558.381 972.729,558.149 975.066,557.932C979.93,557.484 982.953,554.171 982.953,543.885C982.953,532.206 979.673,530.64 975.066,531.03" style="fill:white;fill-rule:nonzero;"/>
        </g>
        <g transform="matrix(4.16667,0,0,4.16667,0,0)">
            <path d="M874.629,558.936C873.695,558.491 872.761,558.044 871.827,557.599C868.438,555.998 868.068,555.215 868.068,553.962C868.068,552.193 868.88,551.017 871.496,550.545C873.739,550.142 874.984,550.158 875.066,553.15C875.071,553.327 875.213,553.45 875.391,553.417C876.599,553.2 877.807,552.981 879.015,552.762C879.196,552.729 879.346,552.548 879.344,552.367C879.287,546.679 877.752,545.364 871.607,546.472C865.563,547.56 863.61,550.814 863.61,554.721C863.61,559.328 866.668,560.37 869.764,561.987C870.587,562.416 871.41,562.845 872.233,563.275C874.886,564.639 875.071,565.415 875.07,566.78C875.07,568.77 874.444,569.989 871.496,570.52C868.41,571.076 867.987,570.228 867.96,567.468C867.959,567.289 867.814,567.165 867.635,567.197L863.941,567.856C863.759,567.888 863.609,568.069 863.611,568.25C863.671,574.339 865.379,575.711 871.496,574.611C877.281,573.568 879.604,570.417 879.604,566.034C879.604,565.554 879.566,565.044 879.53,564.536C879.234,561.751 877.025,560.088 874.629,558.936" style="fill:white;fill-rule:nonzero;"/>
        </g>
        <g transform="matrix(4.16667,0,0,4.16667,0,0)">
            <path d="M859.676,548.849C858.35,549.082 857.243,550.344 857.243,551.707C857.243,553.375 858.898,554.312 860.585,553.385C861.338,552.971 861.922,552.197 862.089,551.381C862.429,549.716 861.169,548.585 859.676,548.849" style="fill:white;fill-rule:nonzero;"/>
        </g>
        <g transform="matrix(4.16667,0,0,4.16667,0,0)">
            <path d="M854.259,550.062C853.11,550.261 851.96,550.458 850.812,550.656C850.617,550.689 850.448,550.848 850.4,551.044C849.088,556.309 847.777,561.573 846.466,566.834C846.356,567.294 846.134,567.553 845.949,567.584C845.728,567.622 845.507,567.437 845.397,567.013C843.977,562.208 842.556,557.399 841.136,552.588C841.083,552.414 840.916,552.314 840.726,552.345C839.574,552.534 838.423,552.721 837.272,552.906C837.037,552.943 836.847,553.165 836.847,553.399L836.847,579.525C836.847,579.759 837.037,579.919 837.272,579.882C838.389,579.703 839.506,579.521 840.623,579.338C840.858,579.3 841.048,579.079 841.048,578.844L841.048,570.019C841.048,569.65 841.196,569.405 841.342,569.381C841.453,569.363 841.602,569.486 841.675,569.768C842.59,572.65 843.506,575.53 844.421,578.409C844.475,578.58 844.64,578.675 844.828,578.644C845.513,578.53 846.197,578.415 846.881,578.299C847.072,578.267 847.238,578.113 847.29,577.92C848.158,574.708 849.026,571.495 849.893,568.281C849.93,568.09 850.077,567.955 850.189,567.935C850.335,567.911 850.483,568.033 850.483,568.327L850.483,577.262C850.483,577.498 850.673,577.656 850.907,577.615C852.025,577.424 853.142,577.231 854.259,577.038C854.493,576.998 854.684,576.774 854.684,576.539L854.684,550.414C854.684,550.178 854.493,550.021 854.259,550.062" style="fill:white;fill-rule:nonzero;"/>
        </g>
        <g transform="matrix(4.16667,0,0,4.16667,0,0)">
            <path d="M861.447,554.948C860.265,555.157 859.085,555.365 857.903,555.572C857.721,555.603 857.575,555.776 857.574,555.958L857.574,576.094C857.575,576.276 857.721,576.397 857.903,576.365C859.085,576.158 860.265,575.95 861.447,575.741C861.629,575.71 861.776,575.536 861.776,575.355L861.776,555.219C861.776,555.037 861.629,554.916 861.447,554.948" style="fill:white;fill-rule:nonzero;"/>
        </g>
    </g>
</svg>
