<?xml version="1.0" standalone="no"?>
<!DOCTYPE svg PUBLIC "-//W3C//DTD SVG 1.1//EN" "http://www.w3.org/Graphics/SVG/1.1/DTD/svg11.dtd">
<svg width="100%" height="100%" viewBox="0 0 110 179" version="1.1" xmlns="http://www.w3.org/2000/svg" xmlns:xlink="http://www.w3.org/1999/xlink" xml:space="preserve" style="fill-rule:evenodd;clip-rule:evenodd;stroke-linejoin:round;stroke-miterlimit:1.41421;">
    <g transform="matrix(1,0,0,1,-607.411,-1466.88)">
        <g transform="matrix(4.16667,0,0,4.16667,0,0)">
            <path d="M150.137,370.683L150.137,360.737C150.137,355.959 154.046,352.05 158.824,352.05L158.825,352.05C163.602,352.05 167.512,355.959 167.512,360.737L167.512,364.472L164.128,364.472L164.128,360.737C164.128,357.812 161.749,355.433 158.825,355.433C155.9,355.433 153.52,357.812 153.52,360.737L153.52,370.683L150.137,370.683ZM160.393,382.412L160.393,385.645C160.393,386.475 159.714,387.155 158.883,387.155C158.053,387.155 157.373,386.475 157.373,385.645L157.373,382.412C156.723,381.943 156.299,381.181 156.299,380.318C156.299,378.891 157.456,377.734 158.883,377.734C160.31,377.734 161.467,378.891 161.467,380.318C161.467,381.181 161.042,381.943 160.393,382.412M167.592,371.514L150.058,371.514C147.695,371.514 145.779,373.43 145.779,375.793L145.779,381.653C145.779,388.91 151.662,394.793 158.919,394.793C166.136,394.793 171.987,388.942 171.987,381.725L171.987,375.909C171.987,373.482 170.019,371.514 167.592,371.514" style="fill:rgb(88,89,91);fill-rule:nonzero;"/>
        </g>
    </g>
</svg>
